<svg width="309" height="50" viewBox="0 0 309 50" fill="none" xmlns="http://www.w3.org/2000/svg">
<path d="M22.2078 24.6562C24.4109 25.125 26.0594 25.875 27.1531 26.9062C28.6687 28.3438 29.4266 30.1016 29.4266 32.1797C29.4266 33.7578 28.9266 35.2734 27.9266 36.7266C26.9266 38.1641 25.5516 39.2109 23.8016 39.8672C22.0672 40.5391 19.4109 40.875 15.8328 40.875H0.832809V40.0078H2.02812C3.35625 40.0078 4.30937 39.5859 4.8875 38.7422C5.24687 38.1953 5.42656 37.0312 5.42656 35.25V14.7188C5.42656 12.75 5.2 11.5078 4.74687 10.9922C4.1375 10.3047 3.23125 9.96094 2.02812 9.96094H0.832809V9.09375H14.5672C17.1297 9.09375 19.1844 9.28125 20.7312 9.65625C23.075 10.2188 24.8641 11.2188 26.0984 12.6562C27.3328 14.0781 27.95 15.7188 27.95 17.5781C27.95 19.1719 27.4656 20.6016 26.4969 21.8672C25.5281 23.1172 24.0984 24.0469 22.2078 24.6562ZM9.92656 22.7344C10.5047 22.8438 11.1609 22.9297 11.8953 22.9922C12.6453 23.0391 13.4656 23.0625 14.3562 23.0625C16.6375 23.0625 18.3484 22.8203 19.4891 22.3359C20.6453 21.8359 21.5281 21.0781 22.1375 20.0625C22.7469 19.0469 23.0516 17.9375 23.0516 16.7344C23.0516 14.875 22.2937 13.2891 20.7781 11.9766C19.2625 10.6641 17.0516 10.0078 14.1453 10.0078C12.5828 10.0078 11.1766 10.1797 9.92656 10.5234V22.7344ZM9.83281 38.2031C11.6453 38.625 13.4344 38.8359 15.2 38.8359C18.0281 38.8359 20.1844 38.2031 21.6687 36.9375C23.1531 35.6562 23.8953 34.0781 23.8953 32.2031C23.8953 30.9688 23.5594 29.7812 22.8875 28.6406C22.2156 27.5 21.1219 26.6016 19.6062 25.9453C18.0906 25.2891 16.2156 24.9609 13.9812 24.9609C13.0125 24.9609 12.1844 24.9766 11.4969 25.0078C10.8094 25.0391 10.2547 25.0938 9.83281 25.1719V38.2031ZM55.5312 23.9531H43.2266L41.0703 28.9688C40.5391 30.2031 40.2734 31.125 40.2734 31.7344C40.2734 32.2188 40.5 32.6484 40.9531 33.0234C41.4219 33.3828 42.4219 33.6172 43.9531 33.7266V34.5938H33.9453V33.7266C35.2734 33.4922 36.1328 33.1875 36.5234 32.8125C37.3203 32.0625 38.2031 30.5391 39.1719 28.2422L50.3516 2.08594H51.1719L62.2344 28.5234C63.125 30.6484 63.9297 32.0312 64.6484 32.6719C65.3828 33.2969 66.3984 33.6484 67.6953 33.7266V34.5938H55.1562V33.7266C56.4219 33.6641 57.2734 33.4531 57.7109 33.0938C58.1641 32.7344 58.3906 32.2969 58.3906 31.7812C58.3906 31.0938 58.0781 30.0078 57.4531 28.5234L55.5312 23.9531ZM55.3437 21.75L49.9531 8.90625L44.4219 21.75H55.3437ZM61.925 9.1875H70.55L89.9797 33.0234V14.6953C89.9797 12.7422 89.7609 11.5234 89.3234 11.0391C88.7453 10.3828 87.8312 10.0547 86.5812 10.0547H85.4797V9.1875H96.5422V10.0547H95.4172C94.0734 10.0547 93.1203 10.4609 92.5578 11.2734C92.2141 11.7734 92.0422 12.9141 92.0422 14.6953V41.4844H91.1984L70.2453 15.8906V35.4609C70.2453 37.4141 70.4562 38.6328 70.8781 39.1172C71.4719 39.7734 72.3859 40.1016 73.6203 40.1016H74.7453V40.9688H63.6828V40.1016H64.7844C66.1437 40.1016 67.1047 39.6953 67.6672 38.8828C68.0109 38.3828 68.1828 37.2422 68.1828 35.4609V13.3594C67.2609 12.2812 66.5578 11.5703 66.0734 11.2266C65.6047 10.8828 64.9094 10.5625 63.9875 10.2656C63.5344 10.125 62.8469 10.0547 61.925 10.0547V9.1875ZM93.0687 9.1875H101.694L121.123 33.0234V14.6953C121.123 12.7422 120.905 11.5234 120.467 11.0391C119.889 10.3828 118.975 10.0547 117.725 10.0547H116.623V9.1875H127.686V10.0547H126.561C125.217 10.0547 124.264 10.4609 123.702 11.2734C123.358 11.7734 123.186 12.9141 123.186 14.6953V41.4844H122.342L101.389 15.8906V35.4609C101.389 37.4141 101.6 38.6328 102.022 39.1172C102.616 39.7734 103.53 40.1016 104.764 40.1016H105.889V40.9688H94.8266V40.1016H95.9281C97.2875 40.1016 98.2484 39.6953 98.8109 38.8828C99.1547 38.3828 99.3266 37.2422 99.3266 35.4609V13.3594C98.4047 12.2812 97.7016 11.5703 97.2172 11.2266C96.7484 10.8828 96.0531 10.5625 95.1312 10.2656C94.6781 10.125 93.9906 10.0547 93.0687 10.0547V9.1875ZM135.064 10.4531V23.0156H142.048C143.861 23.0156 145.072 22.7422 145.681 22.1953C146.494 21.4766 146.947 20.2109 147.041 18.3984H147.908V29.4609H147.041C146.822 27.9141 146.603 26.9219 146.384 26.4844C146.103 25.9375 145.642 25.5078 145.002 25.1953C144.361 24.8828 143.377 24.7266 142.048 24.7266H135.064V35.2031C135.064 36.6094 135.127 37.4688 135.252 37.7812C135.377 38.0781 135.595 38.3203 135.908 38.5078C136.22 38.6797 136.814 38.7656 137.689 38.7656H143.08C144.877 38.7656 146.181 38.6406 146.994 38.3906C147.806 38.1406 148.587 37.6484 149.337 36.9141C150.306 35.9453 151.298 34.4844 152.314 32.5312H153.252L150.509 40.5H126.017V39.6328H127.142C127.892 39.6328 128.603 39.4531 129.275 39.0938C129.775 38.8438 130.111 38.4688 130.283 37.9688C130.47 37.4688 130.564 36.4453 130.564 34.8984V14.25C130.564 12.2344 130.361 10.9922 129.955 10.5234C129.392 9.89844 128.455 9.58594 127.142 9.58594H126.017V8.71875H150.509L150.861 15.6797H149.947C149.619 14.0078 149.252 12.8594 148.845 12.2344C148.455 11.6094 147.869 11.1328 147.087 10.8047C146.462 10.5703 145.361 10.4531 143.783 10.4531H135.064ZM179.708 43.0312H171.223L160.466 28.1719C159.669 28.2031 159.02 28.2188 158.52 28.2188C158.317 28.2188 158.098 28.2188 157.864 28.2188C157.63 28.2031 157.387 28.1875 157.137 28.1719V37.4062C157.137 39.4062 157.356 40.6484 157.794 41.1328C158.387 41.8203 159.278 42.1641 160.466 42.1641H161.708V43.0312H148.091V42.1641H149.286C150.63 42.1641 151.591 41.7266 152.169 40.8516C152.497 40.3672 152.661 39.2188 152.661 37.4062V16.875C152.661 14.875 152.442 13.6328 152.005 13.1484C151.395 12.4609 150.489 12.1172 149.286 12.1172H148.091V11.25H159.669C163.044 11.25 165.528 11.5 167.122 12C168.731 12.4844 170.091 13.3906 171.2 14.7188C172.325 16.0312 172.887 17.6016 172.887 19.4297C172.887 21.3828 172.247 23.0781 170.966 24.5156C169.7 25.9531 167.731 26.9688 165.059 27.5625L171.622 36.6797C173.122 38.7734 174.411 40.1641 175.489 40.8516C176.567 41.5391 177.973 41.9766 179.708 42.1641V43.0312ZM156.669 26.2266C156.966 26.2266 157.223 26.2344 157.442 26.25C157.661 26.25 157.841 26.25 157.981 26.25C161.012 26.25 163.294 25.5938 164.825 24.2812C166.372 22.9688 167.145 21.2969 167.145 19.2656C167.145 17.2812 166.52 15.6719 165.27 14.4375C164.036 13.1875 162.395 12.5625 160.348 12.5625C159.442 12.5625 158.216 12.7109 156.669 13.0078V26.2266ZM210.331 40.0547C209.284 41.1484 208.261 41.9297 207.261 42.3984C206.261 42.8828 205.183 43.125 204.027 43.125C201.683 43.125 199.636 42.1406 197.886 40.1719C196.136 38.2188 195.261 35.7031 195.261 32.625C195.261 29.5469 196.23 26.7344 198.167 24.1875C200.105 21.625 202.597 20.3438 205.644 20.3438C207.534 20.3438 209.097 20.9453 210.331 22.1484V18.1875C210.331 15.7344 210.269 14.2266 210.144 13.6641C210.034 13.1016 209.855 12.7188 209.605 12.5156C209.355 12.3125 209.042 12.2109 208.667 12.2109C208.261 12.2109 207.722 12.3359 207.05 12.5859L206.745 11.7656L213.144 9.14062H214.198V33.9609C214.198 36.4766 214.253 38.0156 214.363 38.5781C214.488 39.125 214.675 39.5078 214.925 39.7266C215.191 39.9453 215.495 40.0547 215.839 40.0547C216.261 40.0547 216.823 39.9219 217.527 39.6562L217.784 40.4766L211.409 43.125H210.331V40.0547ZM210.331 38.9766V27.9141C210.238 26.8516 209.956 25.8828 209.488 25.0078C209.019 24.1328 208.394 23.4766 207.613 23.0391C206.847 22.5859 206.097 22.3594 205.363 22.3594C203.988 22.3594 202.761 22.9766 201.683 24.2109C200.261 25.8359 199.55 28.2109 199.55 31.3359C199.55 34.4922 200.238 36.9141 201.613 38.6016C202.988 40.2734 204.519 41.1094 206.206 41.1094C207.628 41.1094 209.003 40.3984 210.331 38.9766ZM220.358 22.5234C220.342 25.7109 221.116 28.2109 222.678 30.0234C224.241 31.8359 226.077 32.7422 228.186 32.7422C229.592 32.7422 230.811 32.3594 231.842 31.5938C232.889 30.8125 233.764 29.4844 234.467 27.6094L235.194 28.0781C234.866 30.2188 233.912 32.1719 232.334 33.9375C230.756 35.6875 228.78 36.5625 226.405 36.5625C223.827 36.5625 221.616 35.5625 219.772 33.5625C217.944 31.5469 217.03 28.8438 217.03 25.4531C217.03 21.7812 217.967 18.9219 219.842 16.875C221.733 14.8125 224.1 13.7812 226.944 13.7812C229.35 13.7812 231.327 14.5781 232.873 16.1719C234.42 17.75 235.194 19.8672 235.194 22.5234H220.358ZM220.311 21.1875H233.436C232.936 20 232.405 18.8125 231.842 17.625C230.78 16.8125 229.858 16.2969 229.077 16.0781C228.311 15.8438 227.506 15.7266 226.662 15.7266C225.366 15.7266 224.202 16.2344 223.17 17.25C222.155 18.25 221.202 19.5625 220.311 21.1875ZM250.002 13.8047V21.1172H249.228C248.634 18.8203 247.869 17.2578 246.931 16.4297C246.009 15.6016 244.83 15.1875 243.392 15.1875C242.298 15.1875 241.416 15.4766 240.744 16.0547C240.072 16.6328 239.736 17.2734 239.736 17.9766C239.736 18.8516 239.986 19.6016 240.486 20.2266C240.97 20.8672 241.955 21.5469 243.439 22.2656L246.861 23.9297C250.033 25.4766 251.619 27.5156 251.619 30.0469C251.619 32 250.877 33.5781 249.392 34.7812C247.923 35.9688 246.275 36.5625 244.447 36.5625C243.134 36.5625 241.634 36.3281 239.947 35.8594C239.431 35.7031 239.009 35.625 238.681 35.625C238.322 35.625 238.041 35.8281 237.837 36.2344H237.064V28.5703H237.837C238.275 30.7578 239.111 32.4062 240.345 33.5156C241.58 34.625 242.962 35.1797 244.494 35.1797C245.572 35.1797 246.447 34.8672 247.119 34.2422C247.806 33.6016 248.15 32.8359 248.15 31.9453C248.15 30.8672 247.767 29.9609 247.002 29.2266C246.252 28.4922 244.744 27.5625 242.478 26.4375C240.212 25.3125 238.728 24.2969 238.025 23.3906C237.322 22.5 236.97 21.375 236.97 20.0156C236.97 18.25 237.58 16.7734 238.798 15.5859C240.002 14.3984 241.564 13.8047 243.486 13.8047C244.33 13.8047 245.353 13.9844 246.556 14.3438C247.353 14.5781 247.884 14.6953 248.15 14.6953C248.4 14.6953 248.595 14.6406 248.736 14.5312C248.877 14.4219 249.041 14.1797 249.228 13.8047H250.002ZM259.63 0.1875C260.552 3.65625 261.239 5.625 261.692 6.09375C262.161 6.54687 264.536 7.04688 268.817 7.59375C264.536 8.35938 262.161 8.97656 261.692 9.44531C261.239 9.91406 260.677 11.8281 260.005 15.1875C259.364 11.8281 258.809 9.91406 258.341 9.44531C257.872 8.97656 255.645 8.29688 251.661 7.40625C255.645 6.98438 257.864 6.54687 258.317 6.09375C258.786 5.625 259.223 3.65625 259.63 0.1875ZM261.505 18.8672V36.1172C261.505 37.4609 261.598 38.3594 261.786 38.8125C261.989 39.25 262.278 39.5781 262.653 39.7969C263.044 40.0156 263.747 40.125 264.762 40.125V40.9688H254.333V40.125C255.38 40.125 256.083 40.0234 256.442 39.8203C256.802 39.6172 257.083 39.2812 257.286 38.8125C257.505 38.3438 257.614 37.4453 257.614 36.1172V27.8438C257.614 25.5156 257.544 24.0078 257.403 23.3203C257.294 22.8203 257.122 22.4766 256.887 22.2891C256.653 22.0859 256.333 21.9844 255.927 21.9844C255.489 21.9844 254.958 22.1016 254.333 22.3359L254.005 21.4922L260.473 18.8672H261.505ZM270.781 31.0781C269.469 30.4375 268.461 29.5469 267.758 28.4062C267.055 27.25 266.703 25.9766 266.703 24.5859C266.703 22.4609 267.508 20.6328 269.117 19.1016C270.711 17.5703 272.758 16.8047 275.258 16.8047C277.305 16.8047 279.078 17.3047 280.578 18.3047H285.125C285.797 18.3047 286.188 18.3281 286.297 18.375C286.406 18.4062 286.484 18.4688 286.531 18.5625C286.625 18.7031 286.672 18.9531 286.672 19.3125C286.672 19.7188 286.633 20 286.555 20.1562C286.508 20.2344 286.422 20.2969 286.297 20.3438C286.188 20.3906 285.797 20.4141 285.125 20.4141H282.336C283.211 21.5391 283.648 22.9766 283.648 24.7266C283.648 26.7266 282.883 28.4375 281.352 29.8594C279.82 31.2812 277.766 31.9922 275.188 31.9922C274.125 31.9922 273.039 31.8359 271.93 31.5234C271.242 32.1172 270.773 32.6406 270.523 33.0938C270.289 33.5312 270.172 33.9062 270.172 34.2188C270.172 34.4844 270.297 34.7422 270.547 34.9922C270.812 35.2422 271.32 35.4219 272.07 35.5312C272.508 35.5938 273.602 35.6484 275.352 35.6953C278.57 35.7734 280.656 35.8828 281.609 36.0234C283.062 36.2266 284.219 36.7656 285.078 37.6406C285.953 38.5156 286.391 39.5938 286.391 40.875C286.391 42.6406 285.562 44.2969 283.906 45.8438C281.469 48.125 278.289 49.2656 274.367 49.2656C271.352 49.2656 268.805 48.5859 266.727 47.2266C265.555 46.4453 264.969 45.6328 264.969 44.7891C264.969 44.4141 265.055 44.0391 265.227 43.6641C265.492 43.0859 266.039 42.2812 266.867 41.25C266.977 41.1094 267.773 40.2656 269.258 38.7188C268.445 38.2344 267.875 37.8047 267.547 37.4297C267.203 37.0391 267.031 36.6016 267.031 36.1172C267.031 35.5703 267.258 34.9297 267.711 34.1953C268.148 33.4609 269.172 32.4219 270.781 31.0781ZM274.953 17.6484C273.797 17.6484 272.828 18.1094 272.047 19.0312C271.266 19.9531 270.875 21.3672 270.875 23.2734C270.875 25.7422 271.406 27.6562 272.469 29.0156C273.281 30.0469 274.312 30.5625 275.562 30.5625C276.75 30.5625 277.727 30.1172 278.492 29.2266C279.258 28.3359 279.641 26.9375 279.641 25.0312C279.641 22.5469 279.102 20.6016 278.023 19.1953C277.227 18.1641 276.203 17.6484 274.953 17.6484ZM270.453 38.5312C269.719 39.3281 269.164 40.0703 268.789 40.7578C268.414 41.4453 268.227 42.0781 268.227 42.6562C268.227 43.4062 268.68 44.0625 269.586 44.625C271.148 45.5938 273.406 46.0781 276.359 46.0781C279.172 46.0781 281.242 45.5781 282.57 44.5781C283.914 43.5938 284.586 42.5391 284.586 41.4141C284.586 40.6016 284.188 40.0234 283.391 39.6797C282.578 39.3359 280.969 39.1328 278.562 39.0703C275.047 38.9766 272.344 38.7969 270.453 38.5312ZM292.128 17.8828C294.644 14.8516 297.042 13.3359 299.323 13.3359C300.495 13.3359 301.503 13.6328 302.347 14.2266C303.191 14.8047 303.862 15.7656 304.362 17.1094C304.706 18.0469 304.878 19.4844 304.878 21.4219V30.5859C304.878 31.9453 304.987 32.8672 305.206 33.3516C305.378 33.7422 305.652 34.0469 306.027 34.2656C306.417 34.4844 307.128 34.5938 308.159 34.5938V35.4375H297.542V34.5938H297.987C298.987 34.5938 299.683 34.4453 300.073 34.1484C300.48 33.8359 300.761 33.3828 300.917 32.7891C300.98 32.5547 301.011 31.8203 301.011 30.5859V21.7969C301.011 19.8438 300.753 18.4297 300.237 17.5547C299.737 16.6641 298.886 16.2188 297.683 16.2188C295.823 16.2188 293.972 17.2344 292.128 19.2656V30.5859C292.128 32.0391 292.214 32.9375 292.386 33.2812C292.605 33.7344 292.902 34.0703 293.277 34.2891C293.667 34.4922 294.448 34.5938 295.62 34.5938V35.4375H285.003V34.5938H285.472C286.566 34.5938 287.308 34.3203 287.698 33.7734C288.073 33.2109 288.261 32.1484 288.261 30.5859V22.6172C288.261 20.0391 288.206 18.4688 288.097 17.9062C287.972 17.3438 287.792 16.9609 287.558 16.7578C287.308 16.5547 286.98 16.4531 286.573 16.4531C286.136 16.4531 285.612 16.5703 285.003 16.8047L284.652 15.9609L291.12 13.3359H292.128V17.8828Z" fill="white"/>
</svg>
