<svg width="489" height="50" viewBox="0 0 489 50" fill="none" xmlns="http://www.w3.org/2000/svg">
<path d="M21.6172 24.6562C23.8203 25.125 25.4688 25.875 26.5625 26.9062C28.0781 28.3438 28.8359 30.1016 28.8359 32.1797C28.8359 33.7578 28.3359 35.2734 27.3359 36.7266C26.3359 38.1641 24.9609 39.2109 23.2109 39.8672C21.4766 40.5391 18.8203 40.875 15.2422 40.875H0.242188V40.0078H1.4375C2.76562 40.0078 3.71875 39.5859 4.29688 38.7422C4.65625 38.1953 4.83594 37.0312 4.83594 35.25V14.7188C4.83594 12.75 4.60938 11.5078 4.15625 10.9922C3.54688 10.3047 2.64062 9.96094 1.4375 9.96094H0.242188V9.09375H13.9766C16.5391 9.09375 18.5938 9.28125 20.1406 9.65625C22.4844 10.2188 24.2734 11.2188 25.5078 12.6562C26.7422 14.0781 27.3594 15.7188 27.3594 17.5781C27.3594 19.1719 26.875 20.6016 25.9062 21.8672C24.9375 23.1172 23.5078 24.0469 21.6172 24.6562ZM9.33594 22.7344C9.91406 22.8438 10.5703 22.9297 11.3047 22.9922C12.0547 23.0391 12.875 23.0625 13.7656 23.0625C16.0469 23.0625 17.7578 22.8203 18.8984 22.3359C20.0547 21.8359 20.9375 21.0781 21.5469 20.0625C22.1562 19.0469 22.4609 17.9375 22.4609 16.7344C22.4609 14.875 21.7031 13.2891 20.1875 11.9766C18.6719 10.6641 16.4609 10.0078 13.5547 10.0078C11.9922 10.0078 10.5859 10.1797 9.33594 10.5234V22.7344ZM9.24219 38.2031C11.0547 38.625 12.8438 38.8359 14.6094 38.8359C17.4375 38.8359 19.5938 38.2031 21.0781 36.9375C22.5625 35.6562 23.3047 34.0781 23.3047 32.2031C23.3047 30.9688 22.9688 29.7812 22.2969 28.6406C21.625 27.5 20.5312 26.6016 19.0156 25.9453C17.5 25.2891 15.625 24.9609 13.3906 24.9609C12.4219 24.9609 11.5938 24.9766 10.9062 25.0078C10.2188 25.0391 9.66406 25.0938 9.24219 25.1719V38.2031ZM59.6984 43.0312H51.2141L40.4562 28.1719C39.6594 28.2031 39.0109 28.2188 38.5109 28.2188C38.3078 28.2188 38.0891 28.2188 37.8547 28.2188C37.6203 28.2031 37.3781 28.1875 37.1281 28.1719V37.4062C37.1281 39.4062 37.3469 40.6484 37.7844 41.1328C38.3781 41.8203 39.2687 42.1641 40.4562 42.1641H41.6984V43.0312H28.0812V42.1641H29.2766C30.6203 42.1641 31.5812 41.7266 32.1594 40.8516C32.4875 40.3672 32.6516 39.2188 32.6516 37.4062V16.875C32.6516 14.875 32.4328 13.6328 31.9953 13.1484C31.3859 12.4609 30.4797 12.1172 29.2766 12.1172H28.0812V11.25H39.6594C43.0344 11.25 45.5187 11.5 47.1125 12C48.7219 12.4844 50.0812 13.3906 51.1906 14.7188C52.3156 16.0312 52.8781 17.6016 52.8781 19.4297C52.8781 21.3828 52.2375 23.0781 50.9562 24.5156C49.6906 25.9531 47.7219 26.9688 45.05 27.5625L51.6125 36.6797C53.1125 38.7734 54.4016 40.1641 55.4797 40.8516C56.5578 41.5391 57.9641 41.9766 59.6984 42.1641V43.0312ZM36.6594 26.2266C36.9562 26.2266 37.2141 26.2344 37.4328 26.25C37.6516 26.25 37.8312 26.25 37.9719 26.25C41.0031 26.25 43.2844 25.5938 44.8156 24.2812C46.3625 22.9688 47.1359 21.2969 47.1359 19.2656C47.1359 17.2812 46.5109 15.6719 45.2609 14.4375C44.0266 13.1875 42.3859 12.5625 40.3391 12.5625C39.4328 12.5625 38.2062 12.7109 36.6594 13.0078V26.2266ZM80.975 23.9531H68.6703L66.5141 28.9688C65.9828 30.2031 65.7172 31.125 65.7172 31.7344C65.7172 32.2188 65.9437 32.6484 66.3969 33.0234C66.8656 33.3828 67.8656 33.6172 69.3969 33.7266V34.5938H59.3891V33.7266C60.7172 33.4922 61.5766 33.1875 61.9672 32.8125C62.7641 32.0625 63.6469 30.5391 64.6156 28.2422L75.7953 2.08594H76.6156L87.6781 28.5234C88.5687 30.6484 89.3734 32.0312 90.0922 32.6719C90.8266 33.2969 91.8422 33.6484 93.1391 33.7266V34.5938H80.6V33.7266C81.8656 33.6641 82.7172 33.4531 83.1547 33.0938C83.6078 32.7344 83.8344 32.2969 83.8344 31.7812C83.8344 31.0938 83.5219 30.0078 82.8969 28.5234L80.975 23.9531ZM80.7875 21.75L75.3969 8.90625L69.8656 21.75H80.7875ZM87.3688 9.1875H95.9938L115.423 33.0234V14.6953C115.423 12.7422 115.205 11.5234 114.767 11.0391C114.189 10.3828 113.275 10.0547 112.025 10.0547H110.923V9.1875H121.986V10.0547H120.861C119.517 10.0547 118.564 10.4609 118.002 11.2734C117.658 11.7734 117.486 12.9141 117.486 14.6953V41.4844H116.642L95.6891 15.8906V35.4609C95.6891 37.4141 95.9 38.6328 96.3219 39.1172C96.9156 39.7734 97.8297 40.1016 99.0641 40.1016H100.189V40.9688H89.1266V40.1016H90.2281C91.5875 40.1016 92.5484 39.6953 93.1109 38.8828C93.4547 38.3828 93.6266 37.2422 93.6266 35.4609V13.3594C92.7047 12.2812 92.0016 11.5703 91.5172 11.2266C91.0484 10.8828 90.3531 10.5625 89.4313 10.2656C88.9781 10.125 88.2906 10.0547 87.3688 10.0547V9.1875ZM118.091 34.5V33.6328H119.286C120.63 33.6328 121.583 33.2031 122.145 32.3438C122.489 31.8281 122.661 30.6719 122.661 28.875V8.34375C122.661 6.35937 122.442 5.11719 122.005 4.61719C121.395 3.92969 120.489 3.58594 119.286 3.58594H118.091V2.71875H131.028C135.778 2.71875 139.387 3.25781 141.856 4.33594C144.341 5.41406 146.333 7.21094 147.833 9.72656C149.348 12.2422 150.106 15.1484 150.106 18.4453C150.106 22.8672 148.762 26.5625 146.075 29.5312C143.059 32.8438 138.466 34.5 132.294 34.5H118.091ZM127.723 31.9219C129.708 32.3594 131.372 32.5781 132.716 32.5781C136.341 32.5781 139.348 31.3047 141.739 28.7578C144.13 26.2109 145.325 22.7578 145.325 18.3984C145.325 14.0078 144.13 10.5469 141.739 8.01562C139.348 5.48438 136.278 4.21875 132.528 4.21875C131.122 4.21875 129.52 4.44531 127.723 4.89844V31.9219ZM181.995 39.3516V40.2188H168.378V39.3516H169.503C170.816 39.3516 171.769 38.9688 172.363 38.2031C172.738 37.7031 172.925 36.5 172.925 34.5938V14.0625C172.925 12.4531 172.823 11.3906 172.62 10.875C172.464 10.4844 172.144 10.1484 171.659 9.86719C170.972 9.49219 170.253 9.30469 169.503 9.30469H168.378V8.4375H181.995V9.30469H180.847C179.55 9.30469 178.605 9.6875 178.011 10.4531C177.62 10.9531 177.425 12.1562 177.425 14.0625V34.5938C177.425 36.2031 177.527 37.2656 177.73 37.7812C177.886 38.1719 178.214 38.5078 178.714 38.7891C179.386 39.1641 180.097 39.3516 180.847 39.3516H181.995ZM183.538 34.5V33.6328H184.733C186.077 33.6328 187.03 33.2031 187.592 32.3438C187.936 31.8281 188.108 30.6719 188.108 28.875V8.34375C188.108 6.35937 187.889 5.11719 187.452 4.61719C186.842 3.92969 185.936 3.58594 184.733 3.58594H183.538V2.71875H196.475C201.225 2.71875 204.834 3.25781 207.303 4.33594C209.788 5.41406 211.78 7.21094 213.28 9.72656C214.795 12.2422 215.553 15.1484 215.553 18.4453C215.553 22.8672 214.209 26.5625 211.522 29.5312C208.506 32.8438 203.913 34.5 197.741 34.5H183.538ZM193.17 31.9219C195.155 32.3594 196.819 32.5781 198.163 32.5781C201.788 32.5781 204.795 31.3047 207.186 28.7578C209.577 26.2109 210.772 22.7578 210.772 18.3984C210.772 14.0078 209.577 10.5469 207.186 8.01562C204.795 5.48438 201.725 4.21875 197.975 4.21875C196.569 4.21875 194.967 4.44531 193.17 4.89844V31.9219ZM227.173 10.4531V23.0156H234.158C235.97 23.0156 237.181 22.7422 237.791 22.1953C238.603 21.4766 239.056 20.2109 239.15 18.3984H240.017V29.4609H239.15C238.931 27.9141 238.712 26.9219 238.494 26.4844C238.212 25.9375 237.752 25.5078 237.111 25.1953C236.47 24.8828 235.486 24.7266 234.158 24.7266H227.173V35.2031C227.173 36.6094 227.236 37.4688 227.361 37.7812C227.486 38.0781 227.705 38.3203 228.017 38.5078C228.33 38.6797 228.923 38.7656 229.798 38.7656H235.189C236.986 38.7656 238.291 38.6406 239.103 38.3906C239.916 38.1406 240.697 37.6484 241.447 36.9141C242.416 35.9453 243.408 34.4844 244.423 32.5312H245.361L242.619 40.5H218.127V39.6328H219.252C220.002 39.6328 220.712 39.4531 221.384 39.0938C221.884 38.8438 222.22 38.4688 222.392 37.9688C222.58 37.4688 222.673 36.4453 222.673 34.8984V14.25C222.673 12.2344 222.47 10.9922 222.064 10.5234C221.502 9.89844 220.564 9.58594 219.252 9.58594H218.127V8.71875H242.619L242.97 15.6797H242.056C241.728 14.0078 241.361 12.8594 240.955 12.2344C240.564 11.6094 239.978 11.1328 239.197 10.8047C238.572 10.5703 237.47 10.4531 235.892 10.4531H227.173ZM241.091 9.1875H249.716L269.145 33.0234V14.6953C269.145 12.7422 268.927 11.5234 268.489 11.0391C267.911 10.3828 266.997 10.0547 265.747 10.0547H264.645V9.1875H275.708V10.0547H274.583C273.239 10.0547 272.286 10.4609 271.723 11.2734C271.38 11.7734 271.208 12.9141 271.208 14.6953V41.4844H270.364L249.411 15.8906V35.4609C249.411 37.4141 249.622 38.6328 250.044 39.1172C250.637 39.7734 251.552 40.1016 252.786 40.1016H253.911V40.9688H242.848V40.1016H243.95C245.309 40.1016 246.27 39.6953 246.833 38.8828C247.177 38.3828 247.348 37.2422 247.348 35.4609V13.3594C246.427 12.2812 245.723 11.5703 245.239 11.2266C244.77 10.8828 244.075 10.5625 243.153 10.2656C242.7 10.125 242.012 10.0547 241.091 10.0547V9.1875ZM297.547 4.5L297.898 11.9531H297.008C296.836 10.6406 296.602 9.70312 296.305 9.14062C295.82 8.23437 295.172 7.57031 294.359 7.14844C293.562 6.71094 292.508 6.49219 291.195 6.49219H286.719V30.7734C286.719 32.7266 286.93 33.9453 287.352 34.4297C287.945 35.0859 288.859 35.4141 290.094 35.4141H291.195V36.2812H277.719V35.4141H278.844C280.188 35.4141 281.141 35.0078 281.703 34.1953C282.047 33.6953 282.219 32.5547 282.219 30.7734V6.49219H278.398C276.914 6.49219 275.859 6.60156 275.234 6.82031C274.422 7.11719 273.727 7.6875 273.148 8.53125C272.57 9.375 272.227 10.5156 272.117 11.9531H271.227L271.602 4.5H297.547ZM308.23 39.3516V40.2188H294.612V39.3516H295.737C297.05 39.3516 298.003 38.9688 298.597 38.2031C298.972 37.7031 299.159 36.5 299.159 34.5938V14.0625C299.159 12.4531 299.058 11.3906 298.855 10.875C298.698 10.4844 298.378 10.1484 297.894 9.86719C297.206 9.49219 296.487 9.30469 295.737 9.30469H294.612V8.4375H308.23V9.30469H307.081C305.784 9.30469 304.839 9.6875 304.245 10.4531C303.855 10.9531 303.659 12.1562 303.659 14.0625V34.5938C303.659 36.2031 303.761 37.2656 303.964 37.7812C304.12 38.1719 304.448 38.5078 304.948 38.7891C305.62 39.1641 306.331 39.3516 307.081 39.3516H308.23ZM335.506 4.5L335.858 11.9531H334.967C334.795 10.6406 334.561 9.70312 334.264 9.14062C333.78 8.23437 333.131 7.57031 332.319 7.14844C331.522 6.71094 330.467 6.49219 329.155 6.49219H324.678V30.7734C324.678 32.7266 324.889 33.9453 325.311 34.4297C325.905 35.0859 326.819 35.4141 328.053 35.4141H329.155V36.2812H315.678V35.4141H316.803C318.147 35.4141 319.1 35.0078 319.663 34.1953C320.006 33.6953 320.178 32.5547 320.178 30.7734V6.49219H316.358C314.873 6.49219 313.819 6.60156 313.194 6.82031C312.381 7.11719 311.686 7.6875 311.108 8.53125C310.53 9.375 310.186 10.5156 310.077 11.9531H309.186L309.561 4.5H335.506ZM349.47 3.9375H360.556V4.80469H359.947C359.541 4.80469 358.947 4.98438 358.166 5.34375C357.384 5.70312 356.673 6.21875 356.033 6.89062C355.392 7.5625 354.603 8.65625 353.666 10.1719L346.002 22.2422V30.2109C346.002 32.1641 346.22 33.3828 346.658 33.8672C347.252 34.5234 348.189 34.8516 349.47 34.8516H350.502V35.7188H337.002V34.8516H338.127C339.47 34.8516 340.423 34.4453 340.986 33.6328C341.33 33.1328 341.502 31.9922 341.502 30.2109V22.6875L332.783 9.375C331.752 7.8125 331.056 6.83594 330.697 6.44531C330.322 6.05469 329.556 5.58594 328.4 5.03906C328.087 4.88281 327.634 4.80469 327.041 4.80469V3.9375H340.634V4.80469H339.931C339.197 4.80469 338.517 4.97656 337.892 5.32031C337.283 5.66406 336.978 6.17969 336.978 6.86719C336.978 7.42969 337.455 8.44531 338.408 9.91406L345.041 20.1562L351.275 10.3594C352.212 8.89062 352.681 7.79688 352.681 7.07812C352.681 6.64062 352.564 6.25 352.33 5.90625C352.111 5.5625 351.791 5.29688 351.369 5.10938C350.947 4.90625 350.314 4.80469 349.47 4.80469V3.9375ZM390.922 40.0547C389.875 41.1484 388.852 41.9297 387.852 42.3984C386.852 42.8828 385.773 43.125 384.617 43.125C382.273 43.125 380.227 42.1406 378.477 40.1719C376.727 38.2188 375.852 35.7031 375.852 32.625C375.852 29.5469 376.82 26.7344 378.758 24.1875C380.695 21.625 383.188 20.3438 386.234 20.3438C388.125 20.3438 389.688 20.9453 390.922 22.1484V18.1875C390.922 15.7344 390.859 14.2266 390.734 13.6641C390.625 13.1016 390.445 12.7188 390.195 12.5156C389.945 12.3125 389.633 12.2109 389.258 12.2109C388.852 12.2109 388.312 12.3359 387.641 12.5859L387.336 11.7656L393.734 9.14062H394.789V33.9609C394.789 36.4766 394.844 38.0156 394.953 38.5781C395.078 39.125 395.266 39.5078 395.516 39.7266C395.781 39.9453 396.086 40.0547 396.43 40.0547C396.852 40.0547 397.414 39.9219 398.117 39.6562L398.375 40.4766L392 43.125H390.922V40.0547ZM390.922 38.9766V27.9141C390.828 26.8516 390.547 25.8828 390.078 25.0078C389.609 24.1328 388.984 23.4766 388.203 23.0391C387.438 22.5859 386.688 22.3594 385.953 22.3594C384.578 22.3594 383.352 22.9766 382.273 24.2109C380.852 25.8359 380.141 28.2109 380.141 31.3359C380.141 34.4922 380.828 36.9141 382.203 38.6016C383.578 40.2734 385.109 41.1094 386.797 41.1094C388.219 41.1094 389.594 40.3984 390.922 38.9766ZM400.948 22.5234C400.933 25.7109 401.706 28.2109 403.269 30.0234C404.831 31.8359 406.667 32.7422 408.777 32.7422C410.183 32.7422 411.402 32.3594 412.433 31.5938C413.48 30.8125 414.355 29.4844 415.058 27.6094L415.784 28.0781C415.456 30.2188 414.503 32.1719 412.925 33.9375C411.347 35.6875 409.37 36.5625 406.995 36.5625C404.417 36.5625 402.206 35.5625 400.362 33.5625C398.534 31.5469 397.62 28.8438 397.62 25.4531C397.62 21.7812 398.558 18.9219 400.433 16.875C402.323 14.8125 404.691 13.7812 407.534 13.7812C409.941 13.7812 411.917 14.5781 413.464 16.1719C415.011 17.75 415.784 19.8672 415.784 22.5234H400.948ZM400.902 21.1875H414.027C413.527 20 412.995 18.8125 412.433 17.625C411.37 16.8125 410.448 16.2969 409.667 16.0781C408.902 15.8438 408.097 15.7266 407.253 15.7266C405.956 15.7266 404.792 16.2344 403.761 17.25C402.745 18.25 401.792 19.5625 400.902 21.1875ZM430.592 13.8047V21.1172H429.819C429.225 18.8203 428.459 17.2578 427.522 16.4297C426.6 15.6016 425.42 15.1875 423.983 15.1875C422.889 15.1875 422.006 15.4766 421.334 16.0547C420.663 16.6328 420.327 17.2734 420.327 17.9766C420.327 18.8516 420.577 19.6016 421.077 20.2266C421.561 20.8672 422.545 21.5469 424.03 22.2656L427.452 23.9297C430.623 25.4766 432.209 27.5156 432.209 30.0469C432.209 32 431.467 33.5781 429.983 34.7812C428.514 35.9688 426.866 36.5625 425.038 36.5625C423.725 36.5625 422.225 36.3281 420.538 35.8594C420.022 35.7031 419.6 35.625 419.272 35.625C418.913 35.625 418.631 35.8281 418.428 36.2344H417.655V28.5703H418.428C418.866 30.7578 419.702 32.4062 420.936 33.5156C422.17 34.625 423.553 35.1797 425.084 35.1797C426.163 35.1797 427.038 34.8672 427.709 34.2422C428.397 33.6016 428.741 32.8359 428.741 31.9453C428.741 30.8672 428.358 29.9609 427.592 29.2266C426.842 28.4922 425.334 27.5625 423.069 26.4375C420.803 25.3125 419.319 24.2969 418.616 23.3906C417.913 22.5 417.561 21.375 417.561 20.0156C417.561 18.25 418.17 16.7734 419.389 15.5859C420.592 14.3984 422.155 13.8047 424.077 13.8047C424.92 13.8047 425.944 13.9844 427.147 14.3438C427.944 14.5781 428.475 14.6953 428.741 14.6953C428.991 14.6953 429.186 14.6406 429.327 14.5312C429.467 14.4219 429.631 14.1797 429.819 13.8047H430.592ZM440.22 0.1875C441.142 3.65625 441.83 5.625 442.283 6.09375C442.752 6.54687 445.127 7.04688 449.408 7.59375C445.127 8.35938 442.752 8.97656 442.283 9.44531C441.83 9.91406 441.267 11.8281 440.595 15.1875C439.955 11.8281 439.4 9.91406 438.931 9.44531C438.462 8.97656 436.236 8.29688 432.252 7.40625C436.236 6.98438 438.455 6.54687 438.908 6.09375C439.377 5.625 439.814 3.65625 440.22 0.1875ZM442.095 18.8672V36.1172C442.095 37.4609 442.189 38.3594 442.377 38.8125C442.58 39.25 442.869 39.5781 443.244 39.7969C443.634 40.0156 444.337 40.125 445.353 40.125V40.9688H434.923V40.125C435.97 40.125 436.673 40.0234 437.033 39.8203C437.392 39.6172 437.673 39.2812 437.877 38.8125C438.095 38.3438 438.205 37.4453 438.205 36.1172V27.8438C438.205 25.5156 438.134 24.0078 437.994 23.3203C437.884 22.8203 437.712 22.4766 437.478 22.2891C437.244 22.0859 436.923 21.9844 436.517 21.9844C436.08 21.9844 435.548 22.1016 434.923 22.3359L434.595 21.4922L441.064 18.8672H442.095ZM451.372 31.0781C450.059 30.4375 449.052 29.5469 448.348 28.4062C447.645 27.25 447.294 25.9766 447.294 24.5859C447.294 22.4609 448.098 20.6328 449.708 19.1016C451.302 17.5703 453.348 16.8047 455.848 16.8047C457.895 16.8047 459.669 17.3047 461.169 18.3047H465.716C466.388 18.3047 466.778 18.3281 466.888 18.375C466.997 18.4062 467.075 18.4688 467.122 18.5625C467.216 18.7031 467.263 18.9531 467.263 19.3125C467.263 19.7188 467.223 20 467.145 20.1562C467.098 20.2344 467.013 20.2969 466.888 20.3438C466.778 20.3906 466.388 20.4141 465.716 20.4141H462.927C463.802 21.5391 464.239 22.9766 464.239 24.7266C464.239 26.7266 463.473 28.4375 461.942 29.8594C460.411 31.2812 458.356 31.9922 455.778 31.9922C454.716 31.9922 453.63 31.8359 452.52 31.5234C451.833 32.1172 451.364 32.6406 451.114 33.0938C450.88 33.5312 450.763 33.9062 450.763 34.2188C450.763 34.4844 450.888 34.7422 451.138 34.9922C451.403 35.2422 451.911 35.4219 452.661 35.5312C453.098 35.5938 454.192 35.6484 455.942 35.6953C459.161 35.7734 461.247 35.8828 462.2 36.0234C463.653 36.2266 464.809 36.7656 465.669 37.6406C466.544 38.5156 466.981 39.5938 466.981 40.875C466.981 42.6406 466.153 44.2969 464.497 45.8438C462.059 48.125 458.88 49.2656 454.958 49.2656C451.942 49.2656 449.395 48.5859 447.317 47.2266C446.145 46.4453 445.559 45.6328 445.559 44.7891C445.559 44.4141 445.645 44.0391 445.817 43.6641C446.083 43.0859 446.63 42.2812 447.458 41.25C447.567 41.1094 448.364 40.2656 449.848 38.7188C449.036 38.2344 448.466 37.8047 448.138 37.4297C447.794 37.0391 447.622 36.6016 447.622 36.1172C447.622 35.5703 447.848 34.9297 448.302 34.1953C448.739 33.4609 449.763 32.4219 451.372 31.0781ZM455.544 17.6484C454.388 17.6484 453.419 18.1094 452.638 19.0312C451.856 19.9531 451.466 21.3672 451.466 23.2734C451.466 25.7422 451.997 27.6562 453.059 29.0156C453.872 30.0469 454.903 30.5625 456.153 30.5625C457.341 30.5625 458.317 30.1172 459.083 29.2266C459.848 28.3359 460.231 26.9375 460.231 25.0312C460.231 22.5469 459.692 20.6016 458.614 19.1953C457.817 18.1641 456.794 17.6484 455.544 17.6484ZM451.044 38.5312C450.309 39.3281 449.755 40.0703 449.38 40.7578C449.005 41.4453 448.817 42.0781 448.817 42.6562C448.817 43.4062 449.27 44.0625 450.177 44.625C451.739 45.5938 453.997 46.0781 456.95 46.0781C459.763 46.0781 461.833 45.5781 463.161 44.5781C464.505 43.5938 465.177 42.5391 465.177 41.4141C465.177 40.6016 464.778 40.0234 463.981 39.6797C463.169 39.3359 461.559 39.1328 459.153 39.0703C455.638 38.9766 452.934 38.7969 451.044 38.5312ZM472.719 17.8828C475.234 14.8516 477.633 13.3359 479.914 13.3359C481.086 13.3359 482.094 13.6328 482.938 14.2266C483.781 14.8047 484.453 15.7656 484.953 17.1094C485.297 18.0469 485.469 19.4844 485.469 21.4219V30.5859C485.469 31.9453 485.578 32.8672 485.797 33.3516C485.969 33.7422 486.242 34.0469 486.617 34.2656C487.008 34.4844 487.719 34.5938 488.75 34.5938V35.4375H478.133V34.5938H478.578C479.578 34.5938 480.273 34.4453 480.664 34.1484C481.07 33.8359 481.352 33.3828 481.508 32.7891C481.57 32.5547 481.602 31.8203 481.602 30.5859V21.7969C481.602 19.8438 481.344 18.4297 480.828 17.5547C480.328 16.6641 479.477 16.2188 478.273 16.2188C476.414 16.2188 474.562 17.2344 472.719 19.2656V30.5859C472.719 32.0391 472.805 32.9375 472.977 33.2812C473.195 33.7344 473.492 34.0703 473.867 34.2891C474.258 34.4922 475.039 34.5938 476.211 34.5938V35.4375H465.594V34.5938H466.062C467.156 34.5938 467.898 34.3203 468.289 33.7734C468.664 33.2109 468.852 32.1484 468.852 30.5859V22.6172C468.852 20.0391 468.797 18.4688 468.688 17.9062C468.562 17.3438 468.383 16.9609 468.148 16.7578C467.898 16.5547 467.57 16.4531 467.164 16.4531C466.727 16.4531 466.203 16.5703 465.594 16.8047L465.242 15.9609L471.711 13.3359H472.719V17.8828Z" fill="white"/>
</svg>
