<svg width="50" height="42" viewBox="0 0 50 42" fill="none" xmlns="http://www.w3.org/2000/svg">
<path d="M44.2797 36.6885C44.4498 36.1017 44.5431 35.4985 44.5979 34.89C44.7077 33.5967 44.373 32.4122 43.8188 31.2657C43.6049 30.8255 43.3909 30.38 43.1824 29.9398C43.0781 29.7279 43.0562 29.5214 43.1659 29.2932C43.3854 28.8368 43.6049 28.3804 43.7969 27.9131C44.0712 27.2556 44.1425 26.5546 44.0877 25.8537C43.967 24.2833 43.3964 22.876 42.4362 21.6208C42.1454 21.2405 41.8492 20.8601 41.5309 20.5015C41.5309 20.496 41.5309 20.4852 41.5255 20.4634C42.0138 20.4037 42.5021 20.3222 42.9684 20.1646C43.8079 19.882 44.5595 19.4528 45.2398 18.8876C45.8982 18.3443 46.4414 17.7085 46.82 16.9478C46.9846 16.6109 47.1217 16.2577 47.2534 15.91C47.4509 15.3938 47.7691 14.9536 48.0709 14.4972C48.5098 13.8343 48.861 13.1279 49.0256 12.3454C49.1518 11.7423 49.1902 11.1337 49.1353 10.5143C49.0859 9.9709 48.9817 9.43839 48.7677 8.93305C48.6415 8.6342 48.4714 8.36795 48.2629 8.12343C48.1038 7.94412 48.0983 7.7811 48.2081 7.59092C48.3836 7.2812 48.5482 6.9606 48.7238 6.65088C49.0695 6.03687 49.4425 5.43917 49.6949 4.77625C49.8485 4.37959 49.9363 3.96662 49.9747 3.54279C50.0186 3.01571 50.0186 2.48866 49.865 1.97789C49.6949 1.40734 49.3383 0.956338 48.839 0.630315C48.4934 0.402098 48.1477 0.163008 47.7198 0.0978031C47.5497 0.0706345 47.3796 0.027162 47.1986 0.027162C47.1601 0.027162 47.1217 0.0271686 47.0888 0C46.9023 0 46.7157 0 46.5292 0C46.3426 0.0543373 46.1451 0.054334 45.9531 0.0815026C45.3057 0.190177 44.6802 0.374931 44.0602 0.581413C42.6228 1.05958 41.3389 1.82574 40.1099 2.6897C39.3528 3.22221 38.6395 3.80904 37.9318 4.39588C37.3337 4.89035 36.7412 5.39026 36.1706 5.9119C35.3586 6.65089 34.5795 7.42791 33.8388 8.23753C33.334 8.78634 32.8457 9.35145 32.3739 9.92199C31.71 10.7208 31.0736 11.5412 30.492 12.3998C29.5648 13.7691 28.7637 15.2036 28.1383 16.7305C27.9846 17.0999 27.7377 17.4314 27.5457 17.79C27.0903 18.6268 26.6569 19.4745 26.3497 20.3819C26.3112 20.5015 26.2344 20.6047 26.1467 20.7188C26.1028 20.5449 26.1302 20.3982 26.1686 20.2515C26.3167 19.7136 26.4594 19.1702 26.5746 18.6214C26.7173 17.9585 26.6404 17.3336 26.3167 16.7359C26.1631 16.4479 25.9272 16.2306 25.6364 16.1382C25.2359 16.0132 24.8024 15.9806 24.4074 16.2142C24.0563 16.4207 23.8478 16.7359 23.7161 17.1054C23.5351 17.6107 23.5351 18.116 23.6448 18.6377C23.771 19.23 23.9575 19.8059 24.1002 20.3873C24.1276 20.4906 24.1166 20.5938 24.1166 20.7351C24.0124 20.6319 23.952 20.5449 23.9081 20.4363C23.4527 19.2191 22.8328 18.0834 22.1524 16.975C21.944 16.6326 21.8123 16.2523 21.6477 15.8882C21.1594 14.8341 20.5558 13.8451 19.9139 12.8779C19.5024 12.2585 19.058 11.6554 18.5917 11.0739C18.1857 10.5632 17.7632 10.0687 17.3407 9.57423C16.5562 8.66136 15.7332 7.7974 14.8663 6.96604C14.3122 6.43354 13.7471 5.92276 13.1545 5.43373C12.0627 4.5263 10.9708 3.61886 9.79672 2.81467C8.19465 1.71705 6.47737 0.858533 4.56256 0.44557C4.2224 0.369498 3.87673 0.298848 3.5256 0.298848C3.49268 0.298848 3.46525 0.298855 3.4433 0.271686C3.25676 0.271686 3.07022 0.271686 2.88368 0.271686C2.70262 0.304289 2.52155 0.326031 2.3405 0.364067C2.00033 0.434706 1.6876 0.548803 1.39681 0.760719C1.14992 0.940032 0.881087 1.09218 0.672598 1.32039C0.304999 1.72249 0.101995 2.20066 0.0361563 2.73316C-0.122954 4.02096 0.255616 5.17292 0.924975 6.25423C1.24868 6.77586 1.55044 7.30837 1.84671 7.84631C1.96193 8.05822 1.96742 8.22123 1.80283 8.41684C1.35293 8.96565 1.13346 9.60683 1.02373 10.3023C0.935944 10.8729 0.924967 11.4434 0.985319 12.014C1.08956 12.9595 1.44619 13.8125 1.96742 14.6113C2.26369 15.0623 2.60386 15.4861 2.82881 15.986C3.00987 16.3936 3.15801 16.8174 3.3665 17.214C3.92613 18.3008 4.78202 19.1104 5.82995 19.7353C6.44445 20.0994 7.09734 20.3819 7.79962 20.5286C8.0959 20.5884 8.39218 20.6264 8.71588 20.6645C8.58969 20.822 8.4635 20.9688 8.34828 21.1155C7.39911 22.2783 6.64196 23.5389 6.34569 25.0278C6.24145 25.5548 6.1756 26.0873 6.20303 26.6253C6.24144 27.2991 6.38958 27.9457 6.70231 28.5542C6.86142 28.8694 7.00408 29.19 7.16867 29.4997C7.29486 29.7388 7.26195 29.9561 7.15221 30.1844C6.90532 30.706 6.66391 31.2331 6.42799 31.7602C6.14817 32.3796 5.93419 33.0208 5.84092 33.6946C5.76411 34.276 5.7696 34.8574 5.84092 35.4442C5.96162 36.4712 6.26338 37.4438 6.72974 38.3621C7.12477 39.1337 7.68989 39.7803 8.35925 40.3454C9.30842 41.1442 10.4167 41.6006 11.6183 41.8723C12.2218 42.0082 12.8418 42.019 13.4563 41.981C14.5481 41.9104 15.4973 41.4919 16.3422 40.7964C17.2804 40.0248 17.9882 39.0685 18.6411 38.0687C19.4805 36.7809 20.1553 35.4062 20.7808 34.0043C21.2033 33.0642 21.6696 32.1405 22.1305 31.2113C22.5859 30.293 23.0083 29.3584 23.3705 28.3967C23.3869 28.3478 23.4144 28.3043 23.4418 28.2391C23.4802 28.6629 23.5021 29.065 23.5515 29.4617C23.6173 29.9453 23.6832 30.4343 23.7545 30.9179C23.8368 31.4559 23.963 31.9829 24.1825 32.4828C24.3196 32.7871 24.4678 33.086 24.6927 33.3414C24.978 33.662 25.406 33.662 25.6858 33.3359C26.015 32.9501 26.2015 32.4883 26.3606 32.0155C26.5252 31.5265 26.5911 31.0157 26.6514 30.505C26.7008 30.0594 26.7666 29.6193 26.816 29.1737C26.8489 28.8694 26.8599 28.5597 26.8818 28.2119C26.9916 28.4782 27.0903 28.7064 27.1891 28.94C27.6555 30.0268 28.1767 31.0864 28.7253 32.1351C29.2849 33.2001 29.7623 34.2977 30.3055 35.3681C30.9474 36.6396 31.6716 37.8677 32.5385 39.0033C33.2298 39.9053 34.0144 40.7041 35.0184 41.2692C35.5232 41.5517 36.0663 41.7093 36.6424 41.7908C37.1143 41.856 37.5806 41.856 38.047 41.8288C38.8645 41.7745 39.6436 41.5354 40.3952 41.2094C41.306 40.8127 42.0961 40.2531 42.7599 39.5195C43.5061 38.699 43.9779 37.7427 44.2797 36.6885ZM4.93564 9.60683C4.78202 9.14496 4.7052 8.6668 4.72166 8.18319C4.75458 7.11818 5.39103 6.24335 6.42799 6.00426C6.62001 5.96079 6.82302 5.93907 7.00956 5.93364C7.65697 5.95537 8.26598 6.10208 8.84207 6.35747C9.64859 6.71066 10.3673 7.1997 11.0586 7.7322C12.1505 8.57443 13.1106 9.5525 14.0488 10.5523C14.5042 11.0359 14.9596 11.5195 15.404 12.014C16.0843 12.7693 16.7537 13.5354 17.3956 14.3179C18.5094 15.6709 19.5189 17.0999 20.49 18.5616C20.49 18.5616 20.4955 18.567 20.4955 18.5725C20.5394 18.6486 20.6107 18.7409 20.5504 18.8116C20.5065 18.8659 20.4132 18.7898 20.3529 18.7627C19.069 18.2193 17.7742 17.7194 16.4684 17.2249C15.382 16.8174 14.3231 16.3555 13.2807 15.8502C12.2766 15.3666 11.2562 14.921 10.2576 14.4211C9.20967 13.894 8.18916 13.3181 7.24548 12.6226C6.18657 11.8401 5.3636 10.8783 4.94113 9.61771L4.93564 9.60683ZM10.7843 18.5508C9.82416 18.4584 8.86402 18.3714 7.94228 18.0671C7.47592 17.915 7.02602 17.7139 6.63099 17.4151C6.22498 17.1108 5.92872 16.725 5.8519 16.2197C5.75315 15.5948 6.10976 15.1601 6.68036 15.008C7.09734 14.8993 7.52529 14.9319 7.94775 14.9808C8.90241 15.1003 9.75832 15.5133 10.6307 15.8719C11.2616 16.1327 11.8761 16.4207 12.4632 16.7685C13.2203 17.2195 13.983 17.6488 14.7621 18.0508C14.8718 18.1052 14.987 18.1595 15.0364 18.2899C15.0693 18.366 15.0748 18.4149 14.9596 18.4258C14.3835 18.4747 13.8129 18.5453 13.2368 18.5888C12.935 18.6105 12.6333 18.5942 12.3315 18.5997C11.8158 18.616 11.3001 18.6051 10.7898 18.5562L10.7843 18.5508ZM11.0312 27.1523C10.7953 27.2175 10.5594 27.2773 10.3179 27.3045C9.94486 27.3425 9.484 27.1958 9.24259 26.7937C9.01215 26.4025 9.05604 26.0113 9.14931 25.6092C9.29196 25.0006 9.61019 24.4844 9.99974 24.0008C10.4057 23.5009 10.8447 23.039 11.333 22.6152C12.4467 21.6425 13.6483 20.8166 15.1077 20.4199C15.585 20.2895 16.0733 20.2026 16.5671 20.1537C16.8305 20.1265 17.0938 20.1048 17.3627 20.0939C18.2789 20.0722 19.1732 20.1809 20.0292 20.5449C20.276 20.6482 20.5339 20.7297 20.8192 20.8275C20.2047 21.0014 19.6506 21.2242 19.1293 21.5393C18.6191 21.849 18.1473 22.1968 17.7028 22.588C16.9238 23.2727 16.1117 23.9084 15.2833 24.5279C14.6194 25.0278 13.9665 25.5385 13.2917 26.0221C12.6004 26.5112 11.8652 26.9241 11.0367 27.1523H11.0312ZM15.1681 30.7658C14.7236 31.4396 14.164 32.021 13.6099 32.6078C13.1655 33.0751 12.6827 33.4989 12.145 33.8521C11.7499 34.1129 11.311 34.2923 10.8282 34.3086C10.0546 34.3303 9.6431 33.7706 9.64859 33.1349C9.64859 32.8306 9.75283 32.5589 9.90097 32.3035C10.2137 31.7602 10.521 31.2059 10.9105 30.7114C11.4646 30.005 12.0791 29.3639 12.7375 28.7553C13.0996 28.4184 13.4727 28.0924 13.8513 27.7718C14.378 27.3317 14.9157 26.9078 15.4698 26.5057C16.622 25.6798 17.7632 24.8376 18.9538 24.0714C19.486 23.7291 20.0291 23.4085 20.5668 23.077C20.5778 23.0825 20.5833 23.0934 20.5943 23.0988C20.4626 23.2781 20.3309 23.4574 20.1992 23.6367C19.5518 24.4952 18.9702 25.3972 18.3667 26.2829C17.5986 27.4023 16.7811 28.4836 15.9801 29.5812C15.6948 29.967 15.4314 30.3691 15.1626 30.7712L15.1681 30.7658ZM18.7782 31.2439C18.4874 31.8634 18.2076 32.4937 17.8949 33.1023C17.4834 33.9065 16.9786 34.6509 16.3477 35.2975C16.1008 35.5529 15.8319 35.7974 15.4808 35.9115C15.009 36.0637 14.6139 35.8517 14.4932 35.3736C14.4164 35.0747 14.4713 34.7813 14.5261 34.4879C14.7182 33.5315 15.1406 32.6676 15.6783 31.8634C16.3641 30.831 17.1158 29.8475 17.8784 28.8748C18.3887 28.2282 18.9209 27.6088 19.4695 26.9948C19.8152 26.609 20.1718 26.234 20.5229 25.8537C20.5449 25.8265 20.5723 25.8048 20.6272 25.7559C20.5449 26.2177 20.4297 26.6307 20.309 27.0491C20.0511 27.9294 19.7932 28.8096 19.4695 29.6627C19.2665 30.2007 19.0141 30.7223 18.7727 31.2439H18.7782ZM44.3017 15.4209C44.4388 15.7959 44.3455 16.1599 44.159 16.5022C43.934 16.9206 43.5719 17.2086 43.1605 17.4368C42.4966 17.8063 41.7778 18.0128 41.0317 18.1378C40.5982 18.2139 40.1593 18.2736 39.7259 18.3225C39.1553 18.3877 38.5847 18.4258 38.0141 18.4258C37.9537 18.4258 37.8988 18.4258 37.8385 18.4258C37.2624 18.4258 36.6863 18.4095 36.1102 18.3551C35.8085 18.328 35.5067 18.3008 35.205 18.2791C35.1007 18.2736 35.0952 18.2356 35.1226 18.1541C35.1611 18.0345 35.2653 17.9748 35.3695 17.9204C35.7481 17.7085 36.1322 17.5075 36.5053 17.2901C37.0539 16.975 37.5861 16.6326 38.1457 16.3338C39.1498 15.7904 40.2032 15.3394 41.2786 14.9536C41.904 14.7308 42.5569 14.6385 43.2263 14.6928C43.7091 14.7308 44.1261 14.9265 44.3017 15.4155V15.4209ZM29.6361 18.5018C29.8994 18.0997 30.1628 17.7031 30.4262 17.301C31.0516 16.3555 31.721 15.4372 32.4178 14.5407C32.8786 13.9484 33.356 13.367 33.8443 12.8019C34.4698 12.0792 35.1007 11.3619 35.7426 10.6556C36.4449 9.87853 37.1637 9.11779 37.9263 8.40054C38.8041 7.58005 39.7423 6.83019 40.8122 6.25965C41.3773 5.95536 41.9754 5.74345 42.6118 5.65651C43.2812 5.56414 43.9231 5.65652 44.4827 6.06948C44.9381 6.40637 45.2069 6.86823 45.3221 7.41704C45.3605 7.61265 45.388 7.80827 45.3825 7.94411C45.3715 8.96565 45.0533 9.82961 44.5376 10.6284C43.9889 11.476 43.2373 12.1172 42.4198 12.6878C41.3499 13.4322 40.2032 14.0516 39.0236 14.6167C38.1238 15.0514 37.224 15.4916 36.3242 15.9263C34.9361 16.5946 33.5041 17.1543 32.0721 17.714C31.2985 18.0182 30.5414 18.3606 29.7733 18.6866C29.7129 18.7138 29.6306 18.7844 29.5867 18.7301C29.5318 18.6594 29.5867 18.5671 29.6361 18.4964V18.5018ZM26.0259 30.1844C25.9821 30.3528 25.9217 30.5158 25.8229 30.6625C25.6803 30.8744 25.4992 30.956 25.2468 30.9071C25.1975 30.8962 25.1536 30.8962 25.1042 30.9071C24.8628 30.956 24.6763 30.8799 24.5336 30.6788C24.3525 30.418 24.2812 30.1137 24.2264 29.8094C24.1002 29.0976 24.0727 28.3749 24.0563 27.6523C24.0453 27.185 24.0453 26.7176 24.0618 26.2558C24.0892 25.6472 24.1002 25.0332 24.155 24.4246C24.2264 23.6422 24.3141 22.8706 24.4952 22.1044C24.5062 22.0609 24.5117 22.0175 24.5281 21.9794C24.5994 21.8164 24.6159 21.6588 24.5885 21.4687C24.4787 20.6319 24.4678 19.7842 24.4787 18.9365C24.4787 18.6594 24.5117 18.3877 24.5885 18.1215C24.6653 17.8552 24.8189 17.7248 25.0439 17.7248C25.3621 17.7248 25.4992 17.8172 25.5925 18.1215C25.6748 18.3823 25.6968 18.654 25.7132 18.9202C25.7242 19.1376 25.7132 19.3604 25.7187 19.6375C25.7406 20.208 25.7187 20.8438 25.6309 21.4632C25.587 21.7675 25.7352 22.0012 25.7845 22.2674C25.8833 22.7836 25.9766 23.2998 26.0424 23.8269C26.1357 24.5659 26.1631 25.3049 26.207 26.0439C26.2564 26.8209 26.2564 27.5979 26.2344 28.3749C26.218 28.9835 26.1741 29.5921 26.0205 30.1844H26.0259ZM29.4166 20.7895C29.4166 20.7895 29.4002 20.784 29.3673 20.7732C29.9872 20.5395 30.5743 20.3004 31.1888 20.132C31.4247 20.0668 31.6826 20.0613 31.9295 20.0342C32.2477 20.0016 32.5659 19.9961 32.8786 20.0016C34.6234 20.0342 36.2254 20.496 37.6629 21.4958C38.3926 22.0012 39.0785 22.55 39.6875 23.1912C40.1867 23.7128 40.6641 24.2507 40.9603 24.9191C41.1195 25.2777 41.2127 25.6526 41.2347 26.0439C41.2621 26.5383 40.8506 27.0274 40.3184 27.1469C40.0386 27.2121 39.7807 27.136 39.5119 27.0817C38.7054 26.9241 37.9976 26.5492 37.3063 26.1308C36.7247 25.7776 36.209 25.3429 35.6603 24.9463C35.0074 24.4735 34.36 24.0008 33.7181 23.5117C33.3011 23.1911 32.9006 22.8543 32.5001 22.5174C31.5783 21.7403 30.5853 21.1046 29.4002 20.8003L29.4166 20.7895ZM34.8044 35.8409C34.4862 35.705 34.2393 35.4714 33.9979 35.2323C33.1365 34.3683 32.5385 33.3305 32.0227 32.2383C31.6332 31.4124 31.2107 30.5973 30.8596 29.7497C30.5853 29.0976 30.3768 28.4238 30.1628 27.7501C29.9598 27.1143 29.7623 26.4731 29.6196 25.8157C29.6196 25.7939 29.6196 25.7722 29.6087 25.7396C29.7239 25.8265 29.8117 25.9189 29.8995 26.0113C30.4481 26.5981 31.0077 27.185 31.5345 27.7881C32.1983 28.5488 32.8348 29.3258 33.4383 30.1355C33.9485 30.8147 34.4752 31.4776 34.9142 32.2003C35.3421 32.9012 35.6878 33.6402 35.8578 34.4498C35.9182 34.727 35.9731 35.0149 35.9017 35.3029C35.7646 35.8735 35.3202 36.0582 34.7935 35.8354L34.8044 35.8409ZM40.2361 34.0314C39.9508 34.2162 39.6326 34.2271 39.3089 34.1782C38.7109 34.0966 38.228 33.7815 37.7672 33.4283C37.2624 33.0479 36.829 32.5969 36.3846 32.1514C35.7317 31.4939 35.205 30.7386 34.6728 29.9942C33.9156 28.9346 33.1091 27.9076 32.341 26.8535C31.7265 26.0058 31.1394 25.1419 30.5304 24.2888C30.2451 23.8921 29.9433 23.5063 29.6526 23.1205C29.6361 23.0933 29.6142 23.0716 29.6087 23.0227C30.684 23.6476 31.7429 24.2779 32.7525 24.9843C33.6029 25.5766 34.4643 26.1525 35.2927 26.772C35.8688 27.2012 36.4284 27.6414 36.9771 28.1087C37.4928 28.5488 37.9921 29.0107 38.464 29.4888C39.1662 30.2007 39.7917 30.9668 40.2745 31.8471C40.4062 32.0862 40.5708 32.309 40.6586 32.5698C40.8451 33.1186 40.708 33.7272 40.2306 34.0369L40.2361 34.0314Z" fill="#DB52D1"/>
</svg>
