<svg width="36" height="25" viewBox="0 0 36 25" fill="none" xmlns="http://www.w3.org/2000/svg">
<path d="M0.860124 1.30229C1.00971 1.15555 1.19669 1.08218 1.34628 0.97213C1.53326 0.825393 1.75764 0.733683 1.98202 0.678657C2.84215 0.421868 3.73968 0.403526 4.6372 0.3485C5.12336 0.330158 5.62821 0.348499 6.11436 0.366841C6.54443 0.385183 6.97449 0.440209 7.40456 0.513578C8.58256 0.715341 9.70445 1.0455 10.789 1.52239C11.967 2.01763 13.0515 2.67794 14.0051 3.50334C14.6034 4.01691 15.1457 4.58552 15.6318 5.19081C16.3424 6.08957 17.0529 6.98833 17.7074 7.92378C17.7822 8.01549 17.8943 8.07051 17.9878 8.14388C18.0065 8.16222 18.0439 8.16222 18.0813 8.14388C18.1748 8.07051 18.287 8.01549 18.3431 7.92378C18.9228 7.04336 19.5585 6.18128 20.1943 5.3192C20.7926 4.53049 21.447 3.79681 22.195 3.1365C22.8494 2.56789 23.5787 2.091 24.364 1.66913C25.2241 1.21058 26.1216 0.862078 27.0566 0.568604C28.1785 0.220105 29.3378 0.0366842 30.5345 0C31.0206 0 31.5068 -4.54392e-07 32.0116 0.0183416C32.423 0.0183416 32.8344 0.0550257 33.2457 0.128394C33.5449 0.18342 33.8628 0.238447 34.1619 0.3485C34.3489 0.421868 34.4798 0.550262 34.6481 0.62363C34.8725 0.733683 35.0782 0.880419 35.2277 1.08218C35.8074 1.85255 36.0879 2.71463 35.9757 3.68676C35.9196 4.21868 35.77 4.73226 35.4895 5.19081C35.0408 5.92449 34.4798 6.56646 33.9002 7.19009C33.3953 7.72201 32.8344 8.21725 32.3295 8.76751C31.7686 9.40949 31.5255 10.1248 31.6564 10.9502C31.6938 11.207 31.6564 11.4455 31.6003 11.6839C31.4507 12.2158 31.1328 12.656 30.7588 13.0596C30.4223 13.4264 29.9922 13.7015 29.5621 13.9583C29.3004 14.1051 29.0199 14.2518 28.702 14.2885C28.5711 14.2885 28.4402 14.3252 28.3093 14.3435C27.7671 14.4352 27.2248 14.4352 26.6826 14.4536C26.4582 14.4536 26.2338 14.4536 25.9907 14.4536C25.4298 14.4536 24.8501 14.4902 24.2892 14.4536C24.0835 14.4536 23.8778 14.4536 23.6908 14.4352C23.5039 14.4352 23.2982 14.4169 23.1112 14.4169C22.7559 14.3068 22.4007 14.1968 22.0267 14.1234C22.0267 14.1234 22.0267 14.1234 21.9893 14.1234C22.2698 14.1234 22.5315 14.1234 22.7933 14.1417C22.9616 14.1417 23.1112 14.1417 23.2795 14.1417C23.8778 14.1784 24.4575 14.1417 25.0558 14.1417C25.355 14.1417 25.6542 14.1417 25.9533 14.1417C26.1777 14.1417 26.4208 14.1051 26.6452 14.0684C26.7948 14.05 26.9444 14.0317 27.094 13.995C27.4305 13.9033 27.7297 13.7199 28.0289 13.5365C28.4963 13.243 28.8703 12.8395 29.1508 12.3626C29.3004 12.1058 29.4126 11.849 29.4126 11.5372C29.4126 11.3171 29.3939 11.1153 29.3752 10.8952C29.3752 10.5467 29.4313 10.2165 29.6182 9.92306C29.7865 9.62959 30.0109 9.35446 30.2727 9.11601C30.5532 8.84088 30.8336 8.56575 31.1141 8.29062C31.619 7.77704 32.0864 7.22678 32.4978 6.62149C32.7596 6.23631 32.9278 5.7961 32.9839 5.33754C33.0026 5.17247 33.0213 5.00739 33.0213 4.84231C33.0213 4.53049 32.9652 4.23702 32.8531 3.94355C32.7035 3.54002 32.5165 3.15484 32.1799 2.84302C32.1425 2.80634 32.1051 2.76965 32.049 2.73297C31.6751 2.49452 31.2824 2.3111 30.8336 2.23773C30.4597 2.18271 30.067 2.14602 29.6743 2.12768C29.2443 2.10934 28.8329 2.091 28.4028 2.12768C28.0663 2.12768 27.7297 2.16437 27.3931 2.21939C26.4956 2.32944 25.6542 2.56789 24.8127 2.86136C23.9713 3.17318 23.1486 3.57671 22.4007 4.07194C21.7649 4.49381 21.204 4.98904 20.6991 5.53931C20.2316 6.05288 19.8016 6.62149 19.3902 7.19009C19.035 7.68533 18.661 8.19891 18.3244 8.71249C18.2683 8.8042 18.1561 8.84088 18.1 8.91425H18.0626C17.9691 8.84088 17.8756 8.78585 17.8009 8.69414C17.4269 8.14388 16.9968 7.61196 16.6042 7.08004C16.3237 6.7132 16.0432 6.34636 15.7253 5.99786C15.4075 5.63102 15.0522 5.30086 14.6969 4.9707C13.9677 4.34707 13.145 3.85184 12.2661 3.44831C11.4434 3.08147 10.5833 2.80634 9.68576 2.62292C9.2744 2.53121 8.84433 2.47618 8.43297 2.4395C7.96551 2.40281 7.49805 2.38447 7.01189 2.40281C6.63793 2.40281 6.24526 2.4395 5.87129 2.47618C5.42253 2.51286 4.95507 2.56789 4.54371 2.76965C4.09495 2.97142 3.70228 3.24655 3.4592 3.68676C3.25352 4.07194 3.12263 4.45712 3.06653 4.87899C3.02914 5.20915 3.06654 5.53931 3.14133 5.86946C3.25352 6.43807 3.57139 6.91496 3.92666 7.37351C4.37542 7.92378 4.84288 8.43735 5.36643 8.89591C5.60951 9.11601 5.85259 9.33612 6.07697 9.57457C6.39485 9.90472 6.67532 10.2532 6.78751 10.7118C6.8623 10.9869 6.8436 11.2437 6.8249 11.5188C6.80621 11.8306 6.8623 12.1241 6.99319 12.3992C7.29236 13.0045 7.74112 13.4631 8.32077 13.8116C8.60125 13.9767 8.90043 14.1417 9.2183 14.2151C9.44268 14.2518 9.66706 14.2701 9.87274 14.3068C10.228 14.3618 10.5833 14.3435 10.9386 14.3435C11.5182 14.3435 12.1165 14.3435 12.6962 14.3068C13.0702 14.2885 13.4628 14.2518 13.8368 14.2335C13.9864 14.2335 14.136 14.2335 14.3043 14.2335C13.949 14.3252 13.5937 14.4352 13.2385 14.5636C13.2011 14.5636 13.1637 14.5636 13.145 14.5636C12.4905 14.6003 11.8548 14.6553 11.2003 14.6737C10.9012 14.6737 10.6207 14.6737 10.3215 14.6737C9.98493 14.6737 9.66706 14.7103 9.33049 14.7103C8.84433 14.7103 8.33947 14.692 7.85331 14.6186C7.55414 14.582 7.25497 14.5453 6.9745 14.4169C6.69402 14.2885 6.45094 14.1417 6.18916 13.9767C5.53472 13.5731 5.02986 13.0045 4.69329 12.3075C4.5437 11.9957 4.50631 11.6656 4.525 11.3171C4.525 11.0419 4.5624 10.7668 4.525 10.4917C4.45021 10.0331 4.22583 9.64793 3.92666 9.29943C3.59009 8.91425 3.21612 8.56575 2.82345 8.21725C2.15031 7.61196 1.53326 6.95165 0.97231 6.23631C0.579644 5.72273 0.243074 5.19081 0.112186 4.54883C0.0560906 4.23702 0 3.92521 0 3.61339C0 3.26489 0.0747907 2.91639 0.186981 2.56789C0.336568 2.091 0.560951 1.65079 0.934919 1.30229H0.860124Z" fill="#595757"/>
<path d="M9.89161 16.8191C9.64853 17.1859 9.51764 17.5895 9.46154 18.0297C9.44285 18.2865 9.42415 18.5432 9.42415 18.8C9.42415 19.2219 9.51765 19.6438 9.68593 20.0473C9.79812 20.3224 9.91031 20.6159 10.0786 20.8543C10.3217 21.2212 10.5647 21.588 10.8639 21.9182C11.0883 22.175 11.3501 22.3951 11.6306 22.5968C11.8736 22.7803 12.1541 22.9087 12.472 22.927C12.472 22.927 12.4907 22.927 12.5094 22.927C12.6216 22.927 12.7338 22.927 12.846 22.927C12.9394 22.927 13.0142 22.8903 13.1077 22.872C13.5378 22.7803 13.9118 22.5418 14.267 22.3217C14.9028 21.9365 15.4824 21.4963 16.0434 21.0194C16.4921 20.6342 16.9596 20.2674 17.371 19.8088C17.5953 19.5521 17.8384 19.2953 18.0628 19.0201C18.175 18.8917 18.1563 18.8917 18.2685 19.0201C18.549 19.3503 18.8481 19.6621 19.1473 19.9556C19.4839 20.2857 19.8391 20.5792 20.2131 20.8727C20.531 21.1295 20.8489 21.3679 21.1854 21.6064C21.6155 21.8998 22.0643 22.175 22.5317 22.4318C22.7561 22.5602 22.9992 22.6519 23.2423 22.7252C23.3544 22.7619 23.4666 22.7619 23.5788 22.7986C23.691 22.7986 23.8032 22.7986 23.9154 22.7986C24.0276 22.7619 24.1211 22.7619 24.2333 22.7252C24.495 22.6335 24.7194 22.4868 24.9251 22.3034C25.0186 22.23 25.1121 22.1566 25.2056 22.0649C25.5048 21.7714 25.7478 21.4596 25.9909 21.1111C26.3088 20.6526 26.5332 20.1573 26.7201 19.6254C26.8136 19.332 26.8697 19.0385 26.8697 18.7267C26.8697 18.2498 26.8697 17.7912 26.7201 17.3327C26.5332 16.7274 26.1592 16.2505 25.673 15.847C25.1121 15.3701 24.495 15.0032 23.8219 14.6914C24.2333 14.8198 24.6259 14.9665 25.0186 15.1316C25.8226 15.5168 26.5893 15.957 27.2624 16.544C27.6364 16.8558 27.9355 17.2226 28.1973 17.6445C28.6087 18.3231 28.6274 19.0935 28.6648 19.8455C28.6648 20.139 28.6274 20.4325 28.5526 20.7259C28.3656 21.4046 28.1038 22.0466 27.7112 22.6335C27.3559 23.1838 26.9819 23.6974 26.4771 24.1192C26.234 24.321 26.0096 24.5228 25.7291 24.6695C25.5235 24.7612 25.3178 24.7979 25.1121 24.8529C24.9625 24.8529 24.8316 24.8529 24.682 24.8529C24.4202 24.7979 24.1585 24.7612 23.9154 24.6512C23.4292 24.4311 22.9805 24.1743 22.5317 23.8991C21.8399 23.4773 21.1854 22.9637 20.5497 22.4501C20.1383 22.1199 19.727 21.7898 19.353 21.4229C18.9977 21.0561 18.6424 20.6893 18.3059 20.3041C18.2124 20.194 18.175 20.194 18.0815 20.3041C17.5766 20.891 17.0905 21.4963 16.5108 22.0099C15.5572 22.8353 14.6036 23.6423 13.5191 24.2843C13.1077 24.5228 12.7151 24.7795 12.2476 24.9079C12.1167 24.9446 11.9858 24.963 11.8549 24.9997C11.7054 24.9997 11.5745 24.9997 11.4249 24.9997C11.2566 24.963 11.0883 24.9446 10.9387 24.8896C10.6208 24.7795 10.3778 24.5961 10.116 24.376C9.83552 24.1559 9.57374 23.9175 9.34936 23.6423C8.8819 23.0554 8.45183 22.4501 8.15266 21.7531C7.92828 21.2028 7.75999 20.6526 7.7226 20.0656C7.7226 19.7355 7.7226 19.387 7.7787 19.0568C7.85349 18.2865 8.19006 17.6261 8.73231 17.0575C9.12498 16.6357 9.57374 16.2872 10.0412 15.9754C10.7891 15.4801 11.5932 15.0766 12.4533 14.8015C11.9671 15.0399 11.4997 15.315 11.0696 15.6452C10.6395 15.957 10.2469 16.3055 9.9664 16.7641L9.89161 16.8191Z" fill="#595757"/>
<path d="M14.4729 14.8377C14.0616 15.1128 13.6502 15.4063 13.2762 15.7364C13.0145 15.9565 12.7527 16.1583 12.5096 16.3967C12.0047 16.8369 11.5186 17.3138 11.2194 17.9375C10.8828 18.6161 10.995 19.3131 11.5186 19.8451C11.6495 19.9918 11.743 20.1385 11.8925 20.2853C12.2291 20.6338 12.6405 20.8539 13.1079 20.9272C13.4445 20.9823 13.7624 20.8722 14.0616 20.7438C14.6225 20.5054 15.09 20.1569 15.5761 19.79C15.9314 19.5149 16.2493 19.2214 16.5858 18.9279C16.9037 18.6528 17.2029 18.341 17.5021 18.0292C17.7077 17.8091 17.8947 17.5706 18.063 17.3322C18.1378 17.2405 18.1565 17.2405 18.2126 17.3322C18.5866 17.8274 19.0166 18.2493 19.4654 18.6528C20.0264 19.1481 20.5873 19.6249 21.223 20.0285C21.6344 20.2853 22.0458 20.542 22.5132 20.7071C23.1303 20.9089 23.6538 20.7438 24.1587 20.3953C24.4392 20.1935 24.6261 19.9184 24.8318 19.6616C25.0188 19.4415 25.1684 19.2031 25.2432 18.9279C25.3367 18.5978 25.2993 18.2676 25.1871 17.9558C25.0375 17.5523 24.7757 17.2221 24.4766 16.892C24.2709 16.6719 24.0465 16.4518 23.8034 16.2683C23.6912 16.1583 23.5416 16.0849 23.4295 15.9749C23.2238 15.8098 23.0368 15.6447 22.8311 15.4796C22.2328 15.0211 21.597 14.5992 20.9052 14.2691C20.606 14.1223 20.2881 13.9756 20.0076 13.7738C20.1198 13.7738 20.2133 13.7555 20.3068 13.7371C20.5686 13.7371 20.8304 13.7371 21.0922 13.7005C21.3539 13.6638 21.6157 13.6454 21.8775 13.6087C22.1206 13.5721 22.3823 13.5354 22.6254 13.517C22.8685 13.517 23.1116 13.462 23.3734 13.4437C23.8221 13.407 24.2709 13.3153 24.7196 13.2236C25.4115 13.0952 26.0659 12.8751 26.6456 12.4349C27.3187 11.9213 27.7675 11.261 27.9732 10.4539C28.0667 10.0871 28.0666 9.73857 27.9919 9.37172C27.9732 9.26167 27.9545 9.13328 27.9358 9.02323C27.9358 8.9682 27.9545 8.93151 28.0106 8.89483C28.291 8.65638 28.5341 8.39959 28.7959 8.1428C29.2259 7.7026 29.5812 7.20736 29.843 6.6571C29.9926 6.34528 30.0861 6.03347 30.0861 5.68497C30.0861 5.00631 29.7121 4.51107 29.0764 4.25428C28.5902 4.05252 28.0854 4.03418 27.5805 4.07087C26.87 4.14423 26.1781 4.32765 25.4863 4.58444C24.5887 4.9146 23.7473 5.37315 22.962 5.88673C22.4571 6.21689 21.971 6.58373 21.5035 6.98725C20.98 7.42746 20.4938 7.90436 20.0076 8.41794C19.802 8.63804 19.5776 8.85815 19.3719 9.07825C19.054 9.42675 18.7175 9.73857 18.3996 10.0871C18.3061 10.1788 18.2313 10.2888 18.1378 10.3805C18.1004 10.4172 18.0817 10.4172 18.0443 10.3805C17.8573 10.1788 17.6704 9.97701 17.4647 9.79359C17.0346 9.39007 16.6232 8.9682 16.1932 8.56467C15.9314 8.28954 15.6509 8.03275 15.3704 7.77596C14.7534 7.20736 14.0803 6.67544 13.3697 6.21689C12.7714 5.8317 12.1543 5.46486 11.4999 5.17139C10.6959 4.80455 9.87313 4.54776 8.9943 4.40102C8.60164 4.32765 8.20897 4.30931 7.81631 4.346C7.34885 4.38268 6.88139 4.51107 6.50742 4.82289C6.18955 5.07968 6.02126 5.40984 5.98386 5.81336C5.92777 6.34528 6.11475 6.80383 6.37653 7.24404C6.7505 7.86767 7.25535 8.39959 7.79761 8.89483C7.8911 8.98654 8.00329 9.05991 8.09678 9.15162C8.17157 9.20665 8.19027 9.26167 8.17158 9.35338C8.13418 9.68354 8.07809 10.032 8.11548 10.3805C8.17158 10.8574 8.35855 11.2976 8.62033 11.7012C8.76992 11.958 8.95691 12.1781 9.18129 12.3798C9.74224 12.8934 10.4154 13.2052 11.1633 13.3703C11.6121 13.462 12.0608 13.517 12.5096 13.5904C12.8275 13.6271 13.1453 13.6638 13.4819 13.6821C13.8372 13.7005 14.1925 13.7371 14.5477 13.7922C14.7721 13.8288 14.9965 13.8289 15.2022 13.8472C15.5387 13.8839 15.8753 13.8472 16.2306 13.8839C16.0249 14.0306 15.8005 14.1407 15.5948 14.2691C15.2396 14.4708 14.8656 14.6359 14.5103 14.8743L14.4729 14.8377ZM10.9576 7.42747C10.7706 7.50083 10.565 7.48249 10.378 7.44581C9.53656 7.26239 8.82602 6.8772 8.22767 6.29026C8.09678 6.16186 7.98459 6.01513 7.92849 5.8317C7.8537 5.59326 7.96589 5.40984 8.20897 5.33647C8.30246 5.29978 8.39595 5.31813 8.48944 5.31813C8.69513 5.31813 8.88211 5.35481 9.0691 5.40984C9.70484 5.6116 10.3032 5.92342 10.7893 6.36362C10.9763 6.5287 11.1446 6.73046 11.2194 6.98725C11.2755 7.20736 11.182 7.37244 10.9763 7.46415L10.9576 7.42747ZM11.0885 8.08778C11.3877 8.12446 11.6682 8.21617 11.9486 8.34457C12.1169 8.41794 12.2665 8.52799 12.36 8.71141C12.4535 8.91317 12.3787 9.11494 12.173 9.16996C12.1169 9.16996 12.0608 9.20665 12.0047 9.1883C11.986 9.1883 11.9486 9.1883 11.9299 9.1883C11.4812 9.11494 11.1072 8.93152 10.8267 8.58302C10.7706 8.50965 10.7146 8.41794 10.7333 8.30788C10.7519 8.16115 10.9015 8.06944 11.0885 8.08778ZM13.2014 8.12446C13.1079 8.2712 13.0145 8.30788 12.8275 8.25286C12.6592 8.19783 12.5096 8.08778 12.3974 7.94104C12.2291 7.72094 12.0982 7.48249 12.0608 7.24404C12.0608 7.07897 12.1356 6.98726 12.2665 6.96891C12.3413 6.96891 12.4348 6.98726 12.4909 7.04228C12.8836 7.24404 13.0893 7.59254 13.2201 7.99607C13.2201 8.05109 13.2201 8.08778 13.2014 8.1428V8.12446ZM12.173 10.6924C12.7527 10.8207 13.2949 11.0042 13.7811 11.3343C13.9681 11.4444 14.1177 11.5911 14.2298 11.7745C14.3046 11.9029 14.2859 12.0497 14.1925 12.1597C14.0055 12.3615 13.7624 12.3982 13.5193 12.3982C13.2201 12.3982 12.921 12.3431 12.6405 12.2698C11.9673 12.1047 11.3316 11.8662 10.752 11.4811C10.5463 11.3527 10.3593 11.1876 10.378 10.8941C10.378 10.729 10.4528 10.619 10.6211 10.564C10.7333 10.5273 10.8641 10.4906 11.0137 10.5089C11.0511 10.5089 11.1072 10.5089 11.1633 10.5089C11.4999 10.5456 11.8365 10.619 12.173 10.6924ZM17.2403 11.0225C17.0159 11.316 16.698 11.5177 16.3802 11.6828C16.1371 11.8112 15.894 11.8846 15.6135 11.8846C15.3518 11.8846 15.2209 11.7195 15.3331 11.4811C15.4265 11.261 15.6322 11.1509 15.8379 11.0592C15.9875 11.0042 16.1184 10.9491 16.268 10.8758C16.2306 10.8391 16.1932 10.8391 16.1558 10.8391C16.1184 10.8391 16.0623 10.8391 16.0249 10.8391C15.6509 10.8024 15.2957 10.7107 14.9591 10.564C14.5103 10.3805 14.0803 10.1788 13.7437 9.81193C13.6128 9.68354 13.5006 9.55515 13.4445 9.37172C13.3884 9.16996 13.4819 9.00488 13.6689 8.94986C13.8933 8.87649 14.099 8.93151 14.3233 8.9682C15.0339 9.11493 15.6883 9.37172 16.2867 9.73857C16.5858 9.92199 16.885 10.1421 17.1281 10.3805C17.2029 10.4539 17.3151 10.5273 17.3151 10.6373C17.3151 10.7657 17.3151 10.8941 17.2216 11.0042L17.2403 11.0225ZM17.3525 12.1414C17.2777 12.3065 17.1842 12.4715 17.0533 12.6183C16.8102 12.8751 16.5671 13.0952 16.2119 13.1869C16.0623 13.2236 15.9688 13.1502 15.9688 12.9668C15.9688 12.9117 16.0062 12.8384 16.0436 12.7467C16.1745 12.4899 16.3428 12.2514 16.5858 12.0864C16.7541 11.9763 16.9037 11.8479 17.1094 11.7745C17.2777 11.7195 17.4086 11.7929 17.4273 11.9396C17.4273 12.013 17.4273 12.068 17.3899 12.1414H17.3525ZM24.0839 8.19783C24.3457 8.06944 24.6075 7.97773 24.9066 7.94104C25.0936 7.9227 25.2432 7.99607 25.2619 8.1428C25.2806 8.23452 25.2619 8.32623 25.2058 8.39959C25.131 8.50965 25.0375 8.6197 24.9253 8.69307C24.6635 8.89483 24.3644 9.02322 24.0465 9.05991C23.8782 9.05991 23.7286 9.02323 23.6538 8.87649C23.579 8.72975 23.6351 8.58302 23.7286 8.47296C23.8221 8.34457 23.9343 8.2712 24.0839 8.19783ZM27.7114 6.08849C27.3 6.5287 26.8139 6.84052 26.2529 7.07896C25.9537 7.20736 25.6546 7.29907 25.318 7.31741C25.1497 7.31741 25.0562 7.31741 24.9627 7.26239C24.7944 7.18902 24.7009 7.02394 24.757 6.84052C24.8318 6.54704 25.0188 6.34528 25.2245 6.14352C25.5611 5.8317 25.935 5.59326 26.3464 5.39149C26.7391 5.20807 27.1317 5.06134 27.5805 5.07968C27.6927 5.07968 27.7862 5.11636 27.8797 5.17139C28.0106 5.24476 28.0666 5.39149 28.0293 5.51989C27.9919 5.75834 27.861 5.92341 27.7114 6.08849ZM21.971 11.5177C22.158 11.2976 22.401 11.1509 22.6441 11.0225C23.0929 10.7841 23.5603 10.6373 24.0465 10.5273C24.3831 10.4539 24.7196 10.3622 25.0562 10.3622C25.1497 10.3622 25.2245 10.3622 25.318 10.3622C25.505 10.3989 25.6546 10.5089 25.6733 10.6373C25.7107 10.8391 25.6546 11.0042 25.505 11.1509C25.4115 11.2426 25.318 11.316 25.2245 11.371C24.8318 11.6278 24.3831 11.8296 23.9343 11.9946C23.4855 12.1597 23.0368 12.2331 22.5693 12.2698C22.3823 12.2698 22.1954 12.2698 22.0271 12.1597C21.8962 12.0864 21.784 11.9946 21.8027 11.8112C21.8027 11.6828 21.8775 11.5728 21.9523 11.4811L21.971 11.5177ZM23.0929 8.1428C22.9059 8.17949 22.7376 8.01441 22.7937 7.83099C22.8124 7.72094 22.8498 7.62923 22.9059 7.53752C23.0368 7.2257 23.2612 6.98725 23.579 6.84052C23.8034 6.74881 23.9343 6.89554 23.9343 7.07896C23.9156 7.28073 23.8221 7.48249 23.7099 7.66591C23.579 7.90436 23.3921 8.08778 23.1116 8.1428H23.0929ZM21.1296 10.4906C20.7369 10.6557 20.3255 10.8024 19.8768 10.8024C19.8581 10.8024 19.8207 10.8024 19.802 10.8207C19.8207 10.8391 19.8581 10.8391 19.8768 10.8574C20.0637 10.9308 20.2694 10.9858 20.4564 11.0959C20.606 11.1876 20.7369 11.2976 20.7743 11.4627C20.8304 11.6461 20.7182 11.7929 20.5312 11.8112C20.3816 11.8112 20.232 11.8112 20.1011 11.7562C19.6898 11.6461 19.3532 11.4444 19.0353 11.1876C18.9231 11.0959 18.7923 10.9858 18.7549 10.8207C18.7362 10.729 18.6801 10.619 18.7549 10.5273C18.9418 10.2888 19.1849 10.1054 19.4093 9.92199C20.0076 9.44509 20.6995 9.13328 21.4287 8.93151C21.6905 8.85815 21.9523 8.78478 22.2328 8.82146C22.5132 8.85815 22.6628 9.05991 22.5319 9.33504C22.4197 9.57349 22.2515 9.75691 22.0645 9.92199C21.784 10.1604 21.4474 10.3255 21.1109 10.4722L21.1296 10.4906ZM22.401 17.9742C22.5132 17.8824 22.6254 17.9008 22.7563 17.9191C23.0555 17.9925 23.336 18.1392 23.5603 18.341C23.8595 18.5978 24.0839 18.9096 24.14 19.2948C24.1587 19.4599 24.0652 19.6616 23.8408 19.6433C23.6538 19.6433 23.4855 19.5883 23.336 19.4966C23.0368 19.3315 22.7937 19.093 22.588 18.8362C22.4758 18.6895 22.3636 18.5428 22.3076 18.3593C22.2702 18.2126 22.2515 18.0842 22.3823 17.9742H22.401ZM20.793 18.286C20.9613 18.286 21.0922 18.341 21.2043 18.4327C21.3913 18.5794 21.5409 18.7445 21.6157 18.983C21.6531 19.0747 21.6157 19.1664 21.5596 19.2398C21.4848 19.3131 21.41 19.3131 21.3165 19.2764C21.0922 19.2031 20.9052 19.0747 20.7556 18.8729C20.6621 18.7629 20.606 18.6528 20.5873 18.5061C20.5873 18.3593 20.6434 18.3043 20.793 18.286ZM19.2971 14.9477C19.2597 14.8377 19.1849 14.7276 19.1662 14.5992C19.1662 14.5258 19.2036 14.4708 19.2784 14.4892C19.3345 14.4892 19.3719 14.5075 19.4093 14.5258C19.9889 14.746 20.5312 15.0211 21.0735 15.3146C21.4848 15.553 21.8962 15.7915 22.2515 16.1216C22.4571 16.305 22.6254 16.5068 22.7002 16.7819C22.7376 16.9287 22.6441 17.0937 22.4571 17.0754C22.3636 17.0754 22.2701 17.0387 22.1767 17.0204C21.7653 16.8553 21.3913 16.5985 21.0361 16.3417C20.9052 16.2317 20.7556 16.14 20.6247 16.0299C20.6247 16.0299 20.6247 16.0299 20.606 16.0482C20.6434 16.1216 20.6995 16.1766 20.7369 16.25C20.9239 16.5251 21.0735 16.8186 21.1482 17.1671C21.1482 17.2588 21.1482 17.3689 21.0735 17.4239C20.98 17.4789 20.9052 17.4422 20.8304 17.3872C20.6995 17.2955 20.5873 17.1854 20.4938 17.0754C19.989 16.4151 19.5776 15.6997 19.2971 14.911V14.9477ZM18.8671 15.7181C18.9792 15.7548 19.054 15.8281 19.1288 15.9015C19.3906 16.1766 19.5776 16.4701 19.7085 16.8186C19.7833 17.002 19.8394 17.1854 19.802 17.3872C19.7833 17.5339 19.6524 17.6073 19.5028 17.5706C19.3719 17.5339 19.2784 17.4422 19.1849 17.3505C18.9979 17.1488 18.8483 16.9103 18.7175 16.6719C18.624 16.4701 18.5305 16.25 18.5305 16.0116C18.5305 15.9932 18.5305 15.9565 18.5305 15.9382C18.5305 15.7915 18.6614 15.6264 18.8671 15.7181ZM19.2597 12.765C19.0166 12.5632 18.8109 12.3248 18.7362 12.013C18.6988 11.8662 18.7736 11.7562 18.9418 11.7562C19.0166 11.7562 19.0353 11.7562 19.1101 11.7929C19.3719 11.9213 19.6337 12.0864 19.8394 12.3065C19.9889 12.4715 20.1198 12.655 20.1759 12.8751C20.232 13.0768 20.1198 13.1685 19.9329 13.1319C19.8955 13.1319 19.8581 13.1318 19.802 13.0952C19.5963 13.0218 19.428 12.9117 19.2597 12.765ZM16.9785 16.0666C17.072 15.9382 17.2029 15.8098 17.3525 15.7364C17.5021 15.6814 17.6143 15.7181 17.6703 15.8281C17.689 15.8832 17.7077 15.9382 17.6891 15.9932C17.6891 16.0299 17.6891 16.0666 17.6891 16.1033C17.6891 16.1583 17.6891 16.195 17.6517 16.25C17.5582 16.6352 17.3899 16.9653 17.1468 17.2772C17.0346 17.4056 16.9224 17.5523 16.7541 17.6073C16.6419 17.644 16.5297 17.6073 16.4737 17.5156C16.4176 17.4056 16.4363 17.2772 16.455 17.1671C16.5298 16.7636 16.7167 16.4151 16.9598 16.0849L16.9785 16.0666ZM14.903 18.7078C15.0339 18.5611 15.1835 18.4144 15.3704 18.3593C15.52 18.3227 15.7257 18.3593 15.707 18.5611C15.707 18.5611 15.707 18.5978 15.707 18.6345C15.707 18.6528 15.707 18.6712 15.707 18.6895C15.5948 19.0197 15.3331 19.2398 14.9965 19.3498C14.8095 19.4232 14.6599 19.2764 14.716 19.0747C14.7534 18.9279 14.8282 18.8179 14.9217 18.7078H14.903ZM12.8088 18.396C13.0519 18.1943 13.3323 18.0475 13.6315 18.0108C13.8559 17.9742 14.0055 18.1209 13.9868 18.341C13.9868 18.4877 13.912 18.6161 13.8372 18.7445C13.6502 19.0563 13.4258 19.3131 13.1266 19.5332C12.921 19.68 12.7153 19.79 12.5096 19.8084C12.2852 19.8084 12.2104 19.7533 12.1543 19.5883C12.1169 19.4415 12.1543 19.2948 12.2291 19.1664C12.3413 18.8729 12.547 18.6161 12.7901 18.4144L12.8088 18.396ZM13.6689 16.6352C13.8746 16.2867 14.1738 16.0299 14.4916 15.8098C15.1461 15.3512 15.8379 15.0027 16.5671 14.6542C16.6793 14.5992 16.7915 14.5625 16.9037 14.5258C16.9785 14.5075 17.0533 14.5258 17.0346 14.5992C17.0346 14.6542 17.0346 14.7093 16.9972 14.746C16.8289 15.1311 16.7167 15.5163 16.5298 15.8832C16.3054 16.3234 16.0623 16.7636 15.7631 17.1488C15.6509 17.2955 15.5387 17.4239 15.3704 17.4973C15.2209 17.5706 15.09 17.4973 15.09 17.3322C15.09 17.2588 15.09 17.1855 15.1274 17.1304C15.2022 16.8186 15.3518 16.5435 15.52 16.2683C15.5574 16.2133 15.5948 16.1766 15.6135 16.1033C15.5761 16.1033 15.5761 16.1033 15.5574 16.1216C15.2209 16.3784 14.903 16.6535 14.529 16.8736C14.3233 17.002 14.1177 17.1121 13.8933 17.1671C13.725 17.2038 13.5941 17.1488 13.5567 16.9837C13.5193 16.837 13.5941 16.7269 13.6689 16.5985V16.6352Z" fill="#595757"/>
</svg>
