<svg width="30" height="25" viewBox="0 0 30 25" fill="none" xmlns="http://www.w3.org/2000/svg">
<path d="M4.37573 23.5238C4.77104 23.9657 5.23822 24.3015 5.79524 24.5312C6.24446 24.7257 6.71163 24.867 7.19678 24.9024C7.48428 24.9201 7.75381 24.9201 8.04131 24.8847C8.38271 24.8317 8.70614 24.7433 9.01161 24.5666C9.62253 24.2308 10.0897 23.7536 10.503 23.2234C11.0241 22.5518 11.4553 21.8095 11.8327 21.0672C12.1561 20.4309 12.4436 19.777 12.785 19.1407C13.1084 18.5222 13.4318 17.8859 13.7014 17.2496C13.7553 17.1082 13.8272 16.9669 13.8811 16.8078C13.8811 17.0199 13.899 17.1966 13.917 17.3734C13.9529 17.6385 13.9889 17.9036 14.0068 18.1687C14.0428 18.4691 14.0787 18.7696 14.1865 19.07C14.2764 19.3528 14.3842 19.6179 14.5818 19.8477C14.7435 20.0421 15.0131 20.0421 15.1748 19.8477C15.3185 19.6886 15.4084 19.5119 15.4803 19.3351C15.606 19.0347 15.6959 18.7342 15.7318 18.3984C15.7678 18.1157 15.8217 17.8152 15.8576 17.5324C15.8935 17.3027 15.8935 17.0552 15.9295 16.8078C15.9474 16.8431 15.9654 16.8785 15.9654 16.8962C16.181 17.4617 16.4326 18.0273 16.7021 18.5752C16.9716 19.1231 17.2591 19.6709 17.5107 20.2365C17.888 21.0672 18.2833 21.8802 18.7865 22.6578C19.1818 23.2587 19.595 23.8243 20.17 24.2838C20.6732 24.6903 21.2481 24.9377 21.895 24.9908C22.2544 25.0084 22.6317 25.0084 22.9911 24.9201C23.7098 24.761 24.3747 24.4959 24.9496 24.0187C25.345 23.6829 25.6864 23.2941 25.9199 22.8346C26.2074 22.2867 26.3871 21.7034 26.459 21.1025C26.4949 20.7491 26.5129 20.4132 26.459 20.0598C26.4051 19.6533 26.2793 19.2821 26.0996 18.911C25.9559 18.5928 25.8121 18.2924 25.6684 17.9743C25.5965 17.8329 25.5785 17.7092 25.6684 17.5678C25.7582 17.391 25.8481 17.1966 25.9379 17.0022C26.1176 16.6487 26.2074 16.2599 26.2434 15.8534C26.2434 15.5353 26.2254 15.2171 26.1535 14.899C25.9738 14.0153 25.5246 13.2554 24.9496 12.5661C24.8778 12.4777 24.8059 12.3893 24.734 12.301C24.9317 12.2833 25.1114 12.2479 25.2911 12.2126C25.7223 12.1242 26.0996 11.9652 26.477 11.7354C27.1059 11.3643 27.609 10.8871 27.9504 10.2331C28.0762 10.0034 28.166 9.73827 28.2738 9.50851C28.3996 9.20805 28.6152 8.96062 28.7949 8.69551C29.1004 8.21832 29.316 7.70578 29.3879 7.15789C29.4238 6.82209 29.4238 6.48629 29.3699 6.13281C29.298 5.72631 29.1722 5.33749 28.9027 5.01936C28.8129 4.89564 28.8129 4.80728 28.8847 4.68356C29.0644 4.36543 29.2441 4.0473 29.4418 3.72917C29.8371 3.09292 30.0707 2.40364 29.9808 1.62599C29.9449 1.30786 29.8191 1.02508 29.6035 0.777648C29.4777 0.636257 29.316 0.547888 29.1722 0.441845C28.9926 0.318129 28.8129 0.247433 28.6152 0.212085C28.5074 0.194412 28.3996 0.176738 28.2918 0.159065C28.184 0.159065 28.0762 0.159065 27.9504 0.159065C27.9504 0.159065 27.9144 0.159065 27.8965 0.159065C27.6809 0.159065 27.4832 0.194412 27.2676 0.247433C26.1176 0.494866 25.0934 1.00741 24.1411 1.66134C23.4403 2.13853 22.7755 2.68642 22.1286 3.21663C21.7692 3.49941 21.4278 3.81754 21.1044 4.13567C20.5833 4.63054 20.0982 5.14308 19.613 5.69097C19.3614 5.99142 19.1099 6.2742 18.8583 6.57466C18.5888 6.92813 18.3193 7.28161 18.0677 7.65276C17.6904 8.236 17.331 8.81923 17.0255 9.43781C16.9177 9.6499 16.8459 9.87966 16.7201 10.0917C16.3068 10.7457 15.9474 11.435 15.6779 12.1596C15.6599 12.2303 15.624 12.2833 15.5521 12.3363C15.5521 12.2479 15.5521 12.1949 15.5521 12.1242C15.642 11.7708 15.7498 11.435 15.8216 11.0815C15.8935 10.7633 15.8935 10.4629 15.7857 10.1624C15.7138 9.93268 15.5881 9.75594 15.3724 9.63223C15.1388 9.49084 14.8693 9.50851 14.6357 9.59688C14.4561 9.6499 14.3303 9.77362 14.2225 9.95035C14.0248 10.3038 13.9889 10.675 14.0607 11.0638C14.1326 11.3819 14.2225 11.7177 14.3123 12.0359C14.3303 12.1242 14.3482 12.2126 14.3123 12.3186C14.2584 12.2479 14.2225 12.1949 14.1865 12.1242C14.0068 11.594 13.7373 11.0815 13.4678 10.5866C13.36 10.3745 13.1983 10.1801 13.1084 9.95035C12.7311 9.04899 12.2459 8.18297 11.7069 7.36998C11.3655 6.85744 10.9702 6.38024 10.5749 5.90305C10.2874 5.56725 9.99987 5.23145 9.6944 4.89564C9.24519 4.41845 8.77801 3.95893 8.29286 3.51709C7.95146 3.19896 7.59208 2.91618 7.23271 2.61572C6.80147 2.26225 6.3882 1.90877 5.92102 1.60832C5.18431 1.09578 4.41167 0.636258 3.54918 0.353477C3.17184 0.22976 2.81247 0.123717 2.41716 0.0530218C2.30935 0.035348 2.18358 0.0530214 2.07577 0C1.96796 0 1.86014 0 1.73436 0C1.71639 0 1.69842 0 1.66249 0C1.55468 0 1.44687 0.0176738 1.35703 0.0353476C1.10547 0.0706952 0.88984 0.212086 0.692187 0.353477C0.386722 0.547889 0.189075 0.812995 0.0812645 1.1488C-0.00857792 1.44925 -0.00857956 1.76738 0.00938892 2.08551C0.0273574 2.33294 0.0812563 2.58038 0.171099 2.81014C0.314847 3.19896 0.548436 3.55244 0.74609 3.92359C0.853901 4.118 0.943754 4.29474 1.05156 4.48915C1.12344 4.61286 1.10546 4.70123 1.01562 4.80728C0.88984 4.94867 0.782033 5.10773 0.710159 5.28447C0.584379 5.58492 0.512501 5.90305 0.494532 6.22118C0.458595 6.59233 0.494534 6.94581 0.566408 7.31696C0.65625 7.77648 0.871871 8.20065 1.1414 8.58947C1.32108 8.85458 1.51874 9.11968 1.62656 9.43781C1.69843 9.6499 1.78827 9.86199 1.87811 10.0564C2.1117 10.5159 2.43513 10.8871 2.83044 11.2052C3.24372 11.541 3.69293 11.7884 4.19605 11.9652C4.48355 12.0535 4.77103 12.1066 5.05853 12.1419V12.1596C4.86088 12.3717 4.6812 12.6014 4.51948 12.8312C3.94449 13.5735 3.60308 14.4218 3.53121 15.3409C3.49527 15.765 3.53121 16.1715 3.71089 16.5604C3.8187 16.8431 3.96245 17.1082 4.08823 17.3734C4.1601 17.5147 4.14214 17.6385 4.08823 17.7622C3.96245 18.0273 3.83667 18.2924 3.71089 18.5575C3.38746 19.2468 3.17183 19.9537 3.24371 20.7137C3.27965 21.0849 3.33355 21.4383 3.44136 21.7918C3.62105 22.4104 3.90855 22.9936 4.35776 23.4708L4.37573 23.5238ZM25.6504 7.52904C25.0754 7.93554 24.4825 8.28902 23.8536 8.60715C23.2606 8.9076 22.6497 9.17271 22.0388 9.45549C21.4099 9.75594 20.781 10.0387 20.1341 10.2685C19.3614 10.5689 18.5708 10.8694 17.8162 11.1875C17.7802 11.1875 17.7263 11.2405 17.6904 11.2229C17.6544 11.1875 17.6904 11.1168 17.7263 11.0815C18.3013 10.2155 18.9122 9.36712 19.5771 8.55412C19.9724 8.0946 20.3677 7.63509 20.763 7.17557C21.0325 6.87511 21.302 6.59233 21.5716 6.30955C22.1286 5.70864 22.7036 5.12541 23.3684 4.63054C23.7817 4.31241 24.2129 4.02963 24.6981 3.81754C25.0395 3.65848 25.4168 3.58778 25.7942 3.57011C25.902 3.57011 26.0278 3.57011 26.1356 3.60546C26.7645 3.74685 27.1418 4.27706 27.1598 4.89564C27.1598 5.17843 27.1238 5.46121 27.034 5.74399C26.7824 6.48629 26.2793 7.06952 25.6504 7.52904ZM22.6137 11.0815C22.4341 11.0815 22.2544 11.0815 22.0747 11.0815C21.7333 11.0638 21.3919 11.0108 21.0505 10.9931C20.9786 10.9931 20.9786 10.9578 20.9966 10.9047C21.0325 10.834 21.1044 10.7987 21.1583 10.7633C21.6255 10.5159 22.0747 10.2685 22.5419 10.0034C22.9012 9.79129 23.2606 9.63223 23.638 9.47316C24.159 9.26108 24.6801 9.01364 25.2371 8.94295C25.4887 8.9076 25.7403 8.88993 25.9918 8.94295C26.3332 9.03132 26.5488 9.29642 26.4949 9.66757C26.441 9.96803 26.2793 10.1978 26.0278 10.3745C25.7942 10.5513 25.5246 10.675 25.2371 10.7633C24.6801 10.9401 24.1051 10.9931 23.5301 11.0461C23.2247 11.0815 22.9192 11.0815 22.6137 11.0638V11.0815ZM22.0388 15.4999C21.6255 15.2171 21.2481 14.899 20.8528 14.6162C20.3497 14.2451 19.8646 13.8739 19.3974 13.4674C19.1279 13.2377 18.8404 13.0256 18.5349 12.8489C18.2294 12.6544 17.888 12.5307 17.5287 12.4247C17.6904 12.3717 17.8521 12.3186 17.9958 12.2656C18.499 12.0535 19.038 11.9828 19.595 12.0005C19.7568 12.0005 19.9185 12.0182 20.0802 12.0359C20.3677 12.0712 20.6731 12.1242 20.9606 12.1949C21.8411 12.4247 22.5598 12.9196 23.2247 13.5028C23.5122 13.7502 23.7817 14.033 24.0153 14.3335C24.2489 14.6162 24.4465 14.9344 24.5184 15.2878C24.5723 15.5176 24.6082 15.765 24.4645 15.9948C24.3208 16.2422 24.0512 16.3129 23.8176 16.2953C23.6739 16.2953 23.5301 16.2422 23.3864 16.2069C22.8833 16.0655 22.452 15.8181 22.0388 15.5353V15.4999ZM20.4216 17.6208C19.9364 16.9669 19.4513 16.3306 19.0021 15.659C18.6427 15.1288 18.2833 14.5986 17.906 14.086C17.8341 13.98 17.7443 13.8739 17.6724 13.7679C17.9958 13.9623 18.3193 14.1567 18.6427 14.3511C19.3614 14.8107 20.0443 15.3055 20.7271 15.8004C21.0685 16.0301 21.3739 16.2953 21.6974 16.5604C21.9309 16.7548 22.1466 16.9492 22.3622 17.1436C22.7575 17.5147 23.1169 17.8859 23.4583 18.3101C23.6918 18.6105 23.8715 18.9286 24.0692 19.2645C24.159 19.4235 24.2129 19.5826 24.2129 19.7593C24.2129 20.1305 23.9614 20.4663 23.5122 20.4486C23.2247 20.4486 22.9551 20.3426 22.7216 20.1835C22.3981 19.9714 22.1106 19.724 21.8411 19.4412C21.5177 19.0877 21.1763 18.7519 20.9067 18.3454C20.745 18.1157 20.5833 17.8682 20.4216 17.6385V17.6208ZM18.3372 17.6738C18.1396 17.1613 17.9958 16.6487 17.8341 16.1185C17.7623 15.8711 17.6904 15.6236 17.6365 15.3585C17.6724 15.3939 17.6904 15.3939 17.6904 15.4116C17.906 15.6413 18.1216 15.8534 18.3193 16.0832C18.6427 16.4543 18.9661 16.8255 19.2716 17.1966C19.7388 17.7799 20.188 18.3631 20.5833 18.9817C20.9067 19.4589 21.1583 19.9714 21.2661 20.537C21.3021 20.7137 21.338 20.8904 21.2841 21.0672C21.2122 21.35 20.9786 21.4737 20.6911 21.3853C20.4755 21.3146 20.3138 21.1732 20.17 21.0142C19.7927 20.6253 19.4872 20.1835 19.2357 19.7063C19.056 19.3351 18.8763 18.964 18.7146 18.5928C18.5708 18.2747 18.4271 17.9743 18.3013 17.6561L18.3372 17.6738ZM4.1062 8.76621C4.50151 8.73086 4.89682 8.78388 5.27416 8.92527C5.92102 9.15503 6.54992 9.42014 7.14288 9.73827C7.48428 9.91501 7.78974 10.1271 8.13114 10.3038C8.34676 10.4275 8.58036 10.5513 8.81395 10.675C8.86786 10.7103 8.93972 10.7457 8.95769 10.8164C8.95769 10.8694 8.95769 10.8871 8.90378 10.8871C8.7241 10.8871 8.54442 10.9224 8.36474 10.9401C8.02334 10.9754 7.68193 10.9931 7.32256 10.9754C7.28663 10.9754 7.25069 10.9754 7.21476 10.9754C6.87336 10.9754 6.53195 10.9578 6.19055 10.9224C5.92103 10.8871 5.66946 10.8517 5.39994 10.8164C4.95072 10.7457 4.51948 10.622 4.12417 10.3922C3.87262 10.2508 3.65699 10.0917 3.53121 9.82664C3.4234 9.61455 3.36949 9.40247 3.44136 9.19038C3.54917 8.9076 3.80073 8.78388 4.08823 8.76621H4.1062ZM12.2819 11.1698C12.2819 11.1698 12.21 11.1698 12.174 11.1345C11.7069 10.9401 11.2577 10.7457 10.7905 10.5513C9.92799 10.2155 9.06551 9.87966 8.23896 9.49084C7.6999 9.22573 7.16085 8.97829 6.62179 8.71319C5.92102 8.37738 5.23821 8.00624 4.59135 7.56439C4.1062 7.22859 3.65699 6.83976 3.31558 6.3449C3.01012 5.8677 2.81247 5.35516 2.81247 4.75425C2.81247 4.66589 2.81248 4.55984 2.84841 4.43613C2.92029 4.118 3.082 3.83522 3.35153 3.6408C3.69293 3.39337 4.07026 3.34035 4.46557 3.39337C4.8429 3.44639 5.20229 3.57011 5.54369 3.74685C6.19055 4.08265 6.74757 4.52449 7.26866 5.01936C7.71787 5.44353 8.14911 5.90305 8.58035 6.36257C8.95769 6.78674 9.35301 7.21091 9.71237 7.63509C9.99987 7.97089 10.2874 8.32436 10.5749 8.67784C10.9881 9.20805 11.3834 9.75594 11.7608 10.3215C11.9225 10.5513 12.0842 10.7987 12.228 11.0285C12.2639 11.0638 12.2998 11.1168 12.2639 11.1698H12.2819ZM14.2764 16.8962C14.2764 16.4366 14.2764 15.9771 14.2764 15.5176C14.3123 15.0758 14.3303 14.6339 14.3842 14.1921C14.4201 13.8739 14.474 13.5735 14.5459 13.273C14.5818 13.114 14.6717 12.9726 14.6357 12.7958C14.5818 12.4247 14.5639 12.0535 14.5818 11.7001C14.5818 11.541 14.5818 11.3996 14.5818 11.2759C14.5818 11.1168 14.5998 10.9578 14.6537 10.7987C14.7076 10.622 14.7975 10.5689 14.9771 10.5689C15.1209 10.5689 15.2107 10.6396 15.2467 10.7987C15.3006 10.9578 15.3185 11.1168 15.3185 11.2759C15.3185 11.7708 15.3185 12.2833 15.2467 12.7782C15.2467 12.8842 15.2467 12.9902 15.2826 13.0786C15.2826 13.0963 15.2826 13.1316 15.3006 13.1493C15.4084 13.6088 15.4623 14.0684 15.4982 14.5279C15.5342 14.8813 15.5342 15.2525 15.5521 15.6236C15.5521 15.9064 15.5521 16.1715 15.5521 16.4543C15.5521 16.8785 15.5342 17.3203 15.4443 17.7445C15.4084 17.9212 15.3724 18.098 15.2646 18.257C15.1748 18.3808 15.067 18.4161 14.9232 18.3984C14.8873 18.3984 14.8693 18.3984 14.8334 18.3984C14.6896 18.4338 14.5818 18.3984 14.492 18.257C14.4381 18.1687 14.4021 18.0803 14.3662 17.9743C14.2764 17.6208 14.2404 17.2673 14.2404 16.8962H14.2764ZM10.521 13.4144C10.2874 13.6088 10.0358 13.8209 9.78425 14.0153C9.40691 14.2981 9.0116 14.5809 8.6163 14.8637C8.29286 15.0934 7.98739 15.3585 7.62802 15.5706C7.21475 15.8181 6.78351 16.0478 6.29836 16.1362C6.13664 16.1715 5.97492 16.2069 5.8132 16.1715C5.48977 16.1008 5.25619 15.8004 5.27416 15.5176C5.27416 15.2878 5.34602 15.0581 5.43587 14.846C5.61555 14.4572 5.90305 14.1214 6.20851 13.8209C6.56788 13.4498 6.98116 13.114 7.43037 12.8135C8.29286 12.2126 9.24519 11.9475 10.2874 11.9298C10.485 11.9298 10.6647 11.9298 10.8624 11.9475C11.0061 11.9475 11.1678 11.9652 11.3116 12.0005C11.6709 12.1066 12.0303 12.2479 12.4076 12.3893C12.3897 12.3893 12.3897 12.3893 12.3717 12.3893C11.6709 12.5661 11.06 12.9549 10.521 13.4144ZM8.49052 21.0318C8.45458 20.8551 8.49051 20.696 8.50848 20.5193C8.61629 20.0421 8.81394 19.6003 9.08347 19.1761C9.35299 18.7519 9.65847 18.3454 9.96393 17.9566C10.3233 17.4794 10.7006 17.0199 11.0959 16.5604C11.4194 16.2069 11.7428 15.8534 12.0662 15.4999C12.1201 15.4469 12.1741 15.3939 12.2459 15.3409C12.2459 15.3585 12.2459 15.3762 12.2459 15.3939C12.1561 15.7827 12.0483 16.1715 11.9225 16.5427C11.7967 16.9492 11.6709 17.338 11.5092 17.7268C11.2936 18.2217 11.042 18.7166 10.8085 19.2114C10.503 19.8654 10.1436 20.4839 9.62253 20.9965C9.47878 21.1379 9.33504 21.2793 9.13738 21.35C8.83192 21.4737 8.56239 21.3676 8.47254 21.0318H8.49052ZM5.65149 19.4058C5.7054 19.2468 5.79524 19.1231 5.88508 18.9817C6.17257 18.4515 6.54991 18.0096 6.96318 17.5854C7.25068 17.3027 7.53818 17.0199 7.86161 16.7724C8.18504 16.4897 8.52645 16.2246 8.86785 15.9771C9.37097 15.606 9.87409 15.2702 10.3952 14.9167C11.0061 14.4925 11.635 14.1214 12.2819 13.7502C12.2819 13.7856 12.2819 13.7856 12.2639 13.8032C12.0842 14.033 11.9045 14.2628 11.7428 14.4925C11.3834 15.0051 11.0241 15.5176 10.6647 16.0125C10.1975 16.6311 9.73034 17.2496 9.26316 17.8859C8.93973 18.3277 8.63427 18.7696 8.23896 19.1761C7.96943 19.4412 7.71786 19.7063 7.4124 19.9361C7.14287 20.1481 6.83742 20.3249 6.49601 20.3779C6.29836 20.4132 6.11867 20.3956 5.93898 20.2895C5.65149 20.1128 5.57961 19.7416 5.68742 19.4235L5.65149 19.4058Z" fill="#595757"/>
</svg>
