<svg width="35" height="25" viewBox="0 0 35 25" fill="none" xmlns="http://www.w3.org/2000/svg">
<path d="M0.0478475 3.07456C-0.0699278 3.67025 0.0478362 4.26595 0.20487 4.86164C0.538567 5.97617 1.06856 6.99462 1.77521 7.9362C2.06965 8.32052 2.32483 8.72406 2.56038 9.12759C2.85482 9.64643 2.99223 10.2037 3.12963 10.7802C3.22778 11.2029 3.34555 11.6257 3.46333 12.0292C3.67925 12.7978 4.18961 13.3359 4.89627 13.7202C5.54403 14.0853 6.25068 14.3351 6.99659 14.4504C7.03585 14.4504 7.0751 14.4696 7.15361 14.4889C6.81992 14.681 6.50585 14.8732 6.19179 15.0846C5.21033 15.7763 4.60182 16.7179 4.2485 17.8324C4.15035 18.1783 4.11109 18.5242 4.07183 18.8701C3.97368 19.8501 4.28775 20.7533 4.64108 21.6372C4.857 22.1945 5.11219 22.7517 5.44588 23.2706C5.95624 24.0969 6.72178 24.5772 7.66398 24.8078C8.17434 24.9231 8.70433 25 9.23432 25C10.7654 25 12.1787 24.5772 13.4153 23.6549C14.1416 23.1168 14.7305 22.4827 15.2801 21.7717C15.7905 21.1184 16.2812 20.4266 16.6934 19.7156C16.9093 19.3313 17.1056 18.947 17.243 18.5434C17.3215 18.7548 17.4001 18.8701 17.4982 18.8701C17.5767 18.8701 17.6749 18.7548 17.7534 18.5434C17.8908 18.947 18.0871 19.3505 18.303 19.7156C18.7152 20.4458 19.206 21.1184 19.7163 21.7717C20.2659 22.4635 20.8548 23.1168 21.5811 23.6549C22.8177 24.558 24.231 24.9808 25.7621 25C26.2921 25 26.8221 24.9424 27.3325 24.8078C28.2943 24.5772 29.0402 24.0969 29.5506 23.2706C29.8646 22.7517 30.1198 22.1945 30.3553 21.6372C30.7087 20.7533 31.0227 19.8501 30.9246 18.8701C30.8853 18.5242 30.8657 18.1783 30.7479 17.8324C30.3946 16.7179 29.7861 15.7763 28.8047 15.0846C28.4906 14.8732 28.1961 14.6618 27.8428 14.4889C27.9017 14.4889 27.941 14.4504 27.9998 14.4504C28.7458 14.3351 29.4328 14.0853 30.1002 13.7202C30.7872 13.3359 31.3172 12.7978 31.5331 12.0292C31.6509 11.6065 31.7687 11.2029 31.8668 10.7802C32.0042 10.2037 32.1416 9.64643 32.4361 9.12759C32.6716 8.72406 32.9464 8.32052 33.2212 7.9362C33.9279 6.99462 34.4775 5.97617 34.7916 4.86164C34.9682 4.26595 35.0664 3.67025 34.9486 3.07456C34.7523 2.05611 34.1831 1.28747 33.2801 0.76864C32.4753 0.307456 31.592 0.115296 30.6694 0.0384319C30.5124 0.0384319 30.3554 0.038432 30.1983 0C29.8646 0 29.5506 0 29.2169 0C29.1972 0.019216 29.158 0.0192155 29.1187 0.0192155C28.9028 0.0192155 28.7065 0.0576479 28.4906 0.0768639C27.8232 0.153728 27.1558 0.307455 26.5277 0.499615C25.5658 0.807071 24.6629 1.24904 23.7992 1.74865C22.6803 2.402 21.64 3.18985 20.6781 4.07379C20.2659 4.45811 19.893 4.86164 19.52 5.26518C19.0882 5.72636 18.676 6.20676 18.2834 6.70638C18.0871 6.95619 17.8908 7.22521 17.6945 7.49423C17.6356 7.35972 17.5571 7.28286 17.4982 7.28286C17.4393 7.28286 17.3608 7.35972 17.3019 7.49423C17.1056 7.22521 16.9093 6.9754 16.713 6.70638C16.3205 6.20676 15.9083 5.72636 15.4764 5.26518C15.1035 4.86164 14.7109 4.45811 14.3183 4.07379C13.3564 3.18985 12.3357 2.402 11.1972 1.74865C10.3336 1.24904 9.43061 0.787855 8.46878 0.499615C7.82102 0.307455 7.17325 0.153728 6.50586 0.0768639C6.28994 0.0576479 6.09365 0.0192155 5.87773 0.0192155C5.83847 0.0192155 5.7992 0.019216 5.77958 0C5.44588 0 5.13181 0 4.79811 0C4.64108 0.057648 4.48405 0.0384319 4.32702 0.0384319C3.40444 0.115296 2.52113 0.307456 1.71633 0.76864C0.813384 1.28747 0.24414 2.05611 0.0478475 3.07456ZM18.2441 13.0861C18.2441 11.5488 18.1656 10.146 18.0478 9.10838C18.5386 8.58955 19.0882 8.10915 19.6574 7.66718C21.0118 6.62952 22.4448 5.74558 23.9955 5.05381C25.0751 4.57341 26.1743 4.18909 27.3521 4.07379C27.9998 4.01614 28.6476 4.07379 29.2561 4.28516C29.8254 4.49654 30.2965 4.804 30.5517 5.36126C30.7283 5.74558 30.8461 6.14912 30.905 6.57187C30.9835 7.10992 30.8657 7.62875 30.6302 8.10915C30.2179 8.91622 29.6094 9.56956 28.9224 10.146C28.7654 10.2806 28.6672 10.3958 28.6869 10.6264C28.7065 11.1261 28.5495 11.6065 28.2943 12.0292C28.0587 12.3943 27.7447 12.721 27.4306 13.0092C26.9399 13.432 26.4099 13.8163 25.8406 14.1045C24.7021 14.7002 23.4655 14.95 22.1896 14.9885C21.8755 14.9885 21.5615 14.9885 21.2278 14.9885C21.3063 15.0461 21.3848 15.0461 21.4437 15.0653C22.5037 15.3344 23.5833 15.5842 24.5844 16.0261C25.3499 16.3528 26.0566 16.7563 26.6062 17.4097C27.1362 18.0438 27.4306 18.774 27.4306 19.6003C27.4306 20.2921 27.1558 20.8878 26.5865 21.3105C26.2528 21.5603 25.8603 21.6949 25.4284 21.6564C24.8592 21.5796 24.3292 21.3682 23.8384 21.0799C22.8177 20.5035 21.9148 19.754 21.0707 18.9277C20.4033 18.2744 19.7359 17.5826 19.0882 16.9101C18.8526 16.6603 18.6171 16.4105 18.4012 16.1414C18.3226 16.0453 18.2245 15.9493 18.146 15.8532C18.2049 15.0269 18.2441 14.1045 18.2441 13.1053V13.0861ZM4.44479 5.36126C4.69997 4.804 5.17108 4.49654 5.74032 4.28516C6.34883 4.05457 6.99658 4.01614 7.64434 4.07379C8.8221 4.16987 9.92133 4.57341 11.0009 5.05381C12.5516 5.74558 14.0042 6.62952 15.339 7.66718C15.9083 8.10915 16.4579 8.58955 16.9486 9.10838C16.8308 10.146 16.7523 11.5488 16.7523 13.0861C16.7523 14.0853 16.7916 15.0269 16.8505 15.834C16.7719 15.9301 16.6934 16.0261 16.5953 16.1222C16.3597 16.372 16.1438 16.641 15.9082 16.8909C15.2605 17.5634 14.5931 18.2552 13.9257 18.9085C13.1013 19.7348 12.1983 20.465 11.158 21.0607C10.6672 21.349 10.1373 21.5603 9.56801 21.6372C9.13617 21.6949 8.74358 21.5603 8.40988 21.2913C7.84064 20.8686 7.56583 20.2537 7.56583 19.5811C7.56583 18.774 7.84065 18.0438 8.39026 17.3905C8.93988 16.7371 9.64653 16.3528 10.4121 16.0069C11.4132 15.565 12.4928 15.3151 13.5527 15.0461C13.6116 15.0461 13.6901 15.0269 13.7687 14.9693C13.435 14.9693 13.1209 14.9693 12.8068 14.9693C11.5309 14.9308 10.2943 14.681 9.1558 14.0853C8.58655 13.7779 8.05656 13.4128 7.56583 12.99C7.23213 12.7018 6.9377 12.3751 6.70215 12.01C6.42734 11.5872 6.2703 11.1068 6.30956 10.6072C6.30956 10.3766 6.23105 10.2613 6.07402 10.1268C5.38699 9.55035 4.75885 8.897 4.36627 8.08993C4.13072 7.60953 4.01294 7.10992 4.09146 6.55265C4.15035 6.1299 4.2485 5.72636 4.44479 5.34204V5.36126Z" fill="#595757"/>
<path d="M27.2534 4.97656C28.5685 4.97656 29.6285 6.01423 29.6285 7.3017C29.6285 8.58917 28.5685 9.62683 27.2534 9.62683C25.9382 9.62683 24.8782 8.58917 24.8782 7.3017C24.8782 6.01423 25.9382 4.97656 27.2534 4.97656Z" fill="#595757"/>
<path d="M24.8787 17.4863C25.6835 17.4863 26.3313 18.1205 26.3313 18.9083C26.3313 19.6962 25.6835 20.3303 24.8787 20.3303C24.0739 20.3303 23.4261 19.6962 23.4261 18.9083C23.4261 18.1205 24.0739 17.4863 24.8787 17.4863Z" fill="#595757"/>
<path d="M7.54628 4.97656C8.86143 4.97656 9.92141 6.01423 9.92141 7.3017C9.92141 8.58917 8.86143 9.62683 7.54628 9.62683C6.23112 9.62683 5.17114 8.58917 5.17114 7.3017C5.17114 6.01423 6.23112 4.97656 7.54628 4.97656Z" fill="#595757"/>
<path d="M9.92112 20.3108C9.11633 20.3108 8.46857 19.6766 8.46857 18.8888C8.46857 18.1009 9.11633 17.4668 9.92112 17.4668C10.7259 17.4668 11.3737 18.1009 11.3737 18.8888C11.3737 19.6766 10.7259 20.3108 9.92112 20.3108Z" fill="#595757"/>
</svg>
