<svg width="48" height="40" viewBox="0 0 48 40" fill="none" xmlns="http://www.w3.org/2000/svg">
<path d="M6.8943 37.6495C7.52935 38.3467 8.29515 38.8788 9.17301 39.2641C9.90146 39.576 10.6486 39.7961 11.433 39.8512C11.8813 39.8879 12.3296 39.8879 12.7779 39.8145C13.3382 39.7411 13.8425 39.576 14.3281 39.3191C15.2994 38.787 16.0465 38.0164 16.7189 37.1541C17.5594 36.0716 18.2505 34.8973 18.8668 33.6864C19.3898 32.6589 19.8381 31.6131 20.3798 30.6039C20.9028 29.6132 21.4071 28.604 21.8553 27.5582C21.9487 27.3381 22.0421 27.1179 22.1542 26.861C22.1729 27.1913 22.1915 27.4848 22.2102 27.7784C22.2476 28.2004 22.3223 28.6224 22.3597 29.0444C22.4157 29.5398 22.4904 30.0168 22.6398 30.4755C22.7893 30.9342 22.976 31.3562 23.2936 31.7415C23.5551 32.0534 23.9659 32.0534 24.2461 31.7415C24.4702 31.503 24.601 31.2094 24.7318 30.9342C24.9372 30.4572 25.068 29.9618 25.1427 29.448C25.2174 28.9893 25.2734 28.5307 25.3481 28.0536C25.4041 27.6683 25.4228 27.3014 25.4602 26.8977C25.4975 26.9528 25.5162 27.0078 25.5349 27.0445C25.8898 27.9619 26.282 28.8426 26.7303 29.7233C27.1786 30.6039 27.6082 31.4846 28.0191 32.3837C28.6168 33.7231 29.2705 35.0257 30.0736 36.255C30.7087 37.2091 31.3811 38.1265 32.2777 38.8604C33.0808 39.5209 33.996 39.9246 35.042 39.9796C35.6397 40.0163 36.2187 40.0163 36.8164 39.8695C37.9744 39.6127 39.0391 39.1723 39.9356 38.4201C40.5707 37.888 41.1124 37.2642 41.5046 36.5302C41.9529 35.6496 42.2517 34.7322 42.3638 33.7598C42.4385 33.2093 42.4385 32.6405 42.3638 32.0901C42.2704 31.4479 42.0649 30.8425 41.8034 30.2553C41.5793 29.76 41.3365 29.2462 41.1123 28.7508C41.0003 28.5307 40.9816 28.3288 41.1123 28.0903C41.2618 27.7967 41.4112 27.4848 41.5606 27.1913C41.8595 26.6225 42.0089 25.9987 42.0462 25.3565C42.0836 24.8428 42.0089 24.329 41.9155 23.8336C41.6354 22.4209 40.9069 21.2099 39.9917 20.1091C39.8796 19.9623 39.7676 19.8339 39.6368 19.6871C39.9543 19.6504 40.2345 19.6137 40.5147 19.5586C41.1871 19.4119 41.8221 19.155 42.4011 18.8064C43.4097 18.2193 44.2316 17.4487 44.7733 16.4028C44.9787 16.0175 45.1095 15.6139 45.2962 15.2286C45.5017 14.7515 45.8379 14.3479 46.1181 13.9259C46.6224 13.1736 46.9586 12.348 47.052 11.449C47.108 10.8985 47.108 10.3664 47.0146 9.81601C46.9025 9.1555 46.6971 8.55002 46.2675 8.01794C46.118 7.83446 46.1181 7.66934 46.2301 7.46751C46.5103 6.95378 46.8092 6.44004 47.108 5.94465C47.7431 4.91718 48.1166 3.81632 47.9672 2.58702C47.9111 2.07329 47.7057 1.63294 47.3508 1.24764C47.1453 1.02747 46.8838 0.88069 46.6597 0.71556C46.3795 0.513736 46.0807 0.40365 45.7632 0.330259C45.5951 0.293564 45.4083 0.275216 45.2402 0.23852C45.0534 0.23852 44.8853 0.23852 44.6985 0.23852C44.6798 0.256868 44.6425 0.256868 44.6238 0.256868C44.2876 0.256868 43.9514 0.330259 43.6339 0.40365C41.7847 0.788951 40.1411 1.6146 38.6095 2.66042C37.4888 3.43102 36.4429 4.29336 35.3782 5.1557C34.8179 5.61439 34.2575 6.10978 33.7346 6.62352C32.894 7.41247 32.1095 8.23811 31.3624 9.10045C30.9515 9.57749 30.5406 10.0362 30.1671 10.5316C29.7188 11.082 29.2892 11.6508 28.897 12.2563C28.2806 13.1736 27.7015 14.1277 27.2346 15.1185C27.0665 15.4671 26.9544 15.8341 26.749 16.146C26.0952 17.2101 25.4975 18.2743 25.0679 19.4485C25.0306 19.5586 24.9746 19.632 24.8625 19.7421C24.8625 19.6137 24.8625 19.5219 24.8625 19.4119C25.0119 18.8614 25.18 18.311 25.3108 17.7422C25.4228 17.2468 25.4228 16.7698 25.236 16.2927C25.1053 15.9441 24.9186 15.6322 24.5824 15.4488C24.2088 15.2286 23.7979 15.2653 23.4056 15.3754C23.1255 15.4671 22.9013 15.6689 22.7519 15.9441C22.4344 16.5129 22.3596 17.1 22.5091 17.7422C22.6211 18.256 22.7519 18.7697 22.9013 19.3018C22.9386 19.4485 22.9573 19.577 22.92 19.7421C22.8266 19.632 22.7706 19.5403 22.7332 19.4302C22.4343 18.5679 22.0234 17.7606 21.5752 16.9533C21.3884 16.623 21.1456 16.2927 21.0149 15.9441C20.4172 14.4947 19.6326 13.1186 18.7548 11.8159C18.1944 10.9903 17.5781 10.2197 16.943 9.44906C16.4947 8.89863 16.0278 8.36655 15.5422 7.85281C14.8324 7.08221 14.0853 6.3483 13.3008 5.63274C12.7592 5.13735 12.1801 4.66031 11.6011 4.18327C10.91 3.61449 10.2376 3.06406 9.5092 2.55033C8.33249 1.72468 7.09975 1.00912 5.71758 0.550431C5.11988 0.348606 4.52218 0.183477 3.90581 0.0733907C3.71903 0.0366953 3.53223 0.0550431 3.36413 0C3.17735 0 3.00923 0 2.82245 0C2.7851 0.0366954 2.74775 0.0183481 2.71039 0.0183481C2.54229 0.0183481 2.37421 0.0550434 2.2061 0.0917388C1.79519 0.146782 1.45895 0.385302 1.12275 0.605474C0.637121 0.917385 0.30092 1.33938 0.132818 1.88981C-0.016606 2.3852 -0.0166015 2.88059 0.0207545 3.37598C0.0581105 3.77962 0.13285 4.16493 0.282274 4.55023C0.525088 5.17405 0.879969 5.74283 1.21617 6.32995C1.38427 6.62352 1.53372 6.93543 1.70182 7.22899C1.81389 7.41247 1.79515 7.55925 1.64573 7.74273C1.44027 7.9629 1.27221 8.23811 1.16014 8.51333C0.954684 8.99037 0.861289 9.5041 0.805255 10.0178C0.749221 10.605 0.805251 11.1921 0.917318 11.7609C1.06674 12.5131 1.40293 13.1736 1.83252 13.8158C2.11269 14.2562 2.43024 14.6782 2.61702 15.1552C2.74777 15.4854 2.87852 15.8157 3.02794 16.146C3.38282 16.8799 3.9058 17.4853 4.54085 17.9991C5.19458 18.5312 5.92299 18.9348 6.72615 19.21C7.17442 19.3568 7.64141 19.4302 8.10836 19.4852C8.10836 19.5036 8.10836 19.5219 8.10836 19.5219C7.79083 19.8705 7.51066 20.2192 7.23049 20.5861C6.31527 21.7787 5.75492 23.1181 5.64285 24.6226C5.58681 25.2831 5.66151 25.962 5.92301 26.5858C6.10979 27.0261 6.31526 27.4665 6.52071 27.9068C6.63278 28.127 6.59543 28.3288 6.52071 28.5307C6.31526 28.9527 6.10982 29.3747 5.90437 29.7966C5.38138 30.8792 5.04513 32.0167 5.1572 33.246C5.21324 33.8331 5.30663 34.4019 5.45606 34.9523C5.7549 35.9615 6.20317 36.8605 6.91294 37.6495H6.8943ZM40.9816 12.0361C40.0664 12.6966 39.0951 13.247 38.0865 13.7424C37.1339 14.2195 36.144 14.6415 35.1914 15.1001C34.1828 15.5772 33.1742 16.0175 32.1282 16.4028C30.8768 16.8799 29.6254 17.3569 28.3926 17.8706C28.3366 17.889 28.2432 17.9624 28.2058 17.9257C28.1498 17.8523 28.2058 17.7606 28.2619 17.7055C29.1958 16.3111 30.1671 14.9534 31.2317 13.669C31.8481 12.9168 32.4831 12.2012 33.1368 11.4673C33.5664 10.9903 33.9961 10.5316 34.4443 10.0729C35.3409 9.1188 36.2747 8.18307 37.3207 7.39412C37.9931 6.88038 38.6655 6.42169 39.45 6.09143C40.0104 5.85291 40.5894 5.70613 41.2058 5.68778C41.3925 5.68778 41.5793 5.70613 41.7661 5.76117C42.756 5.98135 43.3724 6.82534 43.4097 7.83446C43.4097 8.29316 43.3537 8.75185 43.2043 9.19219C42.7933 10.3848 42.0089 11.3022 40.9816 12.0544V12.0361ZM36.1066 17.7422C35.8078 17.7422 35.5276 17.7422 35.2288 17.7422C34.6684 17.7055 34.1268 17.6321 33.5851 17.5954C33.473 17.5954 33.4731 17.5404 33.5104 17.467C33.5665 17.3386 33.6785 17.3019 33.7719 17.2468C34.519 16.8615 35.2474 16.4579 35.9759 16.0175C36.5362 15.6873 37.1339 15.4121 37.7316 15.1735C38.5721 14.8249 39.394 14.4396 40.3092 14.3295C40.7201 14.2745 41.131 14.2562 41.5232 14.3479C42.0649 14.4947 42.4198 14.8983 42.3264 15.5038C42.2517 15.9808 41.9715 16.3478 41.5793 16.6414C41.2057 16.9166 40.7761 17.1184 40.3092 17.2652C39.4313 17.5587 38.4974 17.6321 37.5822 17.7239C37.0966 17.7789 36.5923 17.7789 36.1066 17.7606V17.7422ZM35.1914 24.8061C34.5377 24.3474 33.9213 23.852 33.2862 23.375C32.4831 22.7878 31.7173 22.1824 30.9702 21.5218C30.5406 21.1549 30.0923 20.8246 29.6067 20.5311C29.1024 20.2375 28.5794 20.0173 27.9817 19.8522C28.2432 19.7605 28.5047 19.6871 28.7288 19.577C29.5506 19.2284 30.4099 19.1183 31.2877 19.155C31.5492 19.155 31.7921 19.1917 32.0536 19.21C32.5205 19.2651 32.9874 19.3385 33.4544 19.4669C34.8552 19.8339 36.0132 20.6228 37.0779 21.5585C37.5448 21.9622 37.9745 22.4025 38.348 22.8796C38.7216 23.3383 39.0204 23.8336 39.1699 24.4024C39.2632 24.7877 39.3006 25.1547 39.0764 25.5216C38.8523 25.9069 38.4041 26.0354 38.0492 26.017C37.825 25.9987 37.5822 25.9436 37.3581 25.8702C36.5549 25.6501 35.8638 25.2648 35.1914 24.7877V24.8061ZM32.5952 28.182C31.8294 27.1362 31.0449 26.1088 30.2978 25.0446C29.7188 24.2006 29.1585 23.3383 28.5421 22.531C28.4113 22.3658 28.2806 22.1824 28.1685 22.0172C28.1685 22.0172 28.1685 22.0172 28.1872 21.9989C28.7102 22.3108 29.2331 22.6227 29.7374 22.953C30.8768 23.6869 31.9788 24.4758 33.0808 25.2648C33.6225 25.6501 34.1268 26.0537 34.6311 26.4757C35.0046 26.7693 35.3595 27.0812 35.6957 27.4114C36.3308 27.9986 36.9098 28.604 37.4515 29.2829C37.825 29.76 38.1238 30.2737 38.4227 30.8058C38.5721 31.0443 38.6655 31.3012 38.6655 31.5947C38.6655 32.2002 38.2733 32.7323 37.5262 32.7139C37.0592 32.7139 36.6483 32.5305 36.2561 32.2736C35.7331 31.9433 35.2848 31.5397 34.8552 31.081C34.3136 30.5306 33.7906 29.9618 33.361 29.338C33.0995 28.9527 32.8567 28.5857 32.5765 28.2004L32.5952 28.182ZM29.2519 28.2738C28.9343 27.4481 28.6915 26.6225 28.4487 25.7785C28.3366 25.3749 28.2245 24.9896 28.1498 24.5492C28.2058 24.6043 28.2245 24.6226 28.2432 24.6409C28.5794 25.0079 28.9156 25.3565 29.2519 25.7235C29.7748 26.3106 30.2978 26.8977 30.7834 27.5215C31.5118 28.4389 32.2403 29.393 32.894 30.3654C33.417 31.136 33.8092 31.9617 33.996 32.8607C34.0521 33.1359 34.1081 33.4295 34.0334 33.7047C33.9213 34.1634 33.5291 34.3652 33.0808 34.2184C32.7446 34.1084 32.4831 33.8698 32.2403 33.6313C31.6239 33.0075 31.157 32.3103 30.7461 31.5397C30.4472 30.9525 30.1857 30.3654 29.9055 29.7783C29.6814 29.2829 29.4386 28.7875 29.2332 28.2738H29.2519ZM6.44599 14.0176C7.08104 13.9626 7.71609 14.0543 8.31379 14.2745C9.34108 14.6415 10.3497 15.0635 11.321 15.5955C11.8626 15.8891 12.3669 16.201 12.8899 16.5129C13.2448 16.7147 13.6183 16.9166 13.9732 17.1184C14.0666 17.1734 14.16 17.2285 14.216 17.3386C14.2347 17.412 14.216 17.4487 14.1413 17.4487C13.8425 17.467 13.5623 17.5037 13.2634 17.522C12.7031 17.5771 12.1615 17.5954 11.6011 17.5954C11.5451 17.5954 11.4891 17.5954 11.433 17.5954C10.8914 17.5954 10.331 17.5587 9.78936 17.5037C9.37845 17.4487 8.94883 17.3936 8.53791 17.3202C7.82815 17.1918 7.13707 17.0083 6.50202 16.6597C6.10978 16.4395 5.75494 16.1643 5.54948 15.7607C5.3627 15.4304 5.28797 15.0818 5.41872 14.7332C5.58682 14.2745 5.97904 14.091 6.44599 14.036V14.0176ZM19.5393 17.8523C19.5393 17.8523 19.4272 17.834 19.3525 17.8156C18.624 17.5037 17.8956 17.1734 17.1485 16.8982C15.7663 16.3661 14.4028 15.8341 13.058 15.1919C12.1988 14.7699 11.3396 14.3662 10.4617 13.9442C9.34106 13.4122 8.23908 12.8067 7.21179 12.1095C6.42732 11.559 5.69888 10.9536 5.1759 10.1463C4.67159 9.37567 4.37276 8.56837 4.37276 7.59594C4.37276 7.46751 4.39143 7.28403 4.42879 7.10056C4.54086 6.58682 4.80234 6.14648 5.23193 5.81622C5.77359 5.41257 6.38995 5.33918 7.025 5.43092C7.64137 5.50431 8.20174 5.72448 8.7434 5.9997C9.77069 6.55013 10.6673 7.24734 11.5078 8.03629C12.2362 8.71515 12.9273 9.44906 13.5997 10.183C14.2161 10.8618 14.8324 11.5407 15.4301 12.2196C15.897 12.77 16.364 13.3204 16.7936 13.8709C17.466 14.7148 18.101 15.5955 18.6987 16.4946C18.9602 16.8799 19.2031 17.2468 19.4645 17.6321C19.5019 17.7055 19.5579 17.7789 19.5206 17.8523H19.5393ZM22.7519 27.0261C22.7519 26.2922 22.7519 25.54 22.7892 24.8061C22.8266 24.1089 22.8639 23.3933 22.9573 22.6961C23.0134 22.2007 23.1068 21.7053 23.2001 21.2099C23.2562 20.9531 23.387 20.7329 23.3496 20.4393C23.2562 19.8522 23.2375 19.2467 23.2562 18.6963C23.2562 18.4394 23.2562 18.2193 23.2562 18.0174C23.2562 17.7606 23.2935 17.5037 23.3682 17.2468C23.4616 16.9533 23.5924 16.8615 23.8912 16.8615C24.1154 16.8615 24.2461 16.99 24.3395 17.2468C24.4142 17.5037 24.4329 17.7606 24.4516 18.0174C24.4516 18.8247 24.4516 19.632 24.3395 20.421C24.3209 20.6045 24.3395 20.7512 24.3956 20.9164C24.3956 20.9531 24.4142 20.9898 24.4329 21.0448C24.601 21.7787 24.6944 22.5126 24.7691 23.2465C24.8251 23.8336 24.8438 24.4024 24.8625 24.9896C24.8625 25.4299 24.8812 25.8702 24.8625 26.3289C24.8625 27.0078 24.8252 27.705 24.6944 28.3839C24.6384 28.6774 24.5823 28.971 24.3956 29.2095C24.2648 29.4113 24.078 29.4664 23.8539 29.4297C23.7979 29.4297 23.7605 29.4297 23.7231 29.4297C23.4803 29.4847 23.3122 29.4113 23.1628 29.1912C23.0694 29.0444 23.0134 28.8976 22.976 28.7325C22.8266 28.1637 22.7893 27.5949 22.7706 27.0078L22.7519 27.0261ZM16.7189 21.4484C16.3266 21.7787 15.9531 22.0906 15.5422 22.4025C14.9258 22.8612 14.3094 23.3199 13.6744 23.7603C13.1514 24.1456 12.6471 24.5492 12.0868 24.8795C11.4144 25.2831 10.742 25.6317 9.97615 25.7785C9.71466 25.8335 9.47184 25.9069 9.21035 25.8335C8.70604 25.7235 8.3138 25.2464 8.33248 24.7877C8.35116 24.4208 8.44452 24.0538 8.59394 23.7236C8.87411 23.0814 9.34107 22.5677 9.8267 22.0723C10.4244 21.4668 11.0781 20.9347 11.7692 20.4577C13.1514 19.5036 14.683 19.0632 16.364 19.0449C16.6628 19.0449 16.9804 19.0449 17.2793 19.0816C17.5221 19.0999 17.7648 19.1183 17.989 19.1733C18.568 19.3385 19.147 19.5586 19.7447 19.7788C19.7074 19.7788 19.7074 19.7788 19.6887 19.7788C18.5493 20.0724 17.5967 20.6778 16.7189 21.4118V21.4484ZM13.4689 33.6313C13.3942 33.3561 13.4689 33.0809 13.5063 32.824C13.6744 32.0534 13.9919 31.3562 14.4215 30.6773C14.8511 29.9801 15.3554 29.3563 15.841 28.7141C16.42 27.9435 17.0364 27.2096 17.6715 26.4757C18.1758 25.8886 18.7174 25.3382 19.2404 24.7877C19.3151 24.696 19.4085 24.6043 19.5206 24.5309C19.5206 24.5676 19.5206 24.5859 19.5206 24.6043C19.3898 25.2281 19.1844 25.8335 18.9976 26.439C18.7921 27.0812 18.5867 27.7234 18.3252 28.3472C17.989 29.1545 17.5781 29.9251 17.2045 30.714C16.7189 31.7599 16.1399 32.7323 15.318 33.5579C15.0939 33.7781 14.8511 34.0166 14.5522 34.1451C14.0479 34.3469 13.6184 34.1817 13.4876 33.6313H13.4689ZM8.9115 31.0259C9.00488 30.7691 9.15433 30.5672 9.28508 30.3287C9.75203 29.4847 10.3497 28.7692 11.0221 28.0903C11.4704 27.6316 11.956 27.1913 12.4417 26.7693C12.9646 26.3289 13.5063 25.9069 14.0479 25.5033C14.8511 24.9162 15.6729 24.3657 16.4948 23.797C17.466 23.1181 18.4746 22.531 19.5206 21.9255C19.5206 21.9805 19.5019 21.9989 19.4832 22.0172C19.2031 22.3842 18.9042 22.7511 18.6427 23.1364C18.0637 23.9437 17.5034 24.7694 16.9057 25.5767C16.1772 26.5858 15.3927 27.5582 14.6643 28.5674C14.1413 29.2829 13.637 29.9985 13.0207 30.6223C12.5911 31.0443 12.1801 31.4846 11.6945 31.8332C11.2462 32.1635 10.7793 32.4754 10.219 32.5488C9.90145 32.5855 9.60258 32.5855 9.32241 32.402C8.85546 32.1085 8.72472 31.5397 8.9115 31.0076V31.0259Z" fill="white"/>
</svg>
