<svg width="32" height="25" viewBox="0 0 32 25" fill="none" xmlns="http://www.w3.org/2000/svg">
<path d="M1.46638 10.0037C2.90479 11.9441 5.16516 13.0933 7.53762 13.5831C6.08052 14.7135 4.88495 16.1829 4.39925 17.9538C3.74543 20.3087 4.56738 23.1723 6.67831 24.378C8.35957 25.3388 10.5452 25.1316 12.2078 24.1331C13.6275 23.2853 14.6923 21.9666 15.4396 20.4971C15.6077 21.4579 15.8132 22.0043 16.0374 22.0043C16.2615 22.0043 16.467 21.4391 16.6351 20.4971C17.4011 21.9666 18.4659 23.3042 19.8669 24.1331C21.5295 25.1316 23.7151 25.3388 25.3964 24.378C27.5073 23.1535 28.3293 20.3087 27.6755 17.9538C27.1898 16.1829 25.9942 14.6946 24.5371 13.5831C26.9096 13.0933 29.1699 11.9253 30.6083 10.0037C32.2709 7.76178 32.5698 4.38955 30.8138 2.20419C29.4128 0.470982 27.003 -0.207232 24.8173 0.150714C22.6317 0.50866 20.6889 1.78973 19.1384 3.39107C18.1857 4.37071 17.3824 5.46339 16.6165 6.57491C16.5417 6.1416 16.4483 5.78366 16.3549 5.51991L18.0175 1.65786C18.0175 1.65786 18.1109 1.65786 18.1483 1.65786C18.5966 1.65786 18.9702 1.28107 18.9702 0.828928C18.9702 0.376785 18.5966 0 18.1483 0C17.7 0 17.3263 0.376785 17.3263 0.828928C17.3263 1.13036 17.4945 1.41295 17.756 1.54482L16.2055 5.16196C16.1494 5.06776 16.0747 5.01125 16 5.01125C15.9253 5.01125 15.8692 5.06776 15.7945 5.16196L14.244 1.54482C14.4869 1.41295 14.6737 1.13036 14.6737 0.828928C14.6737 0.376785 14.3187 0 13.8517 0C13.4034 0 13.0298 0.357946 13.0298 0.828928C13.0298 1.28107 13.3847 1.65786 13.8517 1.65786C13.8891 1.65786 13.9451 1.65786 13.9825 1.65786L15.6451 5.51991C15.5517 5.78366 15.4769 6.1416 15.3835 6.57491C14.6176 5.44455 13.8143 4.35187 12.8616 3.39107C11.3111 1.80857 9.36834 0.527499 7.18269 0.150714C4.99705 -0.207232 2.58722 0.470982 1.18616 2.20419C-0.569826 4.37071 -0.270933 7.76178 1.39165 10.0037H1.46638ZM12.899 7.91249C12.6375 8.10089 12.2825 8.04437 12.1144 7.78062C11.9276 7.51687 11.9836 7.15892 12.2452 6.98937C12.5067 6.80098 12.8616 6.85749 13.0298 7.12124C13.1979 7.38499 13.1605 7.74294 12.899 7.91249ZM9.03208 16.3336C8.78923 16.3336 8.58375 16.1264 8.58375 15.8815C8.58375 15.6366 8.78923 15.4294 9.03208 15.4294C9.27493 15.4294 9.48042 15.6366 9.48042 15.8815C9.48042 16.1264 9.27493 16.3336 9.03208 16.3336ZM10.0595 17.7843C9.81667 17.7843 9.61118 17.577 9.61118 17.3321C9.61118 17.0872 9.81667 16.88 10.0595 16.88C10.3024 16.88 10.5079 17.0872 10.5079 17.3321C10.5079 17.577 10.3024 17.7843 10.0595 17.7843ZM10.9375 16.3336C10.6947 16.3336 10.4892 16.1264 10.4892 15.8815C10.4892 15.6366 10.6947 15.4294 10.9375 15.4294C11.1804 15.4294 11.3859 15.6366 11.3859 15.8815C11.3859 16.1264 11.1804 16.3336 10.9375 16.3336ZM11.965 17.7843C11.7221 17.7843 11.5166 17.577 11.5166 17.3321C11.5166 17.0872 11.7221 16.88 11.965 16.88C12.2078 16.88 12.4133 17.0872 12.4133 17.3321C12.4133 17.577 12.2078 17.7843 11.965 17.7843ZM12.843 16.3336C12.6001 16.3336 12.3946 16.1264 12.3946 15.8815C12.3946 15.6366 12.6001 15.4294 12.843 15.4294C13.0858 15.4294 13.2913 15.6366 13.2913 15.8815C13.2913 16.1264 13.0858 16.3336 12.843 16.3336ZM19.8856 6.98937C20.1471 7.17776 20.2032 7.53571 20.0164 7.78062C19.8296 8.02553 19.4746 8.10089 19.2318 7.91249C18.9702 7.7241 18.9142 7.36615 19.101 7.12124C19.2878 6.85749 19.6427 6.80098 19.8856 6.98937ZM24.0701 4.76634C23.1361 5.50107 21.9591 5.55758 21.4548 4.89821C20.9317 4.23884 21.2867 3.10848 22.202 2.37375C23.1361 1.63902 24.3129 1.5825 24.8173 2.24187C25.3404 2.90125 24.9854 4.0316 24.0701 4.76634ZM21.1932 6.38651C21.38 6.12276 21.735 6.06624 21.9778 6.25464C22.2394 6.44303 22.2954 6.80098 22.1086 7.04589C21.9218 7.2908 21.5669 7.36615 21.324 7.17776C21.0625 6.98937 21.0064 6.63142 21.1932 6.38651ZM21.9592 9.19356C21.7723 9.45731 21.4174 9.51383 21.1746 9.32544C20.913 9.13705 20.857 8.7791 21.0438 8.53419C21.2306 8.27044 21.5856 8.21392 21.8284 8.40231C22.0899 8.59071 22.146 8.94865 21.9592 9.19356ZM23.1361 7.78062C23.3229 7.51687 23.6778 7.46035 23.9206 7.64874C24.1822 7.83714 24.2382 8.19508 24.0514 8.43999C23.8646 8.70374 23.5097 8.76026 23.2668 8.57187C23.0053 8.38347 22.9492 8.02553 23.1361 7.78062ZM29.1139 8.60955C28.6282 8.36464 28.5348 7.61106 28.871 6.93285C29.2073 6.25464 29.8798 5.89669 30.3468 6.12276C30.8325 6.36767 30.9259 7.12124 30.5896 7.79946C30.2534 8.47767 29.5809 8.83562 29.1139 8.60955ZM27.993 8.45883C28.348 8.45883 28.6469 8.8733 28.6469 9.38196C28.6469 9.89062 28.348 10.3051 27.993 10.3051C27.6381 10.3051 27.3392 9.89062 27.3392 9.38196C27.3392 8.8733 27.6381 8.45883 27.993 8.45883ZM27.582 6.46187C26.4052 6.46187 25.4338 5.50107 25.4338 4.29535C25.4338 3.10848 26.3865 2.12884 27.582 2.12884C28.7589 2.12884 29.7304 3.08964 29.7304 4.29535C29.7304 5.48223 28.7776 6.46187 27.582 6.46187ZM23.08 16.3336C22.8372 16.3336 22.6317 16.1264 22.6317 15.8815C22.6317 15.6366 22.8372 15.4294 23.08 15.4294C23.3229 15.4294 23.5283 15.6366 23.5283 15.8815C23.5283 16.1264 23.3229 16.3336 23.08 16.3336ZM26.3865 19.1595C25.9195 19.4233 25.247 19.103 24.8547 18.4436C24.4811 17.7843 24.5371 17.0307 25.0041 16.7481C25.4711 16.4844 26.1436 16.8046 26.5359 17.464C26.9095 18.1234 26.8535 18.8769 26.3865 19.1595ZM21.9031 21.4202C21.9031 20.2334 22.8558 19.2537 24.0514 19.2537C25.2283 19.2537 26.1997 20.2145 26.1997 21.4202C26.1997 22.6071 25.247 23.5868 24.0514 23.5868C22.8745 23.5868 21.9031 22.626 21.9031 21.4202ZM20.7262 22.3622C21.0251 22.1927 21.3801 22.2492 21.5295 22.5129C21.679 22.7767 21.5482 23.1158 21.2493 23.3042C20.9504 23.4737 20.5955 23.4172 20.446 23.1535C20.2966 22.8897 20.4273 22.5506 20.7262 22.3622ZM20.3713 20.9493C20.6702 20.7797 21.0251 20.8362 21.1746 21.1C21.324 21.3637 21.1933 21.7028 20.8944 21.8912C20.5955 22.0796 20.2405 22.0043 20.0911 21.7405C19.9416 21.4768 20.0724 21.1377 20.3713 20.9493ZM22.0712 16.88C22.3141 16.88 22.5196 17.0872 22.5196 17.3321C22.5196 17.577 22.3141 17.7843 22.0712 17.7843C21.8284 17.7843 21.6229 17.577 21.6229 17.3321C21.6229 17.0872 21.8284 16.88 22.0712 16.88ZM25.2096 9.96597C24.9481 9.77758 24.892 9.41964 25.0788 9.17472C25.2656 8.92981 25.6206 8.85446 25.8634 9.04285C26.125 9.23124 26.181 9.58919 25.9942 9.8341C25.8074 10.0978 25.4525 10.1544 25.2096 9.96597ZM21.1932 16.3336C20.9504 16.3336 20.7449 16.1264 20.7449 15.8815C20.7449 15.6366 20.9504 15.4294 21.1932 15.4294C21.4361 15.4294 21.6416 15.6366 21.6416 15.8815C21.6416 16.1264 21.4361 16.3336 21.1932 16.3336ZM20.1658 16.88C20.4086 16.88 20.6141 17.0872 20.6141 17.3321C20.6141 17.577 20.4086 17.7843 20.1658 17.7843C19.9229 17.7843 19.7175 17.577 19.7175 17.3321C19.7175 17.0872 19.9229 16.88 20.1658 16.88ZM22.9679 9.90945C23.1547 9.64571 23.5097 9.58919 23.7525 9.77758C23.9954 9.96597 24.0701 10.3239 23.8833 10.5688C23.6965 10.8137 23.3415 10.8891 23.0987 10.7007C22.8372 10.5123 22.7811 10.1544 22.9679 9.90945ZM19.2878 16.3336C19.045 16.3336 18.8395 16.1264 18.8395 15.8815C18.8395 15.6366 19.045 15.4294 19.2878 15.4294C19.5307 15.4294 19.7361 15.6366 19.7361 15.8815C19.7361 16.1264 19.5307 16.3336 19.2878 16.3336ZM17.812 17.3321C17.812 17.0872 18.0175 16.88 18.2604 16.88C18.5032 16.88 18.7087 17.0872 18.7087 17.3321C18.7087 17.577 18.5032 17.7843 18.2604 17.7843C18.0175 17.7843 17.812 17.577 17.812 17.3321ZM13.833 16.88C14.0759 16.88 14.2814 17.0872 14.2814 17.3321C14.2814 17.577 14.0759 17.7843 13.833 17.7843C13.5902 17.7843 13.3847 17.577 13.3847 17.3321C13.3847 17.0872 13.5902 16.88 13.833 16.88ZM10.5639 22.5129C10.7134 22.2492 11.0683 22.1927 11.3672 22.3622C11.6661 22.5318 11.7782 22.8897 11.6474 23.1535C11.4979 23.4172 11.143 23.4737 10.8441 23.3042C10.5452 23.1346 10.4331 22.7767 10.5639 22.5129ZM10.9188 21.1C11.0683 20.8362 11.4232 20.7797 11.7221 20.9493C12.021 21.1188 12.1331 21.4768 12.0023 21.7405C11.8529 22.0043 11.4979 22.0608 11.199 21.8912C10.9002 21.7217 10.7881 21.3637 10.9188 21.1ZM8.04201 19.2537C9.21889 19.2537 10.1903 20.2145 10.1903 21.4202C10.1903 22.6071 9.23757 23.5868 8.04201 23.5868C6.86512 23.5868 5.89372 22.626 5.89372 21.4202C5.89372 20.2334 6.84644 19.2537 8.04201 19.2537ZM5.55746 17.464C5.93108 16.8046 6.62227 16.4844 7.08929 16.7481C7.5563 17.0119 7.61235 17.7654 7.23873 18.4436C6.86512 19.1219 6.17393 19.4233 5.70691 19.1595C5.2399 18.8958 5.18385 18.1422 5.55746 17.464ZM10.2837 8.36464C10.5452 8.17624 10.9002 8.23276 11.0683 8.49651C11.2551 8.76026 11.199 9.11821 10.9375 9.28776C10.676 9.47615 10.3211 9.41963 10.1529 9.15588C9.9848 8.89214 10.0222 8.53419 10.2837 8.36464ZM8.34089 9.75874C8.60242 9.57035 8.95735 9.62687 9.12548 9.89062C9.29361 10.1544 9.25625 10.5123 8.99471 10.6819C8.73318 10.8703 8.37825 10.8137 8.21013 10.55C8.042 10.2862 8.07936 9.92829 8.34089 9.75874ZM10.1342 6.2358C10.3958 6.04741 10.7507 6.10392 10.9188 6.36767C11.1057 6.63142 11.0496 6.98937 10.7881 7.15892C10.5265 7.34731 10.1716 7.2908 10.0035 7.02705C9.81667 6.7633 9.87271 6.40535 10.1342 6.2358ZM8.19144 7.6299C8.45297 7.44151 8.80792 7.49803 8.97604 7.76178C9.16285 8.02553 9.10681 8.38348 8.84528 8.55303C8.58375 8.74142 8.2288 8.6849 8.06068 8.42115C7.89255 8.1574 7.92991 7.79946 8.19144 7.6299ZM6.24866 9.02401C6.51019 8.83562 6.86512 8.89214 7.03325 9.15588C7.22005 9.41963 7.16401 9.77758 6.90248 9.94713C6.64095 10.1355 6.28602 10.079 6.11789 9.81526C5.93109 9.55151 5.98713 9.19356 6.24866 9.02401ZM8.06068 4.7475C7.12664 4.01276 6.7904 2.88241 7.31346 2.22303C7.83652 1.56366 8.99471 1.62018 9.92875 2.35491C10.8628 3.08964 11.199 4.22 10.676 4.87937C10.1529 5.53874 8.99471 5.48223 8.06068 4.7475ZM4.11904 8.43999C4.47397 8.43999 4.77288 8.85446 4.77288 9.36312C4.77288 9.87178 4.47397 10.2862 4.11904 10.2862C3.76411 10.2862 3.46522 9.87178 3.46522 9.36312C3.46522 8.85446 3.76411 8.43999 4.11904 8.43999ZM1.76528 6.10392C2.25098 5.85901 2.9048 6.21696 3.24106 6.91401C3.57731 7.59222 3.46522 8.3458 2.9982 8.59071C2.53118 8.83562 1.85867 8.47767 1.52242 7.78062C1.18616 7.1024 1.29826 6.34883 1.76528 6.10392ZM4.53002 2.11C5.7069 2.11 6.67831 3.0708 6.67831 4.27651C6.67831 5.48223 5.72559 6.44303 4.53002 6.44303C3.33445 6.44303 2.38174 5.48223 2.38174 4.27651C2.38174 3.08964 3.33445 2.11 4.53002 2.11Z" fill="#595757"/>
</svg>
