<svg width="905" height="46" viewBox="0 0 905 46" fill="none" xmlns="http://www.w3.org/2000/svg">
<path d="M11.627 30.1367C12.666 30.1367 13.6185 30.0273 14.4844 29.8086C15.3503 29.5807 16.1159 29.2526 16.7812 28.8242C17.4466 28.3867 18.0117 27.9492 18.4766 27.5117C18.9505 27.0651 19.4427 26.5273 19.9531 25.8984L20.1035 26.0215C19.6934 26.5501 19.306 27.0104 18.9414 27.4023C18.5768 27.7852 18.1348 28.1771 17.6152 28.5781C17.1048 28.9701 16.5716 29.2936 16.0156 29.5488C15.4688 29.7949 14.8171 29.9954 14.0605 30.1504C13.3132 30.3053 12.502 30.3828 11.627 30.3828C10.196 30.3828 8.85612 30.1595 7.60742 29.7129C6.35872 29.2663 5.26497 28.6237 4.32617 27.7852C3.38737 26.9466 2.64453 25.8802 2.09766 24.5859C1.5599 23.2826 1.29102 21.8333 1.29102 20.2383C1.29102 18.862 1.56445 17.5495 2.11133 16.3008C2.6582 15.043 3.39193 13.9629 4.3125 13.0605C5.23307 12.1491 6.33138 11.429 7.60742 10.9004C8.88346 10.3626 10.2233 10.0938 11.627 10.0938C12.7572 10.0938 13.7871 10.2305 14.7168 10.5039C15.6556 10.7773 16.4759 11.1829 17.1777 11.7207C17.8796 12.2493 18.4264 12.9466 18.8184 13.8125C19.2103 14.6693 19.4062 15.6536 19.4062 16.7656H19.1602H14.4297V16.5332C15.1589 16.0866 15.6829 15.5762 16.002 15.002C16.3301 14.4186 16.444 13.8626 16.3438 13.334C16.2435 12.7962 16.0202 12.2995 15.6738 11.8438C15.3366 11.3789 14.8717 11.0098 14.2793 10.7363C13.6868 10.4629 13.0625 10.3262 12.4062 10.3262C11.4128 10.3262 10.4967 10.4948 9.6582 10.832C8.81966 11.1693 8.09961 11.6387 7.49805 12.2402C6.9056 12.8418 6.39974 13.5573 5.98047 14.3867C5.5612 15.2161 5.24674 16.123 5.03711 17.1074C4.83659 18.0918 4.73633 19.1354 4.73633 20.2383C4.73633 21.8516 4.91406 23.2962 5.26953 24.5723C5.63411 25.8483 6.13086 26.8874 6.75977 27.6895C7.38867 28.4915 8.11328 29.1022 8.93359 29.5215C9.76302 29.9316 10.6608 30.1367 11.627 30.1367ZM27.541 10.8867C28.8171 10.349 30.1569 10.0801 31.5605 10.0801C32.9642 10.0801 34.2995 10.349 35.5664 10.8867C36.8424 11.4154 37.9408 12.1354 38.8613 13.0469C39.7819 13.9492 40.5156 15.0293 41.0625 16.2871C41.6094 17.5358 41.8828 18.8483 41.8828 20.2246C41.8828 21.6009 41.6094 22.918 41.0625 24.1758C40.5156 25.4245 39.7819 26.5046 38.8613 27.416C37.9408 28.3184 36.8424 29.0384 35.5664 29.5762C34.2995 30.1048 32.9642 30.3691 31.5605 30.3691C30.1569 30.3691 28.8171 30.1048 27.541 29.5762C26.265 29.0384 25.1667 28.3184 24.2461 27.416C23.3255 26.5046 22.5918 25.4245 22.0449 24.1758C21.498 22.918 21.2246 21.6009 21.2246 20.2246C21.2246 18.8483 21.498 17.5358 22.0449 16.2871C22.5918 15.0293 23.3255 13.9492 24.2461 13.0469C25.1667 12.1354 26.265 11.4154 27.541 10.8867ZM28.1016 28.7969C29.1589 29.681 30.3118 30.123 31.5605 30.123C32.8092 30.123 33.9622 29.681 35.0195 28.7969C36.0768 27.9128 36.9108 26.7142 37.5215 25.2012C38.1413 23.679 38.4512 22.0202 38.4512 20.2246C38.4512 18.429 38.1413 16.7702 37.5215 15.248C36.9108 13.7259 36.0768 12.5228 35.0195 11.6387C33.9622 10.7546 32.8092 10.3125 31.5605 10.3125C30.3118 10.3125 29.1589 10.7546 28.1016 11.6387C27.0443 12.5228 26.2057 13.7259 25.5859 15.248C24.9753 16.7702 24.6699 18.429 24.6699 20.2246C24.6699 22.0202 24.9753 23.679 25.5859 25.2012C26.2057 26.7142 27.0443 27.9128 28.1016 28.7969ZM58.248 16.998V27.2656L60.1758 30H56.7441L45.0137 13.3477V20.2383C45.0137 21.1771 45.0866 22.084 45.2324 22.959C45.3874 23.8249 45.6335 24.6999 45.9707 25.584C46.3079 26.459 46.7956 27.2656 47.4336 28.0039C48.0807 28.7331 48.8509 29.321 49.7441 29.7676V30H44.7676H43.5918V29.7676C44.3757 29.2845 44.7676 27.1882 44.7676 23.4785V13.0059L42.9902 10.4766H46.4219L58.002 26.9238V20.2383C58.002 19.5 57.9564 18.7845 57.8652 18.0918C57.7832 17.3991 57.6328 16.679 57.4141 15.9316C57.1953 15.1842 56.9128 14.4961 56.5664 13.8672C56.2201 13.2383 55.7643 12.6458 55.1992 12.0898C54.6432 11.5339 54.0052 11.0736 53.2852 10.709V10.4766H58.248H59.4375V10.709C58.6445 11.1921 58.248 13.2884 58.248 16.998ZM61.0371 10.4766H79.4395V10.709V15.3574H79.1934C78.6283 14.4733 78.0039 13.7077 77.3203 13.0605C76.6458 12.4134 75.985 11.9303 75.3379 11.6113C74.6999 11.2923 74.1211 11.0645 73.6016 10.9277C73.082 10.7819 72.6035 10.709 72.166 10.709H71.9473V23.4785C71.9473 27.1882 72.3438 29.2845 73.1367 29.7676V30H68.5156H67.3262V29.7676C68.1191 29.2845 68.5156 27.1882 68.5156 23.4785V10.709H68.3105C67.873 10.709 67.39 10.7819 66.8613 10.9277C66.3418 11.0645 65.7585 11.2923 65.1113 11.6113C64.4733 11.9303 63.8125 12.4134 63.1289 13.0605C62.4544 13.7077 61.8346 14.4733 61.2695 15.3574H61.0371V10.4766ZM90.2402 22.8496C90.8783 24.7363 91.5163 26.2767 92.1543 27.4707C92.8014 28.6647 93.362 29.4303 93.8359 29.7676V30H89.2148H88.0391V29.7676C88.6497 29.3392 88.2441 27.0514 86.8223 22.9043L85.9609 20.3613H81.6543L80.8066 22.8496C80.7064 23.1504 80.6243 23.401 80.5605 23.6016C80.5059 23.793 80.4421 24.0801 80.3691 24.4629C80.3053 24.8457 80.278 25.1875 80.2871 25.4883C80.2962 25.7799 80.3464 26.1263 80.4375 26.5273C80.5286 26.9284 80.679 27.3021 80.8887 27.6484C81.0983 27.9857 81.39 28.3411 81.7637 28.7148C82.1374 29.0885 82.5885 29.4395 83.1172 29.7676V30H78.1543H76.9648V29.7676C77.3477 29.5397 77.8034 28.9427 78.332 27.9766C78.8607 27.0104 79.3073 26.0807 79.6719 25.1875C80.0456 24.2943 80.3418 23.515 80.5605 22.8496L83.6914 13.6211L82.625 10.4766H86.0566L90.2402 22.8496ZM81.7363 20.1152H85.8789L83.8145 13.9766L81.7363 20.1152ZM103.475 30.1367C104.514 30.1367 105.466 30.0273 106.332 29.8086C107.198 29.5807 107.964 29.2526 108.629 28.8242C109.294 28.3867 109.859 27.9492 110.324 27.5117C110.798 27.0651 111.29 26.5273 111.801 25.8984L111.951 26.0215C111.541 26.5501 111.154 27.0104 110.789 27.4023C110.424 27.7852 109.982 28.1771 109.463 28.5781C108.952 28.9701 108.419 29.2936 107.863 29.5488C107.316 29.7949 106.665 29.9954 105.908 30.1504C105.161 30.3053 104.35 30.3828 103.475 30.3828C102.044 30.3828 100.704 30.1595 99.4551 29.7129C98.2064 29.2663 97.1126 28.6237 96.1738 27.7852C95.235 26.9466 94.4922 25.8802 93.9453 24.5859C93.4076 23.2826 93.1387 21.8333 93.1387 20.2383C93.1387 18.862 93.4121 17.5495 93.959 16.3008C94.5059 15.043 95.2396 13.9629 96.1602 13.0605C97.0807 12.1491 98.179 11.429 99.4551 10.9004C100.731 10.3626 102.071 10.0938 103.475 10.0938C104.605 10.0938 105.635 10.2305 106.564 10.5039C107.503 10.7773 108.324 11.1829 109.025 11.7207C109.727 12.2493 110.274 12.9466 110.666 13.8125C111.058 14.6693 111.254 15.6536 111.254 16.7656H111.008H106.277V16.5332C107.007 16.0866 107.531 15.5762 107.85 15.002C108.178 14.4186 108.292 13.8626 108.191 13.334C108.091 12.7962 107.868 12.2995 107.521 11.8438C107.184 11.3789 106.719 11.0098 106.127 10.7363C105.535 10.4629 104.91 10.3262 104.254 10.3262C103.26 10.3262 102.344 10.4948 101.506 10.832C100.667 11.1693 99.9473 11.6387 99.3457 12.2402C98.7533 12.8418 98.2474 13.5573 97.8281 14.3867C97.4089 15.2161 97.0944 16.123 96.8848 17.1074C96.6842 18.0918 96.584 19.1354 96.584 20.2383C96.584 21.8516 96.7617 23.2962 97.1172 24.5723C97.4818 25.8483 97.9785 26.8874 98.6074 27.6895C99.2363 28.4915 99.9609 29.1022 100.781 29.5215C101.611 29.9316 102.508 30.1367 103.475 30.1367ZM112.799 10.4766H131.201V10.709V15.3574H130.955C130.39 14.4733 129.766 13.7077 129.082 13.0605C128.408 12.4134 127.747 11.9303 127.1 11.6113C126.462 11.2923 125.883 11.0645 125.363 10.9277C124.844 10.7819 124.365 10.709 123.928 10.709H123.709V23.4785C123.709 27.1882 124.105 29.2845 124.898 29.7676V30H120.277H119.088V29.7676C119.881 29.2845 120.277 27.1882 120.277 23.4785V10.709H120.072C119.635 10.709 119.152 10.7819 118.623 10.9277C118.104 11.0645 117.52 11.2923 116.873 11.6113C116.235 11.9303 115.574 12.4134 114.891 13.0605C114.216 13.7077 113.596 14.4733 113.031 15.3574H112.799V10.4766Z" fill="white"/>
<path d="M193.75 14.3691C194.137 15.9043 194.33 17.5977 194.33 19.4492C194.33 21.3008 194.137 23 193.75 24.5469C193.375 26.082 192.795 27.4531 192.01 28.6602C191.225 29.8672 190.176 30.8105 188.863 31.4902C187.551 32.1582 186.021 32.4922 184.275 32.4922C182.869 32.4922 181.604 32.2695 180.479 31.8242C179.354 31.3789 178.404 30.7637 177.631 29.9785C176.857 29.1934 176.213 28.25 175.697 27.1484C175.193 26.0469 174.824 24.8574 174.59 23.5801C174.355 22.3027 174.238 20.9258 174.238 19.4492C174.238 17.9727 174.355 16.5957 174.59 15.3184C174.824 14.041 175.193 12.8516 175.697 11.75C176.213 10.6484 176.857 9.70508 177.631 8.91992C178.404 8.13477 179.354 7.51953 180.479 7.07422C181.604 6.62891 182.869 6.40625 184.275 6.40625C186.021 6.40625 187.551 6.74609 188.863 7.42578C190.176 8.09375 191.225 9.03125 192.01 10.2383C192.795 11.4453 193.375 12.8223 193.75 14.3691ZM184.275 32.1758C185.354 32.1758 186.268 31.8535 187.018 31.209C187.779 30.5645 188.365 29.6387 188.775 28.4316C189.186 27.2129 189.479 25.8828 189.654 24.4414C189.83 22.9883 189.918 21.3242 189.918 19.4492C189.918 17.5742 189.83 15.916 189.654 14.4746C189.479 13.0215 189.186 11.6914 188.775 10.4844C188.365 9.26563 187.779 8.33398 187.018 7.68945C186.268 7.0332 185.354 6.70508 184.275 6.70508C183.197 6.70508 182.277 7.0332 181.516 7.68945C180.766 8.33398 180.186 9.26563 179.775 10.4844C179.377 11.6914 179.09 13.0215 178.914 14.4746C178.738 15.916 178.65 17.5742 178.65 19.4492C178.65 20.9375 178.697 22.2852 178.791 23.4922C178.896 24.6992 179.078 25.8535 179.336 26.9551C179.605 28.0566 179.945 28.9824 180.355 29.7324C180.777 30.4824 181.316 31.0801 181.973 31.5254C182.641 31.959 183.408 32.1758 184.275 32.1758ZM196.861 31.7012C197.881 31.0801 198.391 28.3848 198.391 23.6152V14.4219C198.332 13.5547 198.191 12.8809 197.969 12.4004C197.746 11.9199 197.395 11.6211 196.914 11.5039V10.5195C198.168 10.332 199.246 9.97461 200.148 9.44727C201.062 8.91992 201.947 8.07031 202.803 6.89844V23.6152C202.803 28.3848 203.312 31.0801 204.332 31.7012V32H202.803H198.391H196.861V31.7012ZM226.305 14.3691C226.691 15.9043 226.885 17.5977 226.885 19.4492C226.885 21.3008 226.691 23 226.305 24.5469C225.93 26.082 225.35 27.4531 224.564 28.6602C223.779 29.8672 222.73 30.8105 221.418 31.4902C220.105 32.1582 218.576 32.4922 216.83 32.4922C215.424 32.4922 214.158 32.2695 213.033 31.8242C211.908 31.3789 210.959 30.7637 210.186 29.9785C209.412 29.1934 208.768 28.25 208.252 27.1484C207.748 26.0469 207.379 24.8574 207.145 23.5801C206.91 22.3027 206.793 20.9258 206.793 19.4492C206.793 17.9727 206.91 16.5957 207.145 15.3184C207.379 14.041 207.748 12.8516 208.252 11.75C208.768 10.6484 209.412 9.70508 210.186 8.91992C210.959 8.13477 211.908 7.51953 213.033 7.07422C214.158 6.62891 215.424 6.40625 216.83 6.40625C218.576 6.40625 220.105 6.74609 221.418 7.42578C222.73 8.09375 223.779 9.03125 224.564 10.2383C225.35 11.4453 225.93 12.8223 226.305 14.3691ZM216.83 32.1758C217.908 32.1758 218.822 31.8535 219.572 31.209C220.334 30.5645 220.92 29.6387 221.33 28.4316C221.74 27.2129 222.033 25.8828 222.209 24.4414C222.385 22.9883 222.473 21.3242 222.473 19.4492C222.473 17.5742 222.385 15.916 222.209 14.4746C222.033 13.0215 221.74 11.6914 221.33 10.4844C220.92 9.26563 220.334 8.33398 219.572 7.68945C218.822 7.0332 217.908 6.70508 216.83 6.70508C215.752 6.70508 214.832 7.0332 214.07 7.68945C213.32 8.33398 212.74 9.26563 212.33 10.4844C211.932 11.6914 211.645 13.0215 211.469 14.4746C211.293 15.916 211.205 17.5742 211.205 19.4492C211.205 20.9375 211.252 22.2852 211.346 23.4922C211.451 24.6992 211.633 25.8535 211.891 26.9551C212.16 28.0566 212.5 28.9824 212.91 29.7324C213.332 30.4824 213.871 31.0801 214.527 31.5254C215.195 31.959 215.963 32.1758 216.83 32.1758ZM230.787 28.748C231.221 28.3145 231.742 28.0977 232.352 28.0977C232.961 28.0977 233.477 28.3145 233.898 28.748C234.332 29.1699 234.549 29.6855 234.549 30.2949C234.549 30.9043 234.332 31.4258 233.898 31.8594C233.477 32.2812 232.961 32.4922 232.352 32.4922C231.742 32.4922 231.221 32.2812 230.787 31.8594C230.365 31.4258 230.154 30.9043 230.154 30.2949C230.154 29.6855 230.365 29.1699 230.787 28.748ZM247.943 15.3008C249.326 15.3008 250.592 15.4766 251.74 15.8281C252.889 16.168 253.838 16.625 254.588 17.1992C255.35 17.7617 255.994 18.4238 256.521 19.1855C257.049 19.9355 257.424 20.7031 257.646 21.4883C257.881 22.2734 257.998 23.0762 257.998 23.8965C257.998 24.7168 257.881 25.5195 257.646 26.3047C257.424 27.0898 257.049 27.8633 256.521 28.625C255.994 29.375 255.35 30.0371 254.588 30.6113C253.838 31.1738 252.889 31.6309 251.74 31.9824C250.592 32.3223 249.326 32.4922 247.943 32.4922C246.561 32.4922 245.295 32.3164 244.146 31.9648C242.998 31.6016 242.043 31.1328 241.281 30.5586C240.531 29.9844 239.893 29.3223 239.365 28.5723C238.85 27.8105 238.475 27.0371 238.24 26.252C238.018 25.4668 237.906 24.6816 237.906 23.8965V19.3965C237.906 17.9199 238.018 16.5488 238.24 15.2832C238.463 14.0176 238.82 12.834 239.312 11.7324C239.816 10.6309 240.443 9.69336 241.193 8.91992C241.943 8.13477 242.875 7.51953 243.988 7.07422C245.113 6.62891 246.373 6.40625 247.768 6.40625C248.752 6.40625 249.654 6.49414 250.475 6.66992C251.307 6.83398 252.004 7.05664 252.566 7.33789C253.129 7.60742 253.627 7.92969 254.061 8.30469C254.506 8.66797 254.852 9.03711 255.098 9.41211C255.344 9.78711 255.549 10.1738 255.713 10.5723C255.877 10.9707 255.982 11.3223 256.029 11.627C256.088 11.9199 256.117 12.1953 256.117 12.4531H254.008H250.334V12.1543C251.26 11.9902 251.834 11.5215 252.057 10.748C252.291 9.98633 252.121 9.21289 251.547 8.42773C250.844 7.44336 249.789 6.88086 248.383 6.74023C248.184 6.7168 247.979 6.70508 247.768 6.70508C247.018 6.70508 246.35 6.86914 245.764 7.19727C245.178 7.52539 244.686 7.97656 244.287 8.55078C243.9 9.11328 243.572 9.81641 243.303 10.6602C243.033 11.5039 242.828 12.4004 242.688 13.3496C242.547 14.2988 242.447 15.3652 242.389 16.5488C243.959 15.7168 245.811 15.3008 247.943 15.3008ZM245.641 31.6836C246.32 32.0117 247.088 32.1758 247.943 32.1758C248.799 32.1758 249.561 32.0117 250.229 31.6836C250.908 31.3438 251.453 30.9102 251.863 30.3828C252.273 29.8438 252.613 29.2051 252.883 28.4668C253.152 27.7285 253.334 26.9902 253.428 26.252C253.533 25.502 253.586 24.7168 253.586 23.8965C253.586 23.0762 253.533 22.2969 253.428 21.5586C253.334 20.8086 253.152 20.0645 252.883 19.3262C252.613 18.5762 252.273 17.9375 251.863 17.4102C251.453 16.8711 250.908 16.4375 250.229 16.1094C249.561 15.7695 248.799 15.5996 247.943 15.5996C247.088 15.5996 246.32 15.7695 245.641 16.1094C244.973 16.4375 244.434 16.8711 244.023 17.4102C243.613 17.9375 243.273 18.5762 243.004 19.3262C242.746 20.0645 242.564 20.8086 242.459 21.5586C242.365 22.2969 242.318 23.0762 242.318 23.8965C242.318 24.7168 242.365 25.502 242.459 26.252C242.564 26.9902 242.746 27.7285 243.004 28.4668C243.273 29.2051 243.613 29.8438 244.023 30.3828C244.434 30.9102 244.973 31.3438 245.641 31.6836ZM271.146 15.3008C272.529 15.3008 273.795 15.4766 274.943 15.8281C276.092 16.168 277.041 16.625 277.791 17.1992C278.553 17.7617 279.197 18.4238 279.725 19.1855C280.252 19.9355 280.627 20.7031 280.85 21.4883C281.084 22.2734 281.201 23.0762 281.201 23.8965C281.201 24.7168 281.084 25.5195 280.85 26.3047C280.627 27.0898 280.252 27.8633 279.725 28.625C279.197 29.375 278.553 30.0371 277.791 30.6113C277.041 31.1738 276.092 31.6309 274.943 31.9824C273.795 32.3223 272.529 32.4922 271.146 32.4922C269.764 32.4922 268.498 32.3164 267.35 31.9648C266.201 31.6016 265.246 31.1328 264.484 30.5586C263.734 29.9844 263.096 29.3223 262.568 28.5723C262.053 27.8105 261.678 27.0371 261.443 26.252C261.221 25.4668 261.109 24.6816 261.109 23.8965V19.3965C261.109 17.9199 261.221 16.5488 261.443 15.2832C261.666 14.0176 262.023 12.834 262.516 11.7324C263.02 10.6309 263.646 9.69336 264.396 8.91992C265.146 8.13477 266.078 7.51953 267.191 7.07422C268.316 6.62891 269.576 6.40625 270.971 6.40625C271.955 6.40625 272.857 6.49414 273.678 6.66992C274.51 6.83398 275.207 7.05664 275.77 7.33789C276.332 7.60742 276.83 7.92969 277.264 8.30469C277.709 8.66797 278.055 9.03711 278.301 9.41211C278.547 9.78711 278.752 10.1738 278.916 10.5723C279.08 10.9707 279.186 11.3223 279.232 11.627C279.291 11.9199 279.32 12.1953 279.32 12.4531H277.211H273.537V12.1543C274.463 11.9902 275.037 11.5215 275.26 10.748C275.494 9.98633 275.324 9.21289 274.75 8.42773C274.047 7.44336 272.992 6.88086 271.586 6.74023C271.387 6.7168 271.182 6.70508 270.971 6.70508C270.221 6.70508 269.553 6.86914 268.967 7.19727C268.381 7.52539 267.889 7.97656 267.49 8.55078C267.104 9.11328 266.775 9.81641 266.506 10.6602C266.236 11.5039 266.031 12.4004 265.891 13.3496C265.75 14.2988 265.65 15.3652 265.592 16.5488C267.162 15.7168 269.014 15.3008 271.146 15.3008ZM268.844 31.6836C269.523 32.0117 270.291 32.1758 271.146 32.1758C272.002 32.1758 272.764 32.0117 273.432 31.6836C274.111 31.3438 274.656 30.9102 275.066 30.3828C275.477 29.8438 275.816 29.2051 276.086 28.4668C276.355 27.7285 276.537 26.9902 276.631 26.252C276.736 25.502 276.789 24.7168 276.789 23.8965C276.789 23.0762 276.736 22.2969 276.631 21.5586C276.537 20.8086 276.355 20.0645 276.086 19.3262C275.816 18.5762 275.477 17.9375 275.066 17.4102C274.656 16.8711 274.111 16.4375 273.432 16.1094C272.764 15.7695 272.002 15.5996 271.146 15.5996C270.291 15.5996 269.523 15.7695 268.844 16.1094C268.176 16.4375 267.637 16.8711 267.227 17.4102C266.816 17.9375 266.477 18.5762 266.207 19.3262C265.949 20.0645 265.768 20.8086 265.662 21.5586C265.568 22.2969 265.521 23.0762 265.521 23.8965C265.521 24.7168 265.568 25.502 265.662 26.252C265.768 26.9902 265.949 27.7285 266.207 28.4668C266.477 29.2051 266.816 29.8438 267.227 30.3828C267.637 30.9102 268.176 31.3438 268.844 31.6836ZM303.754 14.3691C304.141 15.9043 304.334 17.5977 304.334 19.4492C304.334 21.3008 304.141 23 303.754 24.5469C303.379 26.082 302.799 27.4531 302.014 28.6602C301.229 29.8672 300.18 30.8105 298.867 31.4902C297.555 32.1582 296.025 32.4922 294.279 32.4922C292.873 32.4922 291.607 32.2695 290.482 31.8242C289.357 31.3789 288.408 30.7637 287.635 29.9785C286.861 29.1934 286.217 28.25 285.701 27.1484C285.197 26.0469 284.828 24.8574 284.594 23.5801C284.359 22.3027 284.242 20.9258 284.242 19.4492C284.242 17.9727 284.359 16.5957 284.594 15.3184C284.828 14.041 285.197 12.8516 285.701 11.75C286.217 10.6484 286.861 9.70508 287.635 8.91992C288.408 8.13477 289.357 7.51953 290.482 7.07422C291.607 6.62891 292.873 6.40625 294.279 6.40625C296.025 6.40625 297.555 6.74609 298.867 7.42578C300.18 8.09375 301.229 9.03125 302.014 10.2383C302.799 11.4453 303.379 12.8223 303.754 14.3691ZM294.279 32.1758C295.357 32.1758 296.271 31.8535 297.021 31.209C297.783 30.5645 298.369 29.6387 298.779 28.4316C299.189 27.2129 299.482 25.8828 299.658 24.4414C299.834 22.9883 299.922 21.3242 299.922 19.4492C299.922 17.5742 299.834 15.916 299.658 14.4746C299.482 13.0215 299.189 11.6914 298.779 10.4844C298.369 9.26563 297.783 8.33398 297.021 7.68945C296.271 7.0332 295.357 6.70508 294.279 6.70508C293.201 6.70508 292.281 7.0332 291.52 7.68945C290.77 8.33398 290.189 9.26563 289.779 10.4844C289.381 11.6914 289.094 13.0215 288.918 14.4746C288.742 15.916 288.654 17.5742 288.654 19.4492C288.654 20.9375 288.701 22.2852 288.795 23.4922C288.9 24.6992 289.082 25.8535 289.34 26.9551C289.609 28.0566 289.949 28.9824 290.359 29.7324C290.781 30.4824 291.32 31.0801 291.977 31.5254C292.645 31.959 293.412 32.1758 294.279 32.1758ZM313.791 26.7441C312.877 26.9082 312.326 27.3711 312.139 28.1328C311.963 28.8945 312.186 29.668 312.807 30.4531C313.592 31.4375 314.699 32 316.129 32.1406C316.328 32.1641 316.533 32.1758 316.744 32.1758C317.67 32.1758 318.508 31.9355 319.258 31.4551C320.008 30.9629 320.635 30.2715 321.139 29.3809C321.643 28.4902 322.047 27.4648 322.352 26.3047C322.668 25.1328 322.885 23.8262 323.002 22.3848C321.455 23.1934 319.615 23.5977 317.482 23.5977C316.1 23.5977 314.834 23.4277 313.686 23.0879C312.537 22.7363 311.582 22.2793 310.82 21.7168C310.07 21.1426 309.432 20.4805 308.904 19.7305C308.377 18.9688 307.996 18.1953 307.762 17.4102C307.539 16.625 307.428 15.8223 307.428 15.002C307.428 14.1816 307.539 13.3789 307.762 12.5938C307.996 11.8086 308.377 11.041 308.904 10.291C309.432 9.5293 310.07 8.86719 310.82 8.30469C311.582 7.73047 312.537 7.27344 313.686 6.93359C314.834 6.58203 316.1 6.40625 317.482 6.40625C318.865 6.40625 320.131 6.58789 321.279 6.95117C322.428 7.30273 323.377 7.76562 324.127 8.33984C324.889 8.91406 325.533 9.58203 326.061 10.3438C326.588 11.0938 326.963 11.8613 327.186 12.6465C327.42 13.4316 327.537 14.2168 327.537 15.002V19.502C327.537 21.3184 327.303 23.0059 326.834 24.5645C326.377 26.123 325.709 27.4941 324.83 28.6777C323.963 29.8613 322.832 30.793 321.438 31.4727C320.055 32.1523 318.49 32.4922 316.744 32.4922C315.385 32.4922 314.166 32.3281 313.088 32C312.01 31.6836 311.166 31.291 310.557 30.8223C309.947 30.3535 309.438 29.8262 309.027 29.2402C308.629 28.6543 308.359 28.1328 308.219 27.6758C308.09 27.2188 308.025 26.8086 308.025 26.4453H310.117H313.791V26.7441ZM315.18 22.8066C315.859 23.1348 316.627 23.2988 317.482 23.2988C318.338 23.2988 319.1 23.1348 319.768 22.8066C320.447 22.4668 320.992 22.0332 321.402 21.5059C321.812 20.9668 322.152 20.3281 322.422 19.5898C322.691 18.8398 322.873 18.0957 322.967 17.3574C323.072 16.6074 323.125 15.8223 323.125 15.002C323.125 14.1816 323.072 13.4023 322.967 12.6641C322.873 11.9141 322.691 11.1699 322.422 10.4316C322.152 9.68164 321.812 9.04297 321.402 8.51562C320.992 7.97656 320.447 7.54297 319.768 7.21484C319.1 6.875 318.338 6.70508 317.482 6.70508C316.627 6.70508 315.859 6.875 315.18 7.21484C314.512 7.54297 313.973 7.97656 313.562 8.51562C313.152 9.04297 312.812 9.68164 312.543 10.4316C312.285 11.1699 312.104 11.9141 311.998 12.6641C311.904 13.4023 311.857 14.1816 311.857 15.002C311.857 15.8223 311.904 16.6074 311.998 17.3574C312.104 18.0957 312.285 18.8398 312.543 19.5898C312.812 20.3281 313.152 20.9668 313.562 21.5059C313.973 22.0332 314.512 22.4668 315.18 22.8066ZM331.475 28.748C331.908 28.3145 332.43 28.0977 333.039 28.0977C333.648 28.0977 334.164 28.3145 334.586 28.748C335.02 29.1699 335.236 29.6855 335.236 30.2949C335.236 30.9043 335.02 31.4258 334.586 31.8594C334.164 32.2812 333.648 32.4922 333.039 32.4922C332.43 32.4922 331.908 32.2812 331.475 31.8594C331.053 31.4258 330.842 30.9043 330.842 30.2949C330.842 29.6855 331.053 29.1699 331.475 28.748ZM338.576 6.89844H357.912L352.375 17.7266C351.391 19.707 350.57 21.6934 349.914 23.6855C349.27 25.666 348.895 27.4121 348.789 28.9238C348.695 30.4238 349.029 31.3496 349.791 31.7012V32H340.668L340.809 31.7188C340.715 31.8828 340.668 31.9766 340.668 32H338.014V31.7012C338.541 31.6426 339.086 31.4082 339.648 30.998C340.223 30.5762 340.756 30.0664 341.248 29.4688C341.752 28.8711 342.32 28.0625 342.953 27.043C343.586 26.0117 344.154 25.0273 344.658 24.0898C345.162 23.1523 345.783 21.9688 346.521 20.5391L353.342 7.19727H347.945C346.914 7.19727 345.941 7.26758 345.027 7.4082C344.125 7.53711 343.252 7.75391 342.408 8.05859C341.564 8.35156 340.832 8.77344 340.211 9.32422C339.602 9.86328 339.162 10.5078 338.893 11.2578H338.594V7.19727L338.576 6.89844ZM359.002 31.7012C360.021 31.0801 360.531 28.3848 360.531 23.6152V14.4219C360.473 13.5547 360.332 12.8809 360.109 12.4004C359.887 11.9199 359.535 11.6211 359.055 11.5039V10.5195C360.309 10.332 361.387 9.97461 362.289 9.44727C363.203 8.91992 364.088 8.07031 364.943 6.89844V23.6152C364.943 28.3848 365.453 31.0801 366.473 31.7012V32H364.943H360.531H359.002V31.7012ZM370.182 31.7012C371.201 31.0801 371.711 28.3848 371.711 23.6152V14.4219C371.652 13.5547 371.512 12.8809 371.289 12.4004C371.066 11.9199 370.715 11.6211 370.234 11.5039V10.5195C371.488 10.332 372.566 9.97461 373.469 9.44727C374.383 8.91992 375.268 8.07031 376.123 6.89844V23.6152C376.123 28.3848 376.633 31.0801 377.652 31.7012V32H376.123H371.711H370.182V31.7012ZM381.361 31.7012C382.381 31.0801 382.891 28.3848 382.891 23.6152V14.4219C382.832 13.5547 382.691 12.8809 382.469 12.4004C382.246 11.9199 381.895 11.6211 381.414 11.5039V10.5195C382.668 10.332 383.746 9.97461 384.648 9.44727C385.562 8.91992 386.447 8.07031 387.303 6.89844V23.6152C387.303 28.3848 387.812 31.0801 388.832 31.7012V32H387.303H382.891H381.361V31.7012Z" fill="white"/>
<path d="M445.607 22.8418C446.779 24.8457 448.021 26.709 449.334 28.4316C450.646 30.1426 451.689 31.2324 452.463 31.7012V32H446.521H443.92V31.7012C444.318 31.4551 444.564 31.1504 444.658 30.7871C444.764 30.4121 444.699 29.8848 444.465 29.2051C444.242 28.5137 443.92 27.7637 443.498 26.9551C443.088 26.1348 442.479 25.0332 441.67 23.6504L438.014 27.2539C438.236 29.7969 438.699 31.2793 439.402 31.7012V32H433.461H431.932V31.7012C432.951 31.0801 433.461 28.3848 433.461 23.6152V17.2695C433.461 12.5117 432.951 9.82227 431.932 9.20117V8.90234C432.916 8.90234 433.965 8.7207 435.078 8.35742C436.203 7.99414 437.135 7.50781 437.873 6.89844V23.6152C437.873 24.8691 437.908 25.9883 437.979 26.9727L441.301 23.7031C441.898 23.1055 442.408 22.5898 442.83 22.1562C443.252 21.7227 443.668 21.2656 444.078 20.7852C444.5 20.293 444.816 19.8711 445.027 19.5195C445.25 19.1562 445.432 18.7871 445.572 18.4121C445.725 18.0371 445.76 17.7148 445.678 17.4453C445.607 17.1758 445.461 16.918 445.238 16.6719C445.027 16.4258 444.693 16.2148 444.236 16.0391C443.791 15.8633 443.234 15.7168 442.566 15.5996V15.2832H450.178H451.707V15.5996C450.922 15.7402 449.984 16.2031 448.895 16.9883C447.816 17.7617 446.346 19.0625 444.482 20.8906L445.607 22.8418ZM471.254 23.4746C471.254 28.3027 471.758 31.0332 472.766 31.666V31.9824H471.254C469.602 31.9824 467.75 32.0645 465.699 32.2285C463.66 32.3926 462.389 32.4746 461.885 32.4746C459.248 32.4746 457.291 32.082 456.014 31.2969C454.736 30.5 454.098 29.4863 454.098 28.2559C454.098 27.4473 454.332 26.7441 454.801 26.1465C455.27 25.5371 455.879 25.0566 456.629 24.7051C457.379 24.3418 458.205 24.0195 459.107 23.7383C460.021 23.4453 460.93 23.1641 461.832 22.8945C462.746 22.6133 463.578 22.3086 464.328 21.9805C465.078 21.6523 465.688 21.2129 466.156 20.6621C466.625 20.1113 466.859 19.4668 466.859 18.7285V18.0078C466.859 16.8359 466.549 16.0156 465.928 15.5469C465.307 15.0781 464.416 14.8438 463.256 14.8438C462.072 14.8438 460.906 15.0781 459.758 15.5469C458.609 16.0156 457.607 16.7129 456.752 17.6387C455.896 18.5527 455.363 19.5898 455.152 20.75H454.906V16.3555C455.855 15.7812 457.127 15.3359 458.721 15.0195C460.326 14.6914 461.838 14.5273 463.256 14.5273C464.076 14.5273 464.938 14.6035 465.84 14.7559C466.754 14.9082 467.615 15.125 468.424 15.4062C469.244 15.6758 469.918 16.0391 470.445 16.4961C470.984 16.9531 471.254 17.457 471.254 18.0078V23.4746ZM466.842 27.3242V20.1699C466.643 20.627 466.332 21.043 465.91 21.418C465.488 21.7812 465.025 22.0918 464.521 22.3496C464.029 22.5957 463.496 22.8477 462.922 23.1055C462.359 23.3516 461.82 23.6211 461.305 23.9141C460.789 24.207 460.314 24.541 459.881 24.916C459.459 25.2793 459.119 25.748 458.861 26.3223C458.615 26.8848 458.492 27.5293 458.492 28.2559C458.492 29.334 458.785 30.2539 459.371 31.0156C459.969 31.7773 460.807 32.1582 461.885 32.1582C462.518 32.1582 463.104 32.082 463.643 31.9297C464.193 31.7773 464.715 31.5312 465.207 31.1914C465.711 30.8516 466.109 30.3535 466.402 29.6973C466.695 29.0293 466.842 28.2383 466.842 27.3242ZM493.561 23.6152C493.561 28.3848 494.064 31.0801 495.072 31.7012V32H489.131H487.619V31.7012C488.627 31.0801 489.131 28.3848 489.131 23.6152V21.5938C489.131 19.3438 488.838 17.7441 488.252 16.7949C487.666 15.8457 486.717 15.3711 485.404 15.3711C484.971 15.3711 484.49 15.4648 483.963 15.6523C483.447 15.8398 482.938 16.1035 482.434 16.4434C481.941 16.7832 481.525 17.2461 481.186 17.832C480.857 18.4062 480.693 19.0332 480.693 19.7129V23.6152C480.693 28.3848 481.203 31.0801 482.223 31.7012V32H476.281H474.752V31.7012C475.689 31.127 476.199 28.7773 476.281 24.6523C476.199 20.5156 475.689 18.1602 474.752 17.5859V17.2871C475.736 17.2871 476.785 17.1113 477.898 16.7598C479.023 16.3965 479.955 15.9102 480.693 15.3008V18.2539C481.068 17.2695 481.754 16.4492 482.75 15.793C483.746 15.125 485.105 14.791 486.828 14.791C489.02 14.791 490.689 15.3359 491.838 16.4258C492.986 17.5039 493.561 19.2266 493.561 21.5938V23.6152ZM501.4 32.457C501.4 32.8906 501.652 33.2246 502.156 33.459C502.66 33.7051 503.311 33.8691 504.107 33.9512C504.904 34.0332 505.789 34.0977 506.762 34.1445C507.734 34.2031 508.707 34.3027 509.68 34.4434C510.652 34.584 511.537 34.7949 512.334 35.0762C513.131 35.3574 513.781 35.8027 514.285 36.4121C514.789 37.0215 515.041 37.7832 515.041 38.6973C515.041 39.4238 514.871 40.1152 514.531 40.7715C514.191 41.4277 513.682 42.0254 513.002 42.5645C512.322 43.1152 511.402 43.5488 510.242 43.8652C509.094 44.1934 507.775 44.3574 506.287 44.3574C505.549 44.3574 504.793 44.3164 504.02 44.2344C503.258 44.1641 502.432 44.0176 501.541 43.7949C500.65 43.584 499.865 43.3086 499.186 42.9688C498.506 42.6289 497.938 42.166 497.48 41.5801C497.023 41.0059 496.795 40.3496 496.795 39.6113C496.795 39.248 496.842 38.9141 496.936 38.6094C497.029 38.3047 497.129 38.0527 497.234 37.8535C497.34 37.6543 497.51 37.4375 497.744 37.2031C497.99 36.9805 498.184 36.8164 498.324 36.7109C498.465 36.6055 498.688 36.4473 498.992 36.2363H499.238C499.074 36.6113 498.98 37.0332 498.957 37.502C498.945 37.9707 499.01 38.4512 499.15 38.9434C499.303 39.4473 499.514 39.9395 499.783 40.4199C500.053 40.9121 500.404 41.375 500.838 41.8086C501.271 42.2422 501.752 42.623 502.279 42.9512C502.807 43.291 503.416 43.5547 504.107 43.7422C504.799 43.9414 505.525 44.041 506.287 44.041C507.307 44.041 508.227 43.9062 509.047 43.6367C509.879 43.3789 510.535 43.0391 511.016 42.6172C511.508 42.207 511.883 41.7617 512.141 41.2812C512.398 40.8125 512.527 40.3496 512.527 39.8926C512.527 39.0723 512.24 38.4043 511.666 37.8887C511.092 37.373 510.348 37.0039 509.434 36.7812C508.531 36.5703 507.523 36.4062 506.41 36.2891C505.309 36.1836 504.201 36.0898 503.088 36.0078C501.986 35.9375 500.979 35.8262 500.064 35.6738C499.162 35.5332 498.424 35.2695 497.85 34.8828C497.275 34.4961 496.988 33.9805 496.988 33.3359C496.988 32.8789 497.064 32.4688 497.217 32.1055C497.381 31.7539 497.615 31.4609 497.92 31.2266C498.236 30.9922 498.576 30.793 498.939 30.6289C499.314 30.4648 499.754 30.3359 500.258 30.2422C500.762 30.1484 501.242 30.084 501.699 30.0488C502.168 30.002 502.689 29.9727 503.264 29.9609C501.412 29.5391 499.895 28.748 498.711 27.5879C497.539 26.4277 496.953 25.1152 496.953 23.6504C496.953 22.4551 497.352 21.3477 498.148 20.3281C498.957 19.3086 500.053 18.5059 501.436 17.9199C502.818 17.3223 504.324 17.0234 505.953 17.0234C506.551 17.0234 507.066 16.9004 507.5 16.6543C507.934 16.4082 508.25 16.0977 508.449 15.7227C508.66 15.3359 508.777 14.9082 508.801 14.4395C508.836 13.9707 508.771 13.5195 508.607 13.0859C508.455 12.6406 508.197 12.2305 507.834 11.8555C507.471 11.4805 507.037 11.2051 506.533 11.0293V10.8887C507.365 10.8887 508.127 10.7129 508.818 10.3613C509.51 9.99805 510.049 9.54688 510.436 9.00781C510.857 9.08984 511.25 9.35938 511.613 9.81641C511.977 10.2617 512.158 10.8359 512.158 11.5391C512.158 12.957 511.742 14.1641 510.91 15.1602C510.078 16.1562 508.982 16.8125 507.623 17.1289C509.732 17.4219 511.484 18.1836 512.879 19.4141C514.273 20.6328 514.971 22.0449 514.971 23.6504C514.971 24.8457 514.566 25.9531 513.758 26.9727C512.961 27.9922 511.865 28.8008 510.471 29.3984C509.088 29.9844 507.582 30.2773 505.953 30.2773C505.18 30.2773 504.465 30.3418 503.809 30.4707C503.164 30.5996 502.602 30.8398 502.121 31.1914C501.641 31.5312 501.4 31.9531 501.4 32.457ZM502.701 19.1855C501.811 20.416 501.365 21.9043 501.365 23.6504C501.365 25.3965 501.811 26.8848 502.701 28.1152C503.604 29.3457 504.688 29.9609 505.953 29.9609C507.219 29.9609 508.303 29.3457 509.205 28.1152C510.107 26.873 510.559 25.3848 510.559 23.6504C510.559 21.916 510.107 20.4336 509.205 19.2031C508.303 17.9609 507.219 17.3398 505.953 17.3398C504.688 17.3398 503.604 17.9551 502.701 19.1855ZM534.184 23.4746C534.184 28.3027 534.688 31.0332 535.695 31.666V31.9824H534.184C532.531 31.9824 530.68 32.0645 528.629 32.2285C526.59 32.3926 525.318 32.4746 524.814 32.4746C522.178 32.4746 520.221 32.082 518.943 31.2969C517.666 30.5 517.027 29.4863 517.027 28.2559C517.027 27.4473 517.262 26.7441 517.73 26.1465C518.199 25.5371 518.809 25.0566 519.559 24.7051C520.309 24.3418 521.135 24.0195 522.037 23.7383C522.951 23.4453 523.859 23.1641 524.762 22.8945C525.676 22.6133 526.508 22.3086 527.258 21.9805C528.008 21.6523 528.617 21.2129 529.086 20.6621C529.555 20.1113 529.789 19.4668 529.789 18.7285V18.0078C529.789 16.8359 529.479 16.0156 528.857 15.5469C528.236 15.0781 527.346 14.8438 526.186 14.8438C525.002 14.8438 523.836 15.0781 522.688 15.5469C521.539 16.0156 520.537 16.7129 519.682 17.6387C518.826 18.5527 518.293 19.5898 518.082 20.75H517.836V16.3555C518.785 15.7812 520.057 15.3359 521.65 15.0195C523.256 14.6914 524.768 14.5273 526.186 14.5273C527.006 14.5273 527.867 14.6035 528.77 14.7559C529.684 14.9082 530.545 15.125 531.354 15.4062C532.174 15.6758 532.848 16.0391 533.375 16.4961C533.914 16.9531 534.184 17.457 534.184 18.0078V23.4746ZM529.771 27.3242V20.1699C529.572 20.627 529.262 21.043 528.84 21.418C528.418 21.7812 527.955 22.0918 527.451 22.3496C526.959 22.5957 526.426 22.8477 525.852 23.1055C525.289 23.3516 524.75 23.6211 524.234 23.9141C523.719 24.207 523.244 24.541 522.811 24.916C522.389 25.2793 522.049 25.748 521.791 26.3223C521.545 26.8848 521.422 27.5293 521.422 28.2559C521.422 29.334 521.715 30.2539 522.301 31.0156C522.898 31.7773 523.736 32.1582 524.814 32.1582C525.447 32.1582 526.033 32.082 526.572 31.9297C527.123 31.7773 527.645 31.5312 528.137 31.1914C528.641 30.8516 529.039 30.3535 529.332 29.6973C529.625 29.0293 529.771 28.2383 529.771 27.3242ZM569.34 23.6152C569.34 28.3848 569.85 31.0801 570.869 31.7012V32H564.928H563.398V31.7012C564.418 31.0801 564.928 28.3848 564.928 23.6152V21.5938C564.928 19.3438 564.629 17.7441 564.031 16.7949C563.445 15.8457 562.496 15.3711 561.184 15.3711C560.75 15.3711 560.27 15.4648 559.742 15.6523C559.227 15.8398 558.723 16.1035 558.23 16.4434C557.738 16.7832 557.322 17.2461 556.982 17.832C556.654 18.4062 556.49 19.0332 556.49 19.7129V23.6152C556.49 28.3848 556.994 31.0801 558.002 31.7012V32H552.061H550.549V31.7012C551.557 31.0801 552.061 28.3848 552.061 23.6152V21.5938C552.061 19.3438 551.768 17.7441 551.182 16.7949C550.596 15.8457 549.646 15.3711 548.334 15.3711C547.9 15.3711 547.42 15.4648 546.893 15.6523C546.377 15.8398 545.873 16.1035 545.381 16.4434C544.889 16.7832 544.473 17.2461 544.133 17.832C543.805 18.4062 543.641 19.0332 543.641 19.7129H543.623V23.6152C543.623 28.3848 544.133 31.0801 545.152 31.7012V32H539.211H537.682V31.7012C538.619 31.127 539.129 28.7773 539.211 24.6523C539.129 20.5156 538.619 18.1602 537.682 17.5859V17.2871C538.666 17.2871 539.715 17.1113 540.828 16.7598C541.953 16.3965 542.885 15.9102 543.623 15.3008V18.2539C543.998 17.2695 544.684 16.4492 545.68 15.793C546.676 15.125 548.035 14.791 549.758 14.791C551.539 14.791 553.01 15.1484 554.17 15.8633C555.33 16.5781 556.057 17.5098 556.35 18.6582C556.455 18.2715 556.602 17.9082 556.789 17.5684C556.988 17.2168 557.258 16.8711 557.598 16.5312C557.949 16.1797 558.348 15.8809 558.793 15.6348C559.238 15.3887 559.789 15.1895 560.445 15.0371C561.102 14.873 561.822 14.791 562.607 14.791C564.799 14.791 566.469 15.3359 567.617 16.4258C568.766 17.5039 569.34 19.2266 569.34 21.5938V23.6152ZM587.305 15.3008H588.834V15.5996C588.049 15.9277 587.393 16.4844 586.865 17.2695C586.338 18.043 585.805 19.0977 585.266 20.4336L584.545 22.2793L580.695 32C578.34 37.8477 575.908 40.7715 573.4 40.7715C572.275 40.7715 570.881 40.2852 569.217 39.3125L571.432 35.4805C572.686 36.207 573.676 36.7344 574.402 37.0625C575.141 37.3906 575.768 37.5547 576.283 37.5547C576.564 37.5547 576.84 37.4785 577.109 37.3262C577.391 37.1738 577.666 36.9219 577.936 36.5703C578.217 36.2188 578.451 35.9023 578.639 35.6211C578.826 35.3516 579.049 34.9355 579.307 34.373C579.576 33.8105 579.758 33.418 579.852 33.1953C579.957 32.9727 580.133 32.5742 580.379 32H578.656L575.668 24.4766C574.73 22.1094 573.787 20.1523 572.838 18.6055C571.9 17.0469 571.121 16.0449 570.5 15.5996V15.3008H576.441H577.971V15.5996C577.268 16.1035 577.871 18.7988 579.781 23.6855L580.08 24.4766L581.715 28.5898L583.35 24.459V24.4766L583.367 24.459L583.965 22.9473C584.352 21.916 584.609 21.0488 584.738 20.3457C584.879 19.6426 584.891 18.9805 584.773 18.3594C584.668 17.7383 584.375 17.2109 583.895 16.7773C583.426 16.332 582.752 15.9395 581.873 15.5996V15.3008H587.305L587.27 15.3887C587.27 15.377 587.275 15.3594 587.287 15.3359L587.305 15.3008ZM610.525 14.3691C610.912 15.9043 611.105 17.5977 611.105 19.4492C611.105 21.3008 610.912 23 610.525 24.5469C610.15 26.082 609.57 27.4531 608.785 28.6602C608 29.8672 606.951 30.8105 605.639 31.4902C604.326 32.1582 602.797 32.4922 601.051 32.4922C599.645 32.4922 598.379 32.2695 597.254 31.8242C596.129 31.3789 595.18 30.7637 594.406 29.9785C593.633 29.1934 592.988 28.25 592.473 27.1484C591.969 26.0469 591.6 24.8574 591.365 23.5801C591.131 22.3027 591.014 20.9258 591.014 19.4492C591.014 17.9727 591.131 16.5957 591.365 15.3184C591.6 14.041 591.969 12.8516 592.473 11.75C592.988 10.6484 593.633 9.70508 594.406 8.91992C595.18 8.13477 596.129 7.51953 597.254 7.07422C598.379 6.62891 599.645 6.40625 601.051 6.40625C602.797 6.40625 604.326 6.74609 605.639 7.42578C606.951 8.09375 608 9.03125 608.785 10.2383C609.57 11.4453 610.15 12.8223 610.525 14.3691ZM601.051 32.1758C602.129 32.1758 603.043 31.8535 603.793 31.209C604.555 30.5645 605.141 29.6387 605.551 28.4316C605.961 27.2129 606.254 25.8828 606.43 24.4414C606.605 22.9883 606.693 21.3242 606.693 19.4492C606.693 17.5742 606.605 15.916 606.43 14.4746C606.254 13.0215 605.961 11.6914 605.551 10.4844C605.141 9.26563 604.555 8.33398 603.793 7.68945C603.043 7.0332 602.129 6.70508 601.051 6.70508C599.973 6.70508 599.053 7.0332 598.291 7.68945C597.541 8.33398 596.961 9.26563 596.551 10.4844C596.152 11.6914 595.865 13.0215 595.689 14.4746C595.514 15.916 595.426 17.5742 595.426 19.4492C595.426 20.9375 595.473 22.2852 595.566 23.4922C595.672 24.6992 595.854 25.8535 596.111 26.9551C596.381 28.0566 596.721 28.9824 597.131 29.7324C597.553 30.4824 598.092 31.0801 598.748 31.5254C599.416 31.959 600.184 32.1758 601.051 32.1758ZM631.232 12.5586C631.232 15.6289 628.918 17.416 624.289 17.9199C626.984 18.2363 629.047 19.0039 630.477 20.2227C631.918 21.4297 632.639 23.0645 632.639 25.127C632.639 26.0996 632.422 27.0195 631.988 27.8867C631.555 28.7539 630.928 29.5332 630.107 30.2246C629.287 30.916 628.215 31.4668 626.891 31.877C625.566 32.2871 624.084 32.4922 622.443 32.4922C616.549 32.4922 613.602 29.6914 613.602 24.0898H616.273H619.965V24.4062C619.367 24.6406 618.893 25.0039 618.541 25.4961C618.201 25.9883 617.996 26.5215 617.926 27.0957C617.867 27.6582 617.926 28.2441 618.102 28.8535C618.277 29.4629 618.553 30.0137 618.928 30.5059C619.303 30.9863 619.795 31.3848 620.404 31.7012C621.025 32.0176 621.705 32.1758 622.443 32.1758C623.416 32.1758 624.277 31.9824 625.027 31.5957C625.789 31.1973 626.398 30.6641 626.855 29.9961C627.312 29.3164 627.652 28.5664 627.875 27.7461C628.109 26.9141 628.227 26.041 628.227 25.127C628.227 22.877 627.652 21.1426 626.504 19.9238C625.367 18.6934 623.639 18.0781 621.318 18.0781V17.7617C623.264 17.7617 624.664 17.2871 625.52 16.3379C626.387 15.3887 626.82 14.1289 626.82 12.5586C626.82 12.0547 626.762 11.5391 626.645 11.0117C626.539 10.4844 626.369 9.96289 626.135 9.44727C625.9 8.93164 625.613 8.47461 625.273 8.07617C624.945 7.66602 624.535 7.33789 624.043 7.0918C623.551 6.83398 623.018 6.70508 622.443 6.70508C621.482 6.70508 620.656 6.96289 619.965 7.47852C619.285 7.98242 618.828 8.5918 618.594 9.30664C618.359 10.0098 618.348 10.748 618.559 11.5215C618.77 12.2949 619.215 12.9219 619.895 13.4023V13.7012H614.621C614.621 12.4473 614.826 11.3457 615.236 10.3965C615.646 9.43555 616.215 8.67383 616.941 8.11133C617.668 7.53711 618.488 7.10938 619.402 6.82812C620.328 6.54688 621.342 6.40625 622.443 6.40625C625.033 6.40625 627.143 6.96875 628.771 8.09375C630.412 9.21875 631.232 10.707 631.232 12.5586ZM635.012 31.7012C636.031 31.0801 636.541 28.3848 636.541 23.6152V14.4219C636.482 13.5547 636.342 12.8809 636.119 12.4004C635.896 11.9199 635.545 11.6211 635.064 11.5039V10.5195C636.318 10.332 637.396 9.97461 638.299 9.44727C639.213 8.91992 640.098 8.07031 640.953 6.89844V23.6152C640.953 28.3848 641.463 31.0801 642.482 31.7012V32H640.953H636.541H635.012V31.7012ZM664.244 27.6582V32H645.172C645.172 31.168 645.342 30.3711 645.682 29.6094C646.033 28.8359 646.502 28.1387 647.088 27.5176C647.674 26.8965 648.342 26.2871 649.092 25.6895C649.854 25.0918 650.656 24.5117 651.5 23.9492C652.344 23.3867 653.182 22.8184 654.014 22.2441C654.857 21.6699 655.654 21.0605 656.404 20.416C657.166 19.7598 657.84 19.0801 658.426 18.377C659.012 17.6738 659.475 16.877 659.814 15.9863C660.166 15.0957 660.342 14.1582 660.342 13.1738C660.342 12.5293 660.295 11.9199 660.201 11.3457C660.107 10.7598 659.938 10.1797 659.691 9.60547C659.457 9.01953 659.152 8.52148 658.777 8.11133C658.402 7.68945 657.91 7.34961 657.301 7.0918C656.691 6.83398 656 6.70508 655.227 6.70508C654.488 6.70508 653.809 6.86328 653.188 7.17969C652.578 7.49609 652.086 7.90039 651.711 8.39258C651.336 8.88477 651.061 9.43555 650.885 10.0449C650.709 10.6543 650.65 11.2461 650.709 11.8203C650.779 12.3828 650.984 12.9102 651.324 13.4023C651.676 13.8945 652.15 14.2578 652.748 14.4922V14.791H646.402C646.402 9.20117 649.344 6.40625 655.227 6.40625C656.539 6.40625 657.734 6.54688 658.812 6.82812C659.902 7.10938 660.805 7.47852 661.52 7.93555C662.246 8.39258 662.855 8.93164 663.348 9.55273C663.84 10.1738 664.197 10.8125 664.42 11.4688C664.643 12.1133 664.754 12.7813 664.754 13.4727C664.754 14.6211 664.525 15.6875 664.068 16.6719C663.623 17.6445 663.008 18.4883 662.223 19.2031C661.438 19.918 660.564 20.5801 659.604 21.1895C658.643 21.7871 657.594 22.3496 656.457 22.877C655.332 23.4043 654.254 23.9023 653.223 24.3711C652.203 24.8281 651.178 25.3496 650.146 25.9355C649.127 26.5098 648.289 27.084 647.633 27.6582H654.893C655.924 27.6582 656.891 27.5938 657.793 27.4648C658.707 27.3242 659.586 27.1074 660.43 26.8145C661.273 26.5215 662 26.1055 662.609 25.5664C663.219 25.0156 663.658 24.3652 663.928 23.6152H664.244V27.6582ZM667.637 31.7012C668.656 31.0801 669.166 28.3848 669.166 23.6152V14.4219C669.107 13.5547 668.967 12.8809 668.744 12.4004C668.521 11.9199 668.17 11.6211 667.689 11.5039V10.5195C668.943 10.332 670.021 9.97461 670.924 9.44727C671.838 8.91992 672.723 8.07031 673.578 6.89844V23.6152C673.578 28.3848 674.088 31.0801 675.107 31.7012V32H673.578H669.166H667.637V31.7012ZM678.395 6.89844H697.73L692.193 17.7266C691.209 19.707 690.389 21.6934 689.732 23.6855C689.088 25.666 688.713 27.4121 688.607 28.9238C688.514 30.4238 688.848 31.3496 689.609 31.7012V32H680.486L680.627 31.7188C680.533 31.8828 680.486 31.9766 680.486 32H677.832V31.7012C678.359 31.6426 678.904 31.4082 679.467 30.998C680.041 30.5762 680.574 30.0664 681.066 29.4688C681.57 28.8711 682.139 28.0625 682.771 27.043C683.404 26.0117 683.973 25.0273 684.477 24.0898C684.98 23.1523 685.602 21.9688 686.34 20.5391L693.16 7.19727H687.764C686.732 7.19727 685.76 7.26758 684.846 7.4082C683.943 7.53711 683.07 7.75391 682.227 8.05859C681.383 8.35156 680.65 8.77344 680.029 9.32422C679.42 9.86328 678.98 10.5078 678.711 11.2578H678.412V7.19727L678.395 6.89844ZM714.043 6.03711C716.07 6.03711 717.875 6.2832 719.457 6.77539C721.051 7.25586 722.363 7.91211 723.395 8.74414C724.426 9.57617 725.275 10.584 725.943 11.7676C726.623 12.9512 727.104 14.1992 727.385 15.5117C727.666 16.8125 727.807 18.2246 727.807 19.748C727.807 21.1543 727.666 22.4434 727.385 23.6152C727.104 24.7871 726.734 25.7598 726.277 26.5332C725.832 27.3066 725.322 27.9629 724.748 28.502C724.186 29.041 723.617 29.4277 723.043 29.6621C722.48 29.8965 721.93 30.0137 721.391 30.0137C720.125 30.0137 719.135 29.6797 718.42 29.0117C717.717 28.3438 717.365 27.5352 717.365 26.5859C717.061 27.2188 716.557 27.7344 715.854 28.1328C715.162 28.5312 714.283 28.7305 713.217 28.7305C712.115 28.7305 711.113 28.4785 710.211 27.9746C709.309 27.459 708.576 26.7734 708.014 25.918C707.451 25.0625 707.018 24.1074 706.713 23.0527C706.408 21.9863 706.256 20.8848 706.256 19.748C706.256 18.6113 706.408 17.5156 706.713 16.4609C707.018 15.3945 707.451 14.4336 708.014 13.5781C708.576 12.7227 709.309 12.043 710.211 11.5391C711.113 11.0234 712.115 10.7656 713.217 10.7656C714.4 10.7656 715.625 10.8535 716.891 11.0293C718.156 11.1934 719.211 11.2754 720.055 11.2754V26.5859C720.055 27.4648 720.107 28.1387 720.213 28.6074C720.33 29.0762 720.477 29.375 720.652 29.5039C720.828 29.6328 721.074 29.6973 721.391 29.6973C722.082 29.6973 722.709 29.2871 723.271 28.4668C723.834 27.6348 724.279 26.457 724.607 24.9336C724.936 23.3984 725.1 21.6699 725.1 19.748C725.1 18.248 724.988 16.8652 724.766 15.5996C724.555 14.334 724.186 13.1211 723.658 11.9609C723.131 10.8008 722.457 9.81641 721.637 9.00781C720.816 8.19922 719.762 7.55469 718.473 7.07422C717.184 6.59375 715.707 6.35352 714.043 6.35352C712.039 6.35352 710.188 6.93359 708.488 8.09375C706.789 9.24219 705.441 10.8066 704.445 12.7871C703.461 14.7676 702.969 16.9297 702.969 19.2734C702.969 21.6172 703.461 23.7793 704.445 25.7598C705.441 27.7402 706.789 29.3105 708.488 30.4707C710.188 31.6191 712.039 32.1934 714.043 32.1934C715.262 32.1934 716.469 31.9531 717.664 31.4727V32.0352C716.48 32.3398 715.273 32.4922 714.043 32.4922C712.18 32.4922 710.398 32.1465 708.699 31.4551C707 30.752 705.529 29.8145 704.287 28.6426C703.057 27.459 702.078 26.0527 701.352 24.4238C700.625 22.7832 700.262 21.0664 700.262 19.2734C700.262 17.4805 700.625 15.7695 701.352 14.1406C702.078 12.5 703.057 11.0879 704.287 9.9043C705.529 8.7207 707 7.7832 708.699 7.0918C710.398 6.38867 712.18 6.03711 714.043 6.03711ZM717.365 14.6855V14.2988C717.342 13.7246 717.184 13.2207 716.891 12.7871C716.609 12.3418 716.252 12.002 715.818 11.7676C715.385 11.5332 714.945 11.3633 714.5 11.2578C714.066 11.1406 713.639 11.082 713.217 11.082C710.381 11.082 708.963 13.9707 708.963 19.748C708.963 25.5254 710.381 28.4141 713.217 28.4141C713.639 28.4141 714.066 28.3613 714.5 28.2559C714.945 28.1387 715.385 27.9629 715.818 27.7285C716.252 27.4941 716.609 27.1602 716.891 26.7266C717.184 26.2812 717.342 25.7715 717.365 25.1973V24.8105V14.6855ZM749.568 23.6152C749.568 28.3848 750.072 31.0801 751.08 31.7012V32H745.139H743.627V31.7012C744.635 31.0801 745.139 28.3848 745.139 23.6152V21.5938C745.139 19.3438 744.846 17.7441 744.26 16.7949C743.674 15.8457 742.725 15.3711 741.412 15.3711C740.979 15.3711 740.498 15.4648 739.971 15.6523C739.455 15.8398 738.945 16.1035 738.441 16.4434C737.949 16.7832 737.533 17.2461 737.193 17.832C736.865 18.4062 736.701 19.0332 736.701 19.7129V23.6152C736.701 28.3848 737.211 31.0801 738.23 31.7012V32H732.289H730.76V31.7012C731.697 31.127 732.207 28.7773 732.289 24.6523C732.207 20.5156 731.697 18.1602 730.76 17.5859V17.2871C731.744 17.2871 732.793 17.1113 733.906 16.7598C735.031 16.3965 735.963 15.9102 736.701 15.3008V18.2539C737.076 17.2695 737.762 16.4492 738.758 15.793C739.754 15.125 741.113 14.791 742.836 14.791C745.027 14.791 746.697 15.3359 747.846 16.4258C748.994 17.5039 749.568 19.2266 749.568 21.5938V23.6152ZM770.293 23.4746C770.293 28.3027 770.797 31.0332 771.805 31.666V31.9824H770.293C768.641 31.9824 766.789 32.0645 764.738 32.2285C762.699 32.3926 761.428 32.4746 760.924 32.4746C758.287 32.4746 756.33 32.082 755.053 31.2969C753.775 30.5 753.137 29.4863 753.137 28.2559C753.137 27.4473 753.371 26.7441 753.84 26.1465C754.309 25.5371 754.918 25.0566 755.668 24.7051C756.418 24.3418 757.244 24.0195 758.146 23.7383C759.061 23.4453 759.969 23.1641 760.871 22.8945C761.785 22.6133 762.617 22.3086 763.367 21.9805C764.117 21.6523 764.727 21.2129 765.195 20.6621C765.664 20.1113 765.898 19.4668 765.898 18.7285V18.0078C765.898 16.8359 765.588 16.0156 764.967 15.5469C764.346 15.0781 763.455 14.8438 762.295 14.8438C761.111 14.8438 759.945 15.0781 758.797 15.5469C757.648 16.0156 756.646 16.7129 755.791 17.6387C754.936 18.5527 754.402 19.5898 754.191 20.75H753.945V16.3555C754.895 15.7812 756.166 15.3359 757.76 15.0195C759.365 14.6914 760.877 14.5273 762.295 14.5273C763.115 14.5273 763.977 14.6035 764.879 14.7559C765.793 14.9082 766.654 15.125 767.463 15.4062C768.283 15.6758 768.957 16.0391 769.484 16.4961C770.023 16.9531 770.293 17.457 770.293 18.0078V23.4746ZM765.881 27.3242V20.1699C765.682 20.627 765.371 21.043 764.949 21.418C764.527 21.7812 764.064 22.0918 763.561 22.3496C763.068 22.5957 762.535 22.8477 761.961 23.1055C761.398 23.3516 760.859 23.6211 760.344 23.9141C759.828 24.207 759.354 24.541 758.92 24.916C758.498 25.2793 758.158 25.748 757.9 26.3223C757.654 26.8848 757.531 27.5293 757.531 28.2559C757.531 29.334 757.824 30.2539 758.41 31.0156C759.008 31.7773 759.846 32.1582 760.924 32.1582C761.557 32.1582 762.143 32.082 762.682 31.9297C763.232 31.7773 763.754 31.5312 764.246 31.1914C764.75 30.8516 765.148 30.3535 765.441 29.6973C765.734 29.0293 765.881 28.2383 765.881 27.3242ZM788.328 15.3008H789.857V15.5996C789.072 15.9277 788.416 16.4844 787.889 17.2695C787.373 18.043 786.846 19.0977 786.307 20.4336L782.896 28.9941L784.092 32H779.68L776.691 24.4766C775.766 22.1211 774.828 20.1641 773.879 18.6055C772.941 17.0469 772.156 16.0449 771.523 15.5996V15.3008H777.465H778.994V15.5996C778.291 16.1035 778.895 18.7988 780.805 23.6855L782.738 28.5898L784.391 24.459L784.373 24.4766L784.391 24.459L784.988 22.9473C785.375 21.916 785.633 21.0488 785.762 20.3457C785.902 19.6426 785.914 18.9805 785.797 18.3594C785.691 17.7383 785.398 17.2109 784.918 16.7773C784.449 16.332 783.775 15.9395 782.896 15.5996V15.3008H788.328L788.293 15.3887C788.293 15.377 788.299 15.3594 788.311 15.3359L788.328 15.3008ZM806.961 28.2383L807.225 28.3789C806.85 29.375 805.988 30.3125 804.641 31.1914C803.305 32.0586 801.811 32.4922 800.158 32.4922C798.576 32.4922 797.129 32.2637 795.816 31.8066C794.504 31.3379 793.414 30.7051 792.547 29.9082C791.68 29.0996 791.006 28.1621 790.525 27.0957C790.057 26.0176 789.822 24.8691 789.822 23.6504C789.822 22.0098 790.168 20.5273 790.859 19.2031C791.562 17.8672 792.6 16.8008 793.971 16.0039C795.342 15.1953 796.93 14.791 798.734 14.791C799.602 14.791 800.498 14.9258 801.424 15.1953C802.361 15.4648 803.229 15.8398 804.025 16.3203C804.834 16.8008 805.496 17.4219 806.012 18.1836C806.527 18.9453 806.785 19.7715 806.785 20.6621C806.785 21.623 806.504 22.4785 805.941 23.2285C805.379 23.9668 804.652 24.5469 803.762 24.9688C802.883 25.3789 801.975 25.6895 801.037 25.9004C800.111 26.0996 799.197 26.1992 798.295 26.1992C796.736 26.1992 795.418 25.959 794.34 25.4785C794.551 27.5059 795.131 29.1289 796.08 30.3477C797.029 31.5664 798.395 32.1758 800.176 32.1758C801.629 32.1758 803.029 31.7773 804.377 30.9805C805.736 30.1719 806.598 29.2578 806.961 28.2383ZM794.252 23.6504C794.252 24.2363 794.264 24.6758 794.287 24.9688C795.283 25.5781 796.625 25.8828 798.312 25.8828C799.672 25.8828 800.686 25.4258 801.354 24.5117C802.033 23.5859 802.373 22.3027 802.373 20.6621C802.373 16.959 801.166 15.1074 798.752 15.1074C797.955 15.1074 797.258 15.3359 796.66 15.793C796.062 16.2383 795.594 16.8652 795.254 17.6738C794.914 18.4824 794.662 19.3848 794.498 20.3809C794.334 21.3652 794.252 22.4551 794.252 23.6504ZM819.986 14.791C820.9 14.791 821.85 14.9551 822.834 15.2832C823.818 15.6113 824.674 16.0449 825.4 16.584L824.75 23.6504H824.521C824.346 22.6895 824.111 21.7812 823.818 20.9258C823.525 20.0703 823.156 19.2617 822.711 18.5C822.277 17.7383 821.744 17.1348 821.111 16.6895C820.49 16.2324 819.811 16.0039 819.072 16.0039C818.018 16.0039 817.162 16.3672 816.506 17.0938C815.85 17.8086 815.451 18.6523 815.311 19.625V23.6152C815.311 28.3848 815.82 31.0801 816.84 31.7012V32H810.898H809.369V31.7012C810.307 31.127 810.816 28.7773 810.898 24.6523C810.816 20.5156 810.307 18.1602 809.369 17.5859V17.2871C810.354 17.2871 811.402 17.1113 812.516 16.7598C813.641 16.3965 814.572 15.9102 815.311 15.3008V18.3594C815.662 17.3516 816.23 16.5078 817.016 15.8281C817.801 15.1367 818.791 14.791 819.986 14.791ZM826.332 28.748C826.766 28.3145 827.287 28.0977 827.896 28.0977C828.506 28.0977 829.021 28.3145 829.443 28.748C829.877 29.1699 830.094 29.6855 830.094 30.2949C830.094 30.9043 829.877 31.4258 829.443 31.8594C829.021 32.2812 828.506 32.4922 827.896 32.4922C827.287 32.4922 826.766 32.2812 826.332 31.8594C825.91 31.4258 825.699 30.9043 825.699 30.2949C825.699 29.6855 825.91 29.1699 826.332 28.748ZM848.639 28.2383L848.902 28.3789C848.516 29.4102 847.719 30.3535 846.512 31.209C845.316 32.0645 843.904 32.4922 842.275 32.4922C840.693 32.4922 839.281 32.2637 838.039 31.8066C836.797 31.3496 835.783 30.7168 834.998 29.9082C834.225 29.0879 833.633 28.1504 833.223 27.0957C832.824 26.041 832.625 24.8926 832.625 23.6504C832.625 22.4199 832.83 21.2715 833.24 20.2051C833.662 19.127 834.26 18.1895 835.033 17.3926C835.807 16.584 836.779 15.9512 837.951 15.4941C839.135 15.0254 840.447 14.791 841.889 14.791C842.627 14.791 843.354 14.8906 844.068 15.0898C844.783 15.2891 845.457 15.5879 846.09 15.9863C846.734 16.373 847.25 16.918 847.637 17.6211C848.035 18.3125 848.234 19.1035 848.234 19.9941H847.918H842.539V19.6953C843.137 19.5195 843.617 19.25 843.98 18.8867C844.355 18.5117 844.566 18.1133 844.613 17.6914C844.66 17.2695 844.602 16.8652 844.438 16.4785C844.285 16.0801 843.98 15.752 843.523 15.4941C843.066 15.2363 842.521 15.1074 841.889 15.1074C840.998 15.1074 840.225 15.3359 839.568 15.793C838.924 16.2383 838.42 16.8711 838.057 17.6914C837.705 18.5 837.447 19.3965 837.283 20.3809C837.119 21.3535 837.037 22.4434 837.037 23.6504C837.037 24.459 837.066 25.2031 837.125 25.8828C837.184 26.5508 837.283 27.2188 837.424 27.8867C837.564 28.5547 837.764 29.1406 838.021 29.6445C838.291 30.1367 838.613 30.582 838.988 30.9805C839.363 31.3672 839.826 31.666 840.377 31.877C840.939 32.0762 841.578 32.1758 842.293 32.1758C843.723 32.1758 845.041 31.7832 846.248 30.998C847.467 30.2012 848.264 29.2812 848.639 28.2383ZM859.66 14.791C861.289 14.791 862.795 15.1895 864.178 15.9863C865.561 16.7715 866.65 17.8438 867.447 19.2031C868.256 20.5625 868.66 22.0449 868.66 23.6504C868.66 25.2559 868.256 26.7383 867.447 28.0977C866.65 29.4453 865.561 30.5176 864.178 31.3145C862.795 32.0996 861.289 32.4922 859.66 32.4922C857.176 32.4922 855.049 31.6309 853.279 29.9082C851.521 28.1738 850.643 26.0879 850.643 23.6504C850.643 22.4551 850.877 21.3125 851.346 20.2227C851.826 19.1211 852.471 18.1777 853.279 17.3926C854.088 16.5957 855.049 15.9629 856.162 15.4941C857.275 15.0254 858.441 14.791 859.66 14.791ZM859.66 32.1758C860.492 32.1758 861.26 31.7949 861.963 31.0332C862.666 30.2715 863.223 29.2402 863.633 27.9395C864.043 26.627 864.248 25.1973 864.248 23.6504C864.248 22.1035 864.043 20.6738 863.633 19.3613C863.223 18.0488 862.666 17.0117 861.963 16.25C861.26 15.4883 860.492 15.1074 859.66 15.1074C858.828 15.1074 858.055 15.4883 857.34 16.25C856.637 17.0117 856.08 18.0488 855.67 19.3613C855.26 20.6738 855.055 22.1035 855.055 23.6504C855.055 26.0059 855.506 28.0156 856.408 29.6797C857.311 31.3438 858.395 32.1758 859.66 32.1758ZM902.305 23.6152C902.305 28.3848 902.814 31.0801 903.834 31.7012V32H897.893H896.363V31.7012C897.383 31.0801 897.893 28.3848 897.893 23.6152V21.5938C897.893 19.3438 897.594 17.7441 896.996 16.7949C896.41 15.8457 895.461 15.3711 894.148 15.3711C893.715 15.3711 893.234 15.4648 892.707 15.6523C892.191 15.8398 891.688 16.1035 891.195 16.4434C890.703 16.7832 890.287 17.2461 889.947 17.832C889.619 18.4062 889.455 19.0332 889.455 19.7129V23.6152C889.455 28.3848 889.959 31.0801 890.967 31.7012V32H885.025H883.514V31.7012C884.521 31.0801 885.025 28.3848 885.025 23.6152V21.5938C885.025 19.3438 884.732 17.7441 884.146 16.7949C883.561 15.8457 882.611 15.3711 881.299 15.3711C880.865 15.3711 880.385 15.4648 879.857 15.6523C879.342 15.8398 878.838 16.1035 878.346 16.4434C877.854 16.7832 877.438 17.2461 877.098 17.832C876.77 18.4062 876.605 19.0332 876.605 19.7129H876.588V23.6152C876.588 28.3848 877.098 31.0801 878.117 31.7012V32H872.176H870.646V31.7012C871.584 31.127 872.094 28.7773 872.176 24.6523C872.094 20.5156 871.584 18.1602 870.646 17.5859V17.2871C871.631 17.2871 872.68 17.1113 873.793 16.7598C874.918 16.3965 875.85 15.9102 876.588 15.3008V18.2539C876.963 17.2695 877.648 16.4492 878.645 15.793C879.641 15.125 881 14.791 882.723 14.791C884.504 14.791 885.975 15.1484 887.135 15.8633C888.295 16.5781 889.021 17.5098 889.314 18.6582C889.42 18.2715 889.566 17.9082 889.754 17.5684C889.953 17.2168 890.223 16.8711 890.562 16.5312C890.914 16.1797 891.312 15.8809 891.758 15.6348C892.203 15.3887 892.754 15.1895 893.41 15.0371C894.066 14.873 894.787 14.791 895.572 14.791C897.764 14.791 899.434 15.3359 900.582 16.4258C901.73 17.5039 902.305 19.2266 902.305 21.5938V23.6152Z" fill="white"/>
</svg>
