<svg width="547" height="118" viewBox="0 0 547 118" fill="none" xmlns="http://www.w3.org/2000/svg">
<path d="M70.9875 11L71.925 30.875H69.55C69.0917 27.375 68.4667 24.875 67.675 23.375C66.3833 20.9583 64.6542 19.1875 62.4875 18.0625C60.3625 16.8958 57.55 16.3125 54.05 16.3125H42.1125V81.0625C42.1125 86.2708 42.675 89.5208 43.8 90.8125C45.3833 92.5625 47.8208 93.4375 51.1125 93.4375H54.05V95.75H18.1125V93.4375H21.1125C24.6958 93.4375 27.2375 92.3542 28.7375 90.1875C29.6542 88.8542 30.1125 85.8125 30.1125 81.0625V16.3125H19.925C15.9667 16.3125 13.1542 16.6042 11.4875 17.1875C9.32082 17.9792 7.46665 19.5 5.92499 21.75C4.38332 24 3.46665 27.0417 3.17499 30.875H0.799988L1.79999 11H70.9875ZM79.7875 6.125V48C84.4125 42.9167 88.0792 39.6667 90.7875 38.25C93.4958 36.7917 96.2042 36.0625 98.9125 36.0625C102.162 36.0625 104.954 36.9583 107.287 38.75C109.621 40.5417 111.35 43.3542 112.475 47.1875C113.267 49.8542 113.662 54.7292 113.662 61.8125V82.0625C113.662 85.6875 113.954 88.1667 114.537 89.5C114.954 90.5 115.662 91.2917 116.662 91.875C117.662 92.4583 119.496 92.75 122.162 92.75V95H94.0375V92.75H95.35C98.0167 92.75 99.8708 92.3542 100.912 91.5625C101.954 90.7292 102.683 89.5208 103.1 87.9375C103.225 87.2708 103.287 85.3125 103.287 82.0625V61.8125C103.287 55.5625 102.954 51.4583 102.287 49.5C101.662 47.5417 100.642 46.0833 99.225 45.125C97.8083 44.125 96.1 43.625 94.1 43.625C92.0583 43.625 89.9333 44.1667 87.725 45.25C85.5167 46.3333 82.8708 48.5208 79.7875 51.8125V82.0625C79.7875 85.9792 79.9958 88.4167 80.4125 89.375C80.8708 90.3333 81.6833 91.1458 82.85 91.8125C84.0583 92.4375 86.1208 92.75 89.0375 92.75V95H60.6625V92.75C63.2042 92.75 65.2042 92.3542 66.6625 91.5625C67.4958 91.1458 68.1625 90.3542 68.6625 89.1875C69.1625 88.0208 69.4125 85.6458 69.4125 82.0625V30.25C69.4125 23.7083 69.2458 19.6875 68.9125 18.1875C68.6208 16.6875 68.1417 15.6667 67.475 15.125C66.85 14.5833 65.9958 14.3125 64.9125 14.3125C64.0375 14.3125 62.6208 14.6458 60.6625 15.3125L59.7875 13.125L76.9125 6.125H79.7875ZM150.962 89.5C145.087 94.0417 141.4 96.6667 139.9 97.375C137.65 98.4167 135.254 98.9375 132.712 98.9375C128.754 98.9375 125.504 97.5833 122.962 94.875C120.379 92.1667 119.087 88.6042 119.087 84.1875C119.087 81.3958 119.712 78.9792 120.962 76.9375C122.671 74.1042 125.629 71.4375 129.837 68.9375C134.087 66.4375 141.129 63.3958 150.962 59.8125V57.5625C150.962 51.8542 150.046 47.9375 148.212 45.8125C146.421 43.6875 143.796 42.625 140.337 42.625C137.712 42.625 135.629 43.3333 134.087 44.75C132.504 46.1667 131.712 47.7917 131.712 49.625L131.837 53.25C131.837 55.1667 131.337 56.6458 130.337 57.6875C129.379 58.7292 128.108 59.25 126.525 59.25C124.983 59.25 123.733 58.7083 122.775 57.625C121.775 56.5417 121.275 55.0625 121.275 53.1875C121.275 49.6042 123.108 46.3125 126.775 43.3125C130.442 40.3125 135.587 38.8125 142.212 38.8125C147.296 38.8125 151.462 39.6667 154.712 41.375C157.171 42.6667 158.983 44.6875 160.15 47.4375C160.9 49.2292 161.275 52.8958 161.275 58.4375V77.875C161.275 83.3333 161.379 86.6875 161.587 87.9375C161.796 89.1458 162.129 89.9583 162.587 90.375C163.087 90.7917 163.65 91 164.275 91C164.942 91 165.525 90.8542 166.025 90.5625C166.9 90.0208 168.587 88.5 171.087 86V89.5C166.421 95.75 161.962 98.875 157.712 98.875C155.671 98.875 154.046 98.1667 152.837 96.75C151.629 95.3333 151.004 92.9167 150.962 89.5ZM151.712 85.6875V63.875L142.275 67.625L139.525 69.1875L134.587 71.9375L130.337 77.9375V81.5V86L135.712 91.9375H139.212H143.962L151.712 85.6875ZM186.887 46.6875C193.596 38.6042 199.992 34.5625 206.075 34.5625C209.2 34.5625 211.887 35.3542 214.137 36.9375C216.387 38.4792 218.179 41.0417 219.512 44.625C220.429 47.125 220.887 50.9583 220.887 56.125V80.5625C220.887 84.1875 221.179 86.6458 221.762 87.9375C222.221 88.9792 222.95 89.7917 223.95 90.375C224.992 90.9583 226.887 91.25 229.637 91.25V93.5H201.325V91.25H202.512C205.179 91.25 207.033 90.8542 208.075 90.0625C209.158 89.2292 209.908 88.0208 210.325 86.4375C210.492 85.8125 210.575 83.8542 210.575 80.5625V57.125C210.575 51.9167 209.887 48.1458 208.512 45.8125C207.179 43.4375 204.908 42.25 201.7 42.25C196.742 42.25 191.804 44.9583 186.887 50.375V80.5625C186.887 84.4375 187.117 86.8333 187.575 87.75C188.158 88.9583 188.95 89.8542 189.95 90.4375C190.992 90.9792 193.075 91.25 196.2 91.25V93.5H167.887V91.25H169.137C172.054 91.25 174.033 90.5208 175.075 89.0625C176.075 87.5625 176.575 84.7292 176.575 80.5625V59.3125C176.575 52.4375 176.429 48.25 176.137 46.75C175.804 45.25 175.325 44.2292 174.7 43.6875C174.033 43.1458 173.158 42.875 172.075 42.875C170.908 42.875 169.512 43.1875 167.887 43.8125L166.95 41.5625L184.2 34.5625H186.887V46.6875ZM244.187 0.125V57.125L258.75 43.8125C261.833 40.9792 263.625 39.1875 264.125 38.4375C264.458 37.9375 264.625 37.4375 264.625 36.9375C264.625 36.1042 264.271 35.3958 263.562 34.8125C262.896 34.1875 261.771 33.8333 260.187 33.75V31.75H285.062V33.75C281.646 33.8333 278.792 34.3542 276.5 35.3125C274.25 36.2708 271.771 37.9792 269.062 40.4375L254.375 54L269.062 72.5625C273.146 77.6875 275.896 80.9375 277.312 82.3125C279.312 84.2708 281.062 85.5417 282.562 86.125C283.604 86.5417 285.417 86.75 288 86.75V89H260.187V86.75C261.771 86.7083 262.833 86.4792 263.375 86.0625C263.958 85.6042 264.25 84.9792 264.25 84.1875C264.25 83.2292 263.417 81.6875 261.75 79.5625L244.187 57.125V76.125C244.187 79.8333 244.437 82.2708 244.937 83.4375C245.479 84.6042 246.229 85.4375 247.187 85.9375C248.146 86.4375 250.229 86.7083 253.437 86.75V89H224.312V86.75C227.229 86.75 229.417 86.3958 230.875 85.6875C231.75 85.2292 232.417 84.5208 232.875 83.5625C233.5 82.1875 233.812 79.8125 233.812 76.4375V24.3125C233.812 17.6875 233.667 13.6458 233.375 12.1875C233.083 10.6875 232.604 9.66667 231.937 9.125C231.271 8.54167 230.396 8.25 229.312 8.25C228.437 8.25 227.125 8.60417 225.375 9.3125L224.312 7.125L241.312 0.125H244.187ZM370.1 9.5H399.662V11.8125H398.037C396.954 11.8125 395.371 12.2917 393.287 13.25C391.204 14.2083 389.308 15.5833 387.6 17.375C385.892 19.1667 383.787 22.0833 381.287 26.125L360.85 58.3125V79.5625C360.85 84.7708 361.433 88.0208 362.6 89.3125C364.183 91.0625 366.683 91.9375 370.1 91.9375H372.85V94.25H336.85V91.9375H339.85C343.433 91.9375 345.975 90.8542 347.475 88.6875C348.392 87.3542 348.85 84.3125 348.85 79.5625V59.5L325.6 24C322.85 19.8333 320.996 17.2292 320.037 16.1875C319.037 15.1458 316.996 13.8958 313.912 12.4375C313.079 12.0208 311.871 11.8125 310.287 11.8125V9.5H346.537V11.8125H344.662C342.704 11.8125 340.892 12.2708 339.225 13.1875C337.6 14.1042 336.787 15.4792 336.787 17.3125C336.787 18.8125 338.058 21.5208 340.6 25.4375L358.287 52.75L374.912 26.625C377.412 22.7083 378.662 19.7917 378.662 17.875C378.662 16.7083 378.35 15.6667 377.725 14.75C377.142 13.8333 376.287 13.125 375.162 12.625C374.037 12.0833 372.35 11.8125 370.1 11.8125V9.5ZM408.525 51.8125C417.192 51.8125 424.15 55.1042 429.4 61.6875C433.858 67.3125 436.087 73.7708 436.087 81.0625C436.087 86.1875 434.858 91.375 432.4 96.625C429.942 101.875 426.546 105.833 422.212 108.5C417.921 111.167 413.129 112.5 407.837 112.5C399.212 112.5 392.358 109.062 387.275 102.188C382.983 96.3958 380.837 89.8958 380.837 82.6875C380.837 77.4375 382.129 72.2292 384.712 67.0625C387.337 61.8542 390.775 58.0208 395.025 55.5625C399.275 53.0625 403.775 51.8125 408.525 51.8125ZM406.837 109.062C411.421 109.062 415.192 107.062 418.15 103.062C422.525 97.2292 424.712 89.2292 424.712 79.0625C424.712 70.9375 423.4 65.2083 420.775 61.875C418.15 58.5417 414.817 56.875 410.775 56.875C405.358 56.875 400.983 59.8958 397.65 65.9375C394.358 71.9792 392.712 79.1667 392.712 87.5C392.712 92.6667 393.4 96.8958 394.775 100.188C396.15 103.479 397.942 105.771 400.15 107.062C402.4 108.396 404.629 109.062 406.837 109.062ZM491.762 43V77.6875C491.762 84.3125 491.908 88.375 492.2 89.875C492.533 91.3333 493.033 92.3542 493.7 92.9375C494.408 93.5208 495.221 93.8125 496.137 93.8125C497.429 93.8125 498.887 93.4583 500.512 92.75L501.387 94.9375L484.262 102H481.45V89.875C476.533 95.2083 472.783 98.5625 470.2 99.9375C467.617 101.312 464.887 102 462.012 102C458.804 102 456.012 101.083 453.637 99.25C451.304 97.375 449.679 94.9792 448.762 92.0625C447.846 89.1458 447.387 85.0208 447.387 79.6875V54.125C447.387 51.4167 447.096 49.5417 446.512 48.5C445.929 47.4583 445.075 46.6667 443.95 46.125C442.783 45.5417 440.7 45.2708 437.7 45.3125V43H457.762V81.3125C457.762 86.6458 458.679 90.1458 460.512 91.8125C462.387 93.4792 464.637 94.3125 467.262 94.3125C469.054 94.3125 471.075 93.75 473.325 92.625C475.617 91.5 478.325 89.3542 481.45 86.1875V53.75C481.45 50.5 480.846 48.3125 479.637 47.1875C478.471 46.0208 476.012 45.3958 472.262 45.3125V43H491.762ZM524.125 71.8125H521.75L516.25 21.1875C516 18.9792 515.875 17.3333 515.875 16.25C515.875 13.625 516.562 11.5208 517.938 9.9375C519.354 8.35417 521.042 7.5625 523 7.5625C524.958 7.5625 526.604 8.35417 527.938 9.9375C529.312 11.5208 530 13.875 530 17C530 18 529.917 19.3958 529.75 21.1875L524.125 71.8125ZM522.375 80.25C524.458 87.375 526.167 91.625 527.5 93C528.875 94.3333 535.167 95.8333 546.375 97.5C535.167 99.625 528.875 101.375 527.5 102.75C526.167 104.083 524.375 108.917 522.125 117.25C520.542 108.917 519.062 104.083 517.688 102.75C516.354 101.375 511.25 99.5417 502.375 97.25C511.25 95.75 516.354 94.3333 517.688 93C519.062 91.625 520.625 87.375 522.375 80.25Z" fill="white"/>
</svg>
