<svg width="144" height="198" viewBox="0 0 144 198" fill="none" xmlns="http://www.w3.org/2000/svg">
<path d="M143.879 0.284302V28.392C142.566 21.2655 140.264 15.1436 136.973 9.98836C133.681 4.83308 128.734 2.25544 122.17 2.25544H82.9573C76.3742 2.25544 70.5522 3.46845 65.4722 5.91341C60.3922 8.35838 56.1684 11.7131 52.7817 16.0344C49.3951 20.3558 46.8646 25.3973 45.1712 31.216C43.4779 37.0157 42.6407 43.2134 42.6407 49.7712C42.6407 56.329 43.4779 62.4699 45.1712 68.1748C46.8646 73.8987 49.357 78.9023 52.6485 83.2047C55.9401 87.5261 60.0688 90.9377 65.0536 93.4584C70.0385 95.9792 75.8225 97.2491 82.4055 97.2491H94.2589C99.7194 97.2491 104.457 95.9792 108.51 93.4584C112.543 90.9377 115.036 87.7914 115.987 84.0387V112.146C115.036 108.394 112.695 105.361 108.928 103.011C105.161 100.68 100.652 99.4097 95.3814 99.2202H66.6138C60.4112 99.2202 55.4644 100.301 51.8114 102.461C48.1393 104.622 45.2664 107.56 43.2116 111.312C41.1377 115.065 39.6917 119.462 38.8355 124.523C37.9793 129.583 37.3705 135.118 37.009 141.107V179.051C37.009 183.543 38.4169 187.448 41.2328 190.708C44.0487 193.986 47.6256 196.09 51.9446 197.038H0.326416C4.64537 196.299 8.22231 194.233 11.0382 190.859C13.8541 187.485 15.262 183.543 15.262 179.051V146.736C15.262 139.989 16.004 133.62 17.5261 127.631C19.0292 121.642 21.3885 116.392 24.5849 111.9C27.7813 107.408 31.8148 103.845 36.7236 101.229C41.6133 98.6137 47.5305 97.287 54.4941 97.287H57.0246C51.7543 95.7897 46.9217 93.5342 42.4885 90.5396C38.0745 87.545 34.2502 83.9439 31.0728 79.7173C27.8764 75.5097 25.3839 70.8662 23.5955 65.8057C21.807 60.7451 20.9128 55.4003 20.9128 49.7902C20.9128 43.0428 22.2256 36.6745 24.8702 30.6853C27.4959 24.6961 31.0728 19.446 35.582 14.9541C40.0912 10.4622 45.3615 6.89898 51.3738 4.28344C57.386 1.66789 63.874 0.341161 70.8376 0.341161H143.898L143.879 0.284302Z" fill="white"/>
</svg>
