<svg width="125" height="250" viewBox="0 0 125 250" fill="none" xmlns="http://www.w3.org/2000/svg">
<path d="M108.509 0H16.4911C7.37711 0 0 7.39756 0 16.5368V233.463C0 242.584 7.37711 250 16.4911 250H108.509C117.604 250 125 242.602 125 233.463V16.5368C125 7.41629 117.623 0 108.509 0ZM117.044 233.201C117.044 236.572 115.139 239.475 112.356 240.954C111.124 241.61 109.742 242.022 108.247 242.022H16.7526C14.3247 242.022 12.1209 241.029 10.5334 239.437C8.94591 237.846 7.95607 235.636 7.95607 233.201V16.799C7.95607 14.9637 8.51636 13.2781 9.45017 11.8735C9.93575 11.1432 10.5521 10.5251 11.2431 9.98202C12.7559 8.74597 14.6608 7.99685 16.7526 7.99685H108.247C113.103 7.99685 117.044 11.9485 117.044 16.8177V233.201Z" fill="url(#paint0_linear_340_304)"/>
<path d="M108.434 2.41577H16.5658C8.74042 2.41577 2.40918 8.76456 2.40918 16.6116V233.369C2.40918 241.216 8.74042 247.565 16.5658 247.565H108.434C116.259 247.565 122.591 241.216 122.591 233.369V16.6116C122.591 8.76456 116.259 2.41577 108.434 2.41577ZM117.044 233.201C117.044 238.07 113.103 242.022 108.247 242.022H16.7525C11.8967 242.022 7.95602 238.07 7.95602 233.201V16.7989C7.95602 11.9296 11.8967 7.97799 16.7525 7.97799H108.247C113.103 7.97799 117.044 11.9296 117.044 16.7989V233.201Z" fill="url(#paint1_linear_340_304)"/>
<defs>
<linearGradient id="paint0_linear_340_304" x1="-45.3272" y1="16.8739" x2="204.541" y2="266.051" gradientUnits="userSpaceOnUse">
<stop stop-color="white"/>
<stop offset="0.19" stop-color="#DDDDDD"/>
<stop offset="0.3" stop-color="#CFCFCF"/>
<stop offset="0.47" stop-color="#E5E5E5"/>
<stop offset="0.67" stop-color="white"/>
<stop offset="1" stop-color="white"/>
</linearGradient>
<linearGradient id="paint1_linear_340_304" x1="-43.2355" y1="18.9713" x2="201.782" y2="263.311" gradientUnits="userSpaceOnUse">
<stop offset="0.03" stop-color="#020202"/>
<stop offset="1"/>
</linearGradient>
</defs>
</svg>
