<svg width="139" height="198" viewBox="0 0 139 198" fill="none" xmlns="http://www.w3.org/2000/svg">
<path d="M116.93 195.313C120.127 195.313 122.942 193.494 125.397 189.836C127.832 186.178 129.906 181.818 131.599 176.777C133.293 171.716 134.701 166.466 135.823 161.046C136.946 155.606 137.802 151.114 138.354 147.551V197.019H0.965332C5.28429 196.28 8.86123 194.214 11.6771 190.84C14.493 187.467 15.9009 183.638 15.9009 179.317V18.2709C15.9009 13.779 14.493 9.89359 11.6771 6.61468C8.86123 3.33577 5.28429 1.23196 0.965332 0.284302H52.5835C48.2455 1.04243 44.6876 3.08938 41.8717 6.46306C39.0558 9.83673 37.6478 13.779 37.6478 18.2709V179.298C37.6478 182.671 38.5421 185.818 40.3306 188.717C42.1191 191.617 44.5163 193.816 47.5225 195.313H116.93Z" fill="white"/>
</svg>
