<svg width="237" height="50" viewBox="0 0 237 50" fill="none" xmlns="http://www.w3.org/2000/svg">
<path d="M26.9766 31.4297L27.75 31.5938L25.0312 40.2188H0.421875V39.3516H1.61719C2.96094 39.3516 3.92188 38.9141 4.5 38.0391C4.82812 37.5391 4.99219 36.3828 4.99219 34.5703V14.0625C4.99219 12.0781 4.77344 10.8359 4.33594 10.3359C3.72656 9.64844 2.82031 9.30469 1.61719 9.30469H0.421875V8.4375H14.8125V9.30469C13.125 9.28906 11.9375 9.44531 11.25 9.77344C10.5781 10.1016 10.1172 10.5156 9.86719 11.0156C9.61719 11.5156 9.49219 12.7109 9.49219 14.6016V34.5703C9.49219 35.8672 9.61719 36.7578 9.86719 37.2422C10.0547 37.5703 10.3438 37.8125 10.7344 37.9688C11.125 38.125 12.3438 38.2031 14.3906 38.2031H16.7109C19.1484 38.2031 20.8594 38.0234 21.8438 37.6641C22.8281 37.3047 23.7266 36.6719 24.5391 35.7656C25.3516 34.8438 26.1641 33.3984 26.9766 31.4297ZM46.2656 8.17969C50.3906 8.17969 53.9609 9.75 56.9766 12.8906C60.0078 16.0156 61.5234 19.9219 61.5234 24.6094C61.5234 29.4375 60 33.4453 56.9531 36.6328C53.9062 39.8203 50.2188 41.4141 45.8906 41.4141C41.5156 41.4141 37.8359 39.8594 34.8516 36.75C31.8828 33.6406 30.3984 29.6172 30.3984 24.6797C30.3984 19.6328 32.1172 15.5156 35.5547 12.3281C38.5391 9.5625 42.1094 8.17969 46.2656 8.17969ZM47.1328 9.60938C44.2891 9.60938 42.0078 10.6641 40.2891 12.7734C38.1484 15.3984 37.0781 19.2422 37.0781 24.3047C37.0781 29.4922 38.1875 33.4844 40.4062 36.2812C42.1094 38.4062 44.3594 39.4688 47.1562 39.4688C50.1406 39.4688 52.6016 38.3047 54.5391 35.9766C56.4922 33.6484 57.4688 29.9766 57.4688 24.9609C57.4688 19.5234 56.3984 15.4688 54.2578 12.7969C52.5391 10.6719 50.1641 9.60938 47.1328 9.60938ZM80.2031 3.58594L81.0234 13.6172H80.2031C79.375 11.1172 78.3047 9.23438 76.9922 7.96875C75.1016 6.14062 72.6719 5.22656 69.7031 5.22656C65.6562 5.22656 62.5781 6.82812 60.4688 10.0312C58.7031 12.7344 57.8203 15.9531 57.8203 19.6875C57.8203 22.7188 58.4062 25.4844 59.5781 27.9844C60.75 30.4844 62.2812 32.3203 64.1719 33.4922C66.0781 34.6484 68.0312 35.2266 70.0312 35.2266C71.2031 35.2266 72.3359 35.0781 73.4297 34.7812C74.5234 34.4844 75.5781 34.0469 76.5938 33.4688V24.2812C76.5938 22.6875 76.4688 21.6484 76.2188 21.1641C75.9844 20.6641 75.6094 20.2891 75.0938 20.0391C74.5938 19.7734 73.7031 19.6406 72.4219 19.6406V18.75H84.7266V19.6406H84.1406C82.9219 19.6406 82.0859 20.0469 81.6328 20.8594C81.3203 21.4375 81.1641 22.5781 81.1641 24.2812V34.0078C79.3672 34.9766 77.5938 35.6875 75.8438 36.1406C74.0938 36.5938 72.1484 36.8203 70.0078 36.8203C63.8672 36.8203 59.2031 34.8516 56.0156 30.9141C53.625 27.9609 52.4297 24.5547 52.4297 20.6953C52.4297 17.8984 53.1016 15.2188 54.4453 12.6562C56.0391 9.60938 58.2266 7.26562 61.0078 5.625C63.3359 4.26562 66.0859 3.58594 69.2578 3.58594C70.4141 3.58594 71.4609 3.67969 72.3984 3.86719C73.3516 4.05469 74.6953 4.46875 76.4297 5.10938C77.3047 5.4375 77.8906 5.60156 78.1875 5.60156C78.4844 5.60156 78.7344 5.46875 78.9375 5.20312C79.1562 4.92188 79.2891 4.38281 79.3359 3.58594H80.2031ZM101.766 8.17969C105.891 8.17969 109.461 9.75 112.477 12.8906C115.508 16.0156 117.023 19.9219 117.023 24.6094C117.023 29.4375 115.5 33.4453 112.453 36.6328C109.406 39.8203 105.719 41.4141 101.391 41.4141C97.0156 41.4141 93.3359 39.8594 90.3516 36.75C87.3828 33.6406 85.8984 29.6172 85.8984 24.6797C85.8984 19.6328 87.6172 15.5156 91.0547 12.3281C94.0391 9.5625 97.6094 8.17969 101.766 8.17969ZM102.633 9.60938C99.7891 9.60938 97.5078 10.6641 95.7891 12.7734C93.6484 15.3984 92.5781 19.2422 92.5781 24.3047C92.5781 29.4922 93.6875 33.4844 95.9062 36.2812C97.6094 38.4062 99.8594 39.4688 102.656 39.4688C105.641 39.4688 108.102 38.3047 110.039 35.9766C111.992 33.6484 112.969 29.9766 112.969 24.9609C112.969 19.5234 111.898 15.4688 109.758 12.7969C108.039 10.6719 105.664 9.60938 102.633 9.60938ZM138.281 40.0547C137.234 41.1484 136.211 41.9297 135.211 42.3984C134.211 42.8828 133.133 43.125 131.977 43.125C129.633 43.125 127.586 42.1406 125.836 40.1719C124.086 38.2188 123.211 35.7031 123.211 32.625C123.211 29.5469 124.18 26.7344 126.117 24.1875C128.055 21.625 130.547 20.3438 133.594 20.3438C135.484 20.3438 137.047 20.9453 138.281 22.1484V18.1875C138.281 15.7344 138.219 14.2266 138.094 13.6641C137.984 13.1016 137.805 12.7188 137.555 12.5156C137.305 12.3125 136.992 12.2109 136.617 12.2109C136.211 12.2109 135.672 12.3359 135 12.5859L134.695 11.7656L141.094 9.14062H142.148V33.9609C142.148 36.4766 142.203 38.0156 142.312 38.5781C142.438 39.125 142.625 39.5078 142.875 39.7266C143.141 39.9453 143.445 40.0547 143.789 40.0547C144.211 40.0547 144.773 39.9219 145.477 39.6562L145.734 40.4766L139.359 43.125H138.281V40.0547ZM138.281 38.9766V27.9141C138.188 26.8516 137.906 25.8828 137.438 25.0078C136.969 24.1328 136.344 23.4766 135.562 23.0391C134.797 22.5859 134.047 22.3594 133.312 22.3594C131.938 22.3594 130.711 22.9766 129.633 24.2109C128.211 25.8359 127.5 28.2109 127.5 31.3359C127.5 34.4922 128.188 36.9141 129.562 38.6016C130.938 40.2734 132.469 41.1094 134.156 41.1094C135.578 41.1094 136.953 40.3984 138.281 38.9766ZM148.308 22.5234C148.292 25.7109 149.066 28.2109 150.628 30.0234C152.191 31.8359 154.027 32.7422 156.136 32.7422C157.542 32.7422 158.761 32.3594 159.792 31.5938C160.839 30.8125 161.714 29.4844 162.417 27.6094L163.144 28.0781C162.816 30.2188 161.863 32.1719 160.284 33.9375C158.706 35.6875 156.73 36.5625 154.355 36.5625C151.777 36.5625 149.566 35.5625 147.722 33.5625C145.894 31.5469 144.98 28.8438 144.98 25.4531C144.98 21.7812 145.917 18.9219 147.792 16.875C149.683 14.8125 152.05 13.7812 154.894 13.7812C157.3 13.7812 159.277 14.5781 160.823 16.1719C162.37 17.75 163.144 19.8672 163.144 22.5234H148.308ZM148.261 21.1875H161.386C160.886 20 160.355 18.8125 159.792 17.625C158.73 16.8125 157.808 16.2969 157.027 16.0781C156.261 15.8438 155.456 15.7266 154.613 15.7266C153.316 15.7266 152.152 16.2344 151.12 17.25C150.105 18.25 149.152 19.5625 148.261 21.1875ZM177.952 13.8047V21.1172H177.178C176.584 18.8203 175.819 17.2578 174.881 16.4297C173.959 15.6016 172.78 15.1875 171.342 15.1875C170.248 15.1875 169.366 15.4766 168.694 16.0547C168.022 16.6328 167.686 17.2734 167.686 17.9766C167.686 18.8516 167.936 19.6016 168.436 20.2266C168.92 20.8672 169.905 21.5469 171.389 22.2656L174.811 23.9297C177.983 25.4766 179.569 27.5156 179.569 30.0469C179.569 32 178.827 33.5781 177.342 34.7812C175.873 35.9688 174.225 36.5625 172.397 36.5625C171.084 36.5625 169.584 36.3281 167.897 35.8594C167.381 35.7031 166.959 35.625 166.631 35.625C166.272 35.625 165.991 35.8281 165.788 36.2344H165.014V28.5703H165.788C166.225 30.7578 167.061 32.4062 168.295 33.5156C169.53 34.625 170.913 35.1797 172.444 35.1797C173.522 35.1797 174.397 34.8672 175.069 34.2422C175.756 33.6016 176.1 32.8359 176.1 31.9453C176.1 30.8672 175.717 29.9609 174.952 29.2266C174.202 28.4922 172.694 27.5625 170.428 26.4375C168.163 25.3125 166.678 24.2969 165.975 23.3906C165.272 22.5 164.92 21.375 164.92 20.0156C164.92 18.25 165.53 16.7734 166.748 15.5859C167.952 14.3984 169.514 13.8047 171.436 13.8047C172.28 13.8047 173.303 13.9844 174.506 14.3438C175.303 14.5781 175.834 14.6953 176.1 14.6953C176.35 14.6953 176.545 14.6406 176.686 14.5312C176.827 14.4219 176.991 14.1797 177.178 13.8047H177.952ZM187.58 0.1875C188.502 3.65625 189.189 5.625 189.642 6.09375C190.111 6.54687 192.486 7.04688 196.767 7.59375C192.486 8.35938 190.111 8.97656 189.642 9.44531C189.189 9.91406 188.627 11.8281 187.955 15.1875C187.314 11.8281 186.759 9.91406 186.291 9.44531C185.822 8.97656 183.595 8.29688 179.611 7.40625C183.595 6.98438 185.814 6.54687 186.267 6.09375C186.736 5.625 187.173 3.65625 187.58 0.1875ZM189.455 18.8672V36.1172C189.455 37.4609 189.548 38.3594 189.736 38.8125C189.939 39.25 190.228 39.5781 190.603 39.7969C190.994 40.0156 191.697 40.125 192.712 40.125V40.9688H182.283V40.125C183.33 40.125 184.033 40.0234 184.392 39.8203C184.752 39.6172 185.033 39.2812 185.236 38.8125C185.455 38.3438 185.564 37.4453 185.564 36.1172V27.8438C185.564 25.5156 185.494 24.0078 185.353 23.3203C185.244 22.8203 185.072 22.4766 184.837 22.2891C184.603 22.0859 184.283 21.9844 183.877 21.9844C183.439 21.9844 182.908 22.1016 182.283 22.3359L181.955 21.4922L188.423 18.8672H189.455ZM198.731 31.0781C197.419 30.4375 196.411 29.5469 195.708 28.4062C195.005 27.25 194.653 25.9766 194.653 24.5859C194.653 22.4609 195.458 20.6328 197.067 19.1016C198.661 17.5703 200.708 16.8047 203.208 16.8047C205.255 16.8047 207.028 17.3047 208.528 18.3047H213.075C213.747 18.3047 214.137 18.3281 214.247 18.375C214.356 18.4062 214.434 18.4688 214.481 18.5625C214.575 18.7031 214.622 18.9531 214.622 19.3125C214.622 19.7188 214.583 20 214.505 20.1562C214.458 20.2344 214.372 20.2969 214.247 20.3438C214.137 20.3906 213.747 20.4141 213.075 20.4141H210.286C211.161 21.5391 211.598 22.9766 211.598 24.7266C211.598 26.7266 210.833 28.4375 209.302 29.8594C207.77 31.2812 205.716 31.9922 203.137 31.9922C202.075 31.9922 200.989 31.8359 199.88 31.5234C199.192 32.1172 198.723 32.6406 198.473 33.0938C198.239 33.5312 198.122 33.9062 198.122 34.2188C198.122 34.4844 198.247 34.7422 198.497 34.9922C198.762 35.2422 199.27 35.4219 200.02 35.5312C200.458 35.5938 201.552 35.6484 203.302 35.6953C206.52 35.7734 208.606 35.8828 209.559 36.0234C211.012 36.2266 212.169 36.7656 213.028 37.6406C213.903 38.5156 214.341 39.5938 214.341 40.875C214.341 42.6406 213.512 44.2969 211.856 45.8438C209.419 48.125 206.239 49.2656 202.317 49.2656C199.302 49.2656 196.755 48.5859 194.677 47.2266C193.505 46.4453 192.919 45.6328 192.919 44.7891C192.919 44.4141 193.005 44.0391 193.177 43.6641C193.442 43.0859 193.989 42.2812 194.817 41.25C194.927 41.1094 195.723 40.2656 197.208 38.7188C196.395 38.2344 195.825 37.8047 195.497 37.4297C195.153 37.0391 194.981 36.6016 194.981 36.1172C194.981 35.5703 195.208 34.9297 195.661 34.1953C196.098 33.4609 197.122 32.4219 198.731 31.0781ZM202.903 17.6484C201.747 17.6484 200.778 18.1094 199.997 19.0312C199.216 19.9531 198.825 21.3672 198.825 23.2734C198.825 25.7422 199.356 27.6562 200.419 29.0156C201.231 30.0469 202.262 30.5625 203.512 30.5625C204.7 30.5625 205.677 30.1172 206.442 29.2266C207.208 28.3359 207.591 26.9375 207.591 25.0312C207.591 22.5469 207.052 20.6016 205.973 19.1953C205.177 18.1641 204.153 17.6484 202.903 17.6484ZM198.403 38.5312C197.669 39.3281 197.114 40.0703 196.739 40.7578C196.364 41.4453 196.177 42.0781 196.177 42.6562C196.177 43.4062 196.63 44.0625 197.536 44.625C199.098 45.5938 201.356 46.0781 204.309 46.0781C207.122 46.0781 209.192 45.5781 210.52 44.5781C211.864 43.5938 212.536 42.5391 212.536 41.4141C212.536 40.6016 212.137 40.0234 211.341 39.6797C210.528 39.3359 208.919 39.1328 206.512 39.0703C202.997 38.9766 200.294 38.7969 198.403 38.5312ZM220.078 17.8828C222.594 14.8516 224.992 13.3359 227.273 13.3359C228.445 13.3359 229.453 13.6328 230.297 14.2266C231.141 14.8047 231.812 15.7656 232.312 17.1094C232.656 18.0469 232.828 19.4844 232.828 21.4219V30.5859C232.828 31.9453 232.938 32.8672 233.156 33.3516C233.328 33.7422 233.602 34.0469 233.977 34.2656C234.367 34.4844 235.078 34.5938 236.109 34.5938V35.4375H225.492V34.5938H225.938C226.938 34.5938 227.633 34.4453 228.023 34.1484C228.43 33.8359 228.711 33.3828 228.867 32.7891C228.93 32.5547 228.961 31.8203 228.961 30.5859V21.7969C228.961 19.8438 228.703 18.4297 228.188 17.5547C227.688 16.6641 226.836 16.2188 225.633 16.2188C223.773 16.2188 221.922 17.2344 220.078 19.2656V30.5859C220.078 32.0391 220.164 32.9375 220.336 33.2812C220.555 33.7344 220.852 34.0703 221.227 34.2891C221.617 34.4922 222.398 34.5938 223.57 34.5938V35.4375H212.953V34.5938H213.422C214.516 34.5938 215.258 34.3203 215.648 33.7734C216.023 33.2109 216.211 32.1484 216.211 30.5859V22.6172C216.211 20.0391 216.156 18.4688 216.047 17.9062C215.922 17.3438 215.742 16.9609 215.508 16.7578C215.258 16.5547 214.93 16.4531 214.523 16.4531C214.086 16.4531 213.562 16.5703 212.953 16.8047L212.602 15.9609L219.07 13.3359H220.078V17.8828Z" fill="black"/>
</svg>
