<svg width="198" height="197" viewBox="0 0 198 197" fill="none" xmlns="http://www.w3.org/2000/svg">
<path d="M191.494 63.7966C195.451 75.0358 197.468 86.5215 197.563 98.2157C197.658 109.929 195.737 121.395 191.779 132.635C188.583 141.808 184.207 150.337 178.67 158.203C173.114 166.068 166.398 173.005 158.502 178.994C150.606 184.794 142.14 189.248 133.121 192.337C124.103 195.427 114.685 196.981 104.905 196.981H101.937C100.91 196.981 99.9206 196.886 98.9693 196.697C98.0179 196.886 97.0476 196.981 96.0012 196.981H93.0331C83.2536 196.981 73.7975 195.427 64.684 192.337C55.5514 189.248 47.1418 184.794 39.4362 178.994C31.5403 173.005 24.767 166.068 19.1162 158.203C13.4654 150.337 9.0513 141.808 5.85489 132.635C2.0877 121.395 0.204102 109.929 0.204102 98.2157C0.204102 86.5026 2.18283 75.0358 6.12126 63.7966C9.31767 54.6232 13.7318 46.0942 19.3825 38.2287C25.0333 30.3631 31.7876 23.5209 39.7026 17.7212C47.4082 12.0921 55.8178 7.75184 64.9503 4.66246C74.0639 1.57309 83.4248 0.0189209 93.014 0.0189209C93.9463 0.0189209 94.9357 0.0757806 95.9821 0.151594C97.0095 0.24636 97.9989 0.284266 98.9502 0.284266C99.9015 0.284266 100.872 0.24636 101.918 0.151594C102.946 0.0568274 103.935 0.0189209 104.886 0.0189209C114.476 0.0189209 123.779 1.57309 132.817 4.66246C141.835 7.75184 150.207 12.1111 157.932 17.7212C165.827 23.5209 172.639 30.3631 178.385 38.2287C184.112 46.0942 188.583 54.6232 191.779 63.7966H191.494ZM166.665 123.101C168.738 106.801 168.738 90.5017 166.665 74.2019C166.284 70.0891 165.637 66.0141 164.686 61.9771C163.735 57.959 162.517 54.0736 161.014 50.3208C157.817 42.2657 153.536 34.7223 148.171 27.6907C142.806 20.659 136.28 14.992 128.574 10.6896L128.003 10.4053C124.617 8.71846 121.23 7.31592 117.843 6.19768C114.647 5.26897 111.489 4.60561 108.387 4.22654C105.286 3.84748 102.128 3.58213 98.9312 3.3926C92.1579 3.77166 85.8602 4.70037 80.0381 6.19768C78.3448 6.76627 76.6134 7.37278 74.825 8.01719C73.0365 8.68055 71.4003 9.47659 69.8972 10.4053L69.3264 10.6896C61.6208 15.0109 55.0757 20.659 49.7294 27.6907C44.364 34.7223 40.0831 42.2657 36.8867 50.3208C35.3836 54.0736 34.1659 57.959 33.2146 61.9771C32.2633 66.0141 31.5213 70.0891 30.9505 74.2019C29.2572 90.5017 29.2572 106.801 30.9505 123.101C31.5213 127.233 32.2633 131.251 33.2146 135.193C34.1469 139.136 35.3836 142.964 36.8867 146.717C40.0831 154.772 44.364 162.316 49.7294 169.347C55.0948 176.379 61.6208 182.046 69.3264 186.348L69.8972 186.633C71.4003 187.58 73.0365 188.376 74.825 189.021C76.6134 189.684 78.3448 190.29 80.0381 190.84C83.2346 191.788 86.3929 192.489 89.4942 192.944C92.5955 193.418 95.7538 193.645 98.9502 193.645C102.147 193.645 105.305 193.418 108.406 192.944C111.508 192.47 114.666 191.769 117.862 190.84C119.556 190.272 121.249 189.665 122.942 189.021C124.636 188.376 126.329 187.58 128.022 186.633L128.593 186.348C136.299 182.046 142.844 176.379 148.19 169.347C153.555 162.316 157.817 154.791 161.033 146.717C162.536 142.964 163.754 139.136 164.705 135.193C165.637 131.251 166.303 127.233 166.684 123.101H166.665ZM98.9502 71.3968C99.3308 77.386 99.8445 82.0675 100.51 85.4412C101.157 88.8149 102.432 91.3925 104.316 93.1741C106.199 94.9557 108.825 96.1687 112.211 96.8321C115.598 97.4954 120.298 98.1019 126.31 98.6516C120.298 99.0306 115.598 99.5424 112.211 100.206C108.825 100.869 106.199 102.082 104.316 103.864C102.432 105.645 101.157 108.223 100.51 111.597C99.8445 114.97 99.3308 119.652 98.9502 125.641C98.3795 119.652 97.7706 114.97 97.1237 111.597C96.4578 108.223 95.2401 105.645 93.4516 103.864C91.6632 102.082 89.0756 100.869 85.6889 100.206C82.3023 99.5424 77.6028 99.0306 71.5905 98.6516C77.6028 98.083 82.3023 97.4765 85.6889 96.8321C89.0756 96.1877 91.6632 94.9557 93.4516 93.1741C95.2401 91.3925 96.4578 88.8149 97.1237 85.4412C97.7896 82.0675 98.3985 77.386 98.9502 71.3968Z" fill="white"/>
</svg>
