<svg width="198" height="197" viewBox="0 0 198 197" fill="none" xmlns="http://www.w3.org/2000/svg">
<path d="M191.6 63.7966C195.558 75.0358 197.575 86.5215 197.67 98.2157C197.765 109.929 195.843 121.395 191.886 132.635C188.689 141.808 184.313 150.337 178.777 158.203C173.221 166.068 166.505 173.005 158.609 178.994C150.713 184.794 142.246 189.248 133.228 192.337C124.21 195.427 114.792 196.981 105.012 196.981H102.044C101.017 196.981 100.027 196.886 99.0759 196.697C98.1246 196.886 97.1542 196.981 96.1078 196.981H93.1397C83.3602 196.981 73.9042 195.427 64.7906 192.337C55.6581 189.248 47.2485 184.794 39.5429 178.994C31.647 173.005 24.8737 166.068 19.2229 158.203C13.5721 150.337 9.15799 141.808 5.96158 132.635C2.19439 121.395 0.310791 109.929 0.310791 98.2157C0.310791 86.5026 2.28949 75.0358 6.22792 63.7966C9.42433 54.6232 13.8384 46.0942 19.4892 38.2287C25.14 30.3631 31.8943 23.5209 39.8092 17.7212C47.5148 12.0921 55.9244 7.75184 65.057 4.66246C74.1706 1.57309 83.5315 0.0189209 93.1207 0.0189209C94.053 0.0189209 95.0424 0.0757806 96.0888 0.151594C97.1162 0.24636 98.1056 0.284266 99.0569 0.284266C100.008 0.284266 100.979 0.24636 102.025 0.151594C103.052 0.0568274 104.042 0.0189209 104.993 0.0189209C114.582 0.0189209 123.886 1.57309 132.924 4.66246C141.942 7.75184 150.314 12.1111 158.038 17.7212C165.934 23.5209 172.745 30.3631 178.491 38.2287C184.218 46.0942 188.689 54.6232 191.886 63.7966H191.6ZM166.771 123.101C168.845 106.801 168.845 90.5017 166.771 74.2019C166.391 70.0891 165.744 66.0141 164.792 61.9771C163.841 57.959 162.624 54.0736 161.12 50.3208C157.924 42.2657 153.643 34.7223 148.278 27.6907C142.912 20.659 136.386 14.992 128.681 10.6896L128.11 10.4053C124.723 8.71846 121.337 7.31592 117.95 6.19768C114.754 5.26897 111.595 4.60561 108.494 4.22654C105.393 3.84748 102.234 3.58213 99.0379 3.3926C92.2645 3.77166 85.9668 4.70037 80.1448 6.19768C78.4515 6.76627 76.7201 7.37278 74.9317 8.01719C73.1432 8.68055 71.5069 9.47659 70.0038 10.4053L69.433 10.6896C61.7274 15.0109 55.1824 20.659 49.8361 27.6907C44.4707 34.7223 40.1898 42.2657 36.9934 50.3208C35.4903 54.0736 34.2726 57.959 33.3212 61.9771C32.3699 66.0141 31.628 70.0891 31.0572 74.2019C29.3638 90.5017 29.3638 106.801 31.0572 123.101C31.628 127.233 32.3699 131.251 33.3212 135.193C34.2535 139.136 35.4903 142.964 36.9934 146.717C40.1898 154.772 44.4707 162.316 49.8361 169.347C55.2015 176.379 61.7274 182.046 69.433 186.348L70.0038 186.633C71.5069 187.58 73.1432 188.376 74.9317 189.021C76.7201 189.684 78.4515 190.29 80.1448 190.84C83.3412 191.788 86.4996 192.489 89.6009 192.944C92.7021 193.418 95.8605 193.645 99.0569 193.645C102.253 193.645 105.412 193.418 108.513 192.944C111.614 192.47 114.773 191.769 117.969 190.84C119.662 190.272 121.356 189.665 123.049 189.021C124.742 188.376 126.436 187.58 128.129 186.633L128.7 186.348C136.405 182.046 142.95 176.379 148.297 169.347C153.662 162.316 157.924 154.791 161.139 146.717C162.643 142.964 163.86 139.136 164.812 135.193C165.744 131.251 166.41 127.233 166.79 123.101H166.771ZM99.0569 71.3968C99.4374 77.386 99.9511 82.0675 100.617 85.4412C101.264 88.8149 102.539 91.3925 104.422 93.1741C106.306 94.9557 108.932 96.1687 112.318 96.8321C115.705 97.4954 120.404 98.1019 126.417 98.6516C120.404 99.0306 115.705 99.5424 112.318 100.206C108.932 100.869 106.306 102.082 104.422 103.864C102.539 105.645 101.264 108.223 100.617 111.597C99.9511 114.97 99.4374 119.652 99.0569 125.641C98.4861 119.652 97.8773 114.97 97.2304 111.597C96.5645 108.223 95.3468 105.645 93.5583 103.864C91.7698 102.082 89.1823 100.869 85.7956 100.206C82.4089 99.5424 77.7095 99.0306 71.6972 98.6516C77.7095 98.083 82.4089 97.4765 85.7956 96.8321C89.1823 96.1877 91.7698 94.9557 93.5583 93.1741C95.3468 91.3925 96.5645 88.8149 97.2304 85.4412C97.8963 82.0675 98.5051 77.386 99.0569 71.3968Z" fill="white"/>
</svg>
