<svg width="198" height="197" viewBox="0 0 198 197" fill="none" xmlns="http://www.w3.org/2000/svg">
<path d="M191.931 63.7966C195.888 75.0358 197.905 86.5215 198 98.2157C198.095 109.929 196.174 121.395 192.216 132.635C189.02 141.808 184.644 150.337 179.107 158.203C173.551 166.068 166.835 173.005 158.939 178.994C151.043 184.794 142.577 189.248 133.558 192.337C124.54 195.427 115.122 196.981 105.342 196.981H102.374C101.347 196.981 100.358 196.886 99.4062 196.697C98.4549 196.886 97.4844 196.981 96.438 196.981H93.4699C83.6904 196.981 74.2345 195.427 65.1209 192.337C55.9883 189.248 47.5787 184.794 39.8731 178.994C31.9772 173.005 25.2039 166.068 19.5531 158.203C13.9023 150.337 9.48825 141.808 6.29184 132.635C2.52465 121.395 0.640991 109.929 0.640991 98.2157C0.640991 86.5026 2.61969 75.0358 6.55812 63.7966C9.75453 54.6232 14.1687 46.0942 19.8195 38.2287C25.4703 30.3631 32.2245 23.5209 40.1395 17.7212C47.8451 12.0921 56.2547 7.75184 65.3873 4.66246C74.5009 1.57309 83.8618 0.0189209 93.451 0.0189209C94.3833 0.0189209 95.3726 0.0757806 96.4191 0.151594C97.4465 0.24636 98.4358 0.284266 99.3872 0.284266C100.338 0.284266 101.309 0.24636 102.355 0.151594C103.383 0.0568274 104.372 0.0189209 105.323 0.0189209C114.913 0.0189209 124.216 1.57309 133.254 4.66246C142.272 7.75184 150.644 12.1111 158.368 17.7212C166.264 23.5209 173.076 30.3631 178.822 38.2287C184.549 46.0942 189.02 54.6232 192.216 63.7966H191.931ZM167.101 123.101C169.175 106.801 169.175 90.5017 167.101 74.2019C166.721 70.0891 166.074 66.0141 165.123 61.9771C164.171 57.959 162.954 54.0736 161.451 50.3208C158.254 42.2657 153.973 34.7223 148.608 27.6907C143.243 20.659 136.717 14.992 129.011 10.6896L128.44 10.4053C125.053 8.71846 121.667 7.31592 118.28 6.19768C115.084 5.26897 111.925 4.60561 108.824 4.22654C105.723 3.84748 102.565 3.58213 99.3681 3.3926C92.5948 3.77166 86.2971 4.70037 80.4751 6.19768C78.7817 6.76627 77.0504 7.37278 75.2619 8.01719C73.4734 8.68055 71.8371 9.47659 70.3341 10.4053L69.7633 10.6896C62.0577 15.0109 55.5127 20.659 50.1663 27.6907C44.8009 34.7223 40.52 42.2657 37.3236 50.3208C35.8205 54.0736 34.6028 57.959 33.6514 61.9771C32.7001 66.0141 31.9582 70.0891 31.3874 74.2019C29.6941 90.5017 29.6941 106.801 31.3874 123.101C31.9582 127.233 32.7001 131.251 33.6514 135.193C34.5837 139.136 35.8205 142.964 37.3236 146.717C40.52 154.772 44.8009 162.316 50.1663 169.347C55.5317 176.379 62.0577 182.046 69.7633 186.348L70.3341 186.633C71.8371 187.58 73.4734 188.376 75.2619 189.021C77.0504 189.684 78.7817 190.29 80.4751 190.84C83.6715 191.788 86.8298 192.489 89.9311 192.944C93.0323 193.418 96.1907 193.645 99.3872 193.645C102.584 193.645 105.742 193.418 108.843 192.944C111.944 192.47 115.103 191.769 118.299 190.84C119.993 190.272 121.686 189.665 123.379 189.021C125.073 188.376 126.766 187.58 128.459 186.633L129.03 186.348C136.736 182.046 143.281 176.379 148.627 169.347C153.992 162.316 158.254 154.791 161.47 146.717C162.973 142.964 164.19 139.136 165.142 135.193C166.074 131.251 166.74 127.233 167.12 123.101H167.101ZM99.3872 71.3968C99.7677 77.386 100.281 82.0675 100.947 85.4412C101.594 88.8149 102.869 91.3925 104.753 93.1741C106.636 94.9557 109.262 96.1687 112.648 96.8321C116.035 97.4954 120.735 98.1019 126.747 98.6516C120.735 99.0306 116.035 99.5424 112.648 100.206C109.262 100.869 106.636 102.082 104.753 103.864C102.869 105.645 101.594 108.223 100.947 111.597C100.281 114.97 99.7677 119.652 99.3872 125.641C98.8164 119.652 98.2075 114.97 97.5606 111.597C96.8947 108.223 95.677 105.645 93.8885 103.864C92.1001 102.082 89.5125 100.869 86.1258 100.206C82.7391 99.5424 78.0397 99.0306 72.0274 98.6516C78.0397 98.083 82.7391 97.4765 86.1258 96.8321C89.5125 96.1877 92.1001 94.9557 93.8885 93.1741C95.677 91.3925 96.8947 88.8149 97.5606 85.4412C98.2265 82.0675 98.8354 77.386 99.3872 71.3968Z" fill="white"/>
</svg>
