<svg width="142" height="197" viewBox="0 0 142 197" fill="none" xmlns="http://www.w3.org/2000/svg">
<path d="M0 197C4.31895 196.261 7.89588 194.195 10.7118 190.821C13.5276 187.448 14.9356 183.619 14.9356 179.298V18.2709C14.9356 13.779 13.5276 9.83673 10.7118 6.46306C7.89588 3.08938 4.31895 1.02348 0 0.284299L18.0559 0V0.284299L91.1166 0C98.0802 0 104.568 1.30777 110.58 3.94227C116.593 6.57677 121.863 10.14 126.372 14.6509C130.881 19.1617 134.458 24.4118 137.084 30.4389C139.71 36.4471 141.041 42.8343 141.041 49.6006C141.041 56.3669 139.824 62.5647 137.369 68.1938C134.725 74.2019 131.357 79.4709 127.209 83.9818C122.51 88.6822 117.43 92.2454 111.969 94.6904C109.325 95.8276 106.661 96.7563 103.921 97.5144C101.2 98.2726 98.3275 98.7464 95.3214 98.917C94.3701 99.1065 92.9621 99.2013 91.0976 99.2013H36.6445V179.298C36.6445 183.619 38.0525 187.448 40.8683 190.821C43.6842 194.195 47.2611 196.261 51.5801 197H0ZM74.2023 2.25544L86.0556 1.97114L46.5572 2.25544C43.551 3.75274 41.1537 5.91341 39.3653 8.71849C37.5768 11.5236 36.6826 14.7077 36.6826 18.2709V97.2301H79.2823C85.8654 97.2301 91.6493 95.9603 96.6342 93.4205C101.619 90.8808 105.805 87.4503 109.192 83.1289C112.578 78.8076 115.166 73.785 116.954 68.0421C118.743 62.3183 119.637 56.1585 119.637 49.5817C119.637 43.0049 118.743 36.8451 116.954 31.1212C115.166 25.3973 112.578 20.3558 109.192 16.0344C105.805 11.7131 101.619 8.28257 96.6342 5.74283C91.6493 3.2031 85.8654 1.93323 79.2823 1.93323L74.2023 2.21753V2.25544Z" fill="white"/>
</svg>
