<svg width="283" height="50" viewBox="0 0 283 50" fill="none" xmlns="http://www.w3.org/2000/svg">
<path d="M9.93437 20.6484V29.9062C9.93437 31.9062 10.1531 33.1484 10.5906 33.6328C11.1844 34.3203 12.0828 34.6641 13.2859 34.6641H14.5047V35.5312H0.887497V34.6641H2.08281C3.42656 34.6641 4.3875 34.2266 4.96562 33.3516C5.27812 32.8672 5.43437 31.7188 5.43437 29.9062V9.375C5.43437 7.375 5.22343 6.13281 4.80156 5.64844C4.19218 4.96094 3.28593 4.61719 2.08281 4.61719H0.887497V3.75H12.5359C15.3797 3.75 17.6219 4.04688 19.2625 4.64062C20.9031 5.21875 22.2859 6.20313 23.4109 7.59375C24.5359 8.98437 25.0984 10.6328 25.0984 12.5391C25.0984 15.1328 24.2391 17.2422 22.5203 18.8672C20.8172 20.4922 18.4031 21.3047 15.2781 21.3047C14.5125 21.3047 13.6844 21.25 12.7937 21.1406C11.9031 21.0312 10.95 20.8672 9.93437 20.6484ZM10.8719 19.2188C11.7 19.375 12.4344 19.4922 13.075 19.5703C13.7156 19.6484 14.2625 19.6875 14.7156 19.6875C16.3406 19.6875 17.7391 19.0625 18.9109 17.8125C20.0984 16.5469 20.6922 14.9141 20.6922 12.9141C20.6922 11.5391 20.4109 10.2656 19.8484 9.09375C19.2859 7.90625 18.4891 7.02344 17.4578 6.44531C16.4266 5.85156 15.2547 5.55469 13.9422 5.55469C13.1453 5.55469 12.1219 5.70312 10.8719 6V19.2188ZM47.2891 8.17969C51.4141 8.17969 54.9844 9.75 58 12.8906C61.0312 16.0156 62.5469 19.9219 62.5469 24.6094C62.5469 29.4375 61.0234 33.4453 57.9766 36.6328C54.9297 39.8203 51.2422 41.4141 46.9141 41.4141C42.5391 41.4141 38.8594 39.8594 35.875 36.75C32.9062 33.6406 31.4219 29.6172 31.4219 24.6797C31.4219 19.6328 33.1406 15.5156 36.5781 12.3281C39.5625 9.5625 43.1328 8.17969 47.2891 8.17969ZM48.1562 9.60938C45.3125 9.60938 43.0312 10.6641 41.3125 12.7734C39.1719 15.3984 38.1016 19.2422 38.1016 24.3047C38.1016 29.4922 39.2109 33.4844 41.4297 36.2812C43.1328 38.4062 45.3828 39.4688 48.1797 39.4688C51.1641 39.4688 53.625 38.3047 55.5625 35.9766C57.5156 33.6484 58.4922 29.9766 58.4922 24.9609C58.4922 19.5234 57.4219 15.4688 55.2812 12.7969C53.5625 10.6719 51.1875 9.60938 48.1562 9.60938ZM75.7609 4.71094V15.7031H74.8937C74.6125 13.5938 74.1047 11.9141 73.3703 10.6641C72.6516 9.41406 71.6203 8.42187 70.2766 7.6875C68.9328 6.95313 67.5422 6.58594 66.1047 6.58594C64.4797 6.58594 63.1359 7.08594 62.0734 8.08594C61.0109 9.07031 60.4797 10.1953 60.4797 11.4609C60.4797 12.4297 60.8156 13.3125 61.4875 14.1094C62.4562 15.2812 64.7609 16.8438 68.4016 18.7969C71.3703 20.3906 73.3937 21.6172 74.4719 22.4766C75.5656 23.3203 76.4016 24.3203 76.9797 25.4766C77.5734 26.6328 77.8703 27.8438 77.8703 29.1094C77.8703 31.5156 76.9328 33.5938 75.0578 35.3438C73.1984 37.0781 70.8 37.9453 67.8625 37.9453C66.9406 37.9453 66.0734 37.875 65.2609 37.7344C64.7766 37.6562 63.7687 37.375 62.2375 36.8906C60.7219 36.3906 59.7609 36.1406 59.3547 36.1406C58.9641 36.1406 58.6594 36.2578 58.4406 36.4922C58.2062 36.7266 58.0344 37.2109 57.925 37.9453H57.0578V27.0469H57.925C58.3312 29.3281 58.8781 31.0391 59.5656 32.1797C60.2531 33.3047 61.3 34.2422 62.7062 34.9922C64.1281 35.7422 65.6828 36.1172 67.3703 36.1172C69.3234 36.1172 70.8625 35.6016 71.9875 34.5703C73.1281 33.5391 73.6984 32.3203 73.6984 30.9141C73.6984 30.1328 73.4797 29.3438 73.0422 28.5469C72.6203 27.75 71.9562 27.0078 71.05 26.3203C70.4406 25.8516 68.7766 24.8594 66.0578 23.3438C63.3391 21.8125 61.4016 20.5938 60.2453 19.6875C59.1047 18.7812 58.2375 17.7812 57.6437 16.6875C57.05 15.5938 56.7531 14.3906 56.7531 13.0781C56.7531 10.7969 57.6281 8.83594 59.3781 7.19531C61.1281 5.53906 63.3547 4.71094 66.0578 4.71094C67.7453 4.71094 69.5344 5.125 71.425 5.95312C72.3 6.34375 72.9172 6.53906 73.2766 6.53906C73.6828 6.53906 74.0109 6.42188 74.2609 6.1875C74.5266 5.9375 74.7375 5.44531 74.8937 4.71094H75.7609ZM102.545 4.5L102.897 11.9531H102.006C101.834 10.6406 101.6 9.70312 101.303 9.14062C100.819 8.23437 100.17 7.57031 99.3578 7.14844C98.5609 6.71094 97.5062 6.49219 96.1937 6.49219H91.7172V30.7734C91.7172 32.7266 91.9281 33.9453 92.35 34.4297C92.9437 35.0859 93.8578 35.4141 95.0922 35.4141H96.1937V36.2812H82.7172V35.4141H83.8422C85.1859 35.4141 86.1391 35.0078 86.7016 34.1953C87.0453 33.6953 87.2172 32.5547 87.2172 30.7734V6.49219H83.3969C81.9125 6.49219 80.8578 6.60156 80.2328 6.82031C79.4203 7.11719 78.725 7.6875 78.1469 8.53125C77.5687 9.375 77.225 10.5156 77.1156 11.9531H76.225L76.6 4.5H102.545ZM109.759 10.4531V23.0156H116.744C118.556 23.0156 119.767 22.7422 120.377 22.1953C121.189 21.4766 121.642 20.2109 121.736 18.3984H122.603V29.4609H121.736C121.517 27.9141 121.298 26.9219 121.08 26.4844C120.798 25.9375 120.337 25.5078 119.697 25.1953C119.056 24.8828 118.072 24.7266 116.744 24.7266H109.759V35.2031C109.759 36.6094 109.822 37.4688 109.947 37.7812C110.072 38.0781 110.291 38.3203 110.603 38.5078C110.916 38.6797 111.509 38.7656 112.384 38.7656H117.775C119.572 38.7656 120.877 38.6406 121.689 38.3906C122.502 38.1406 123.283 37.6484 124.033 36.9141C125.002 35.9453 125.994 34.4844 127.009 32.5312H127.947L125.205 40.5H100.712V39.6328H101.837C102.587 39.6328 103.298 39.4531 103.97 39.0938C104.47 38.8438 104.806 38.4688 104.978 37.9688C105.166 37.4688 105.259 36.4453 105.259 34.8984V14.25C105.259 12.2344 105.056 10.9922 104.65 10.5234C104.087 9.89844 103.15 9.58594 101.837 9.58594H100.712V8.71875H125.205L125.556 15.6797H124.642C124.314 14.0078 123.947 12.8594 123.541 12.2344C123.15 11.6094 122.564 11.1328 121.783 10.8047C121.158 10.5703 120.056 10.4531 118.478 10.4531H109.759ZM154.403 43.0312H145.919L135.161 28.1719C134.364 28.2031 133.716 28.2188 133.216 28.2188C133.012 28.2188 132.794 28.2188 132.559 28.2188C132.325 28.2031 132.083 28.1875 131.833 28.1719V37.4062C131.833 39.4062 132.052 40.6484 132.489 41.1328C133.083 41.8203 133.973 42.1641 135.161 42.1641H136.403V43.0312H122.786V42.1641H123.981C125.325 42.1641 126.286 41.7266 126.864 40.8516C127.192 40.3672 127.356 39.2188 127.356 37.4062V16.875C127.356 14.875 127.137 13.6328 126.7 13.1484C126.091 12.4609 125.184 12.1172 123.981 12.1172H122.786V11.25H134.364C137.739 11.25 140.223 11.5 141.817 12C143.427 12.4844 144.786 13.3906 145.895 14.7188C147.02 16.0312 147.583 17.6016 147.583 19.4297C147.583 21.3828 146.942 23.0781 145.661 24.5156C144.395 25.9531 142.427 26.9688 139.755 27.5625L146.317 36.6797C147.817 38.7734 149.106 40.1641 150.184 40.8516C151.262 41.5391 152.669 41.9766 154.403 42.1641V43.0312ZM131.364 26.2266C131.661 26.2266 131.919 26.2344 132.137 26.25C132.356 26.25 132.536 26.25 132.677 26.25C135.708 26.25 137.989 25.5938 139.52 24.2812C141.067 22.9688 141.841 21.2969 141.841 19.2656C141.841 17.2812 141.216 15.6719 139.966 14.4375C138.731 13.1875 137.091 12.5625 135.044 12.5625C134.137 12.5625 132.911 12.7109 131.364 13.0078V26.2266ZM185.027 40.0547C183.98 41.1484 182.956 41.9297 181.956 42.3984C180.956 42.8828 179.878 43.125 178.722 43.125C176.378 43.125 174.331 42.1406 172.581 40.1719C170.831 38.2188 169.956 35.7031 169.956 32.625C169.956 29.5469 170.925 26.7344 172.863 24.1875C174.8 21.625 177.292 20.3438 180.339 20.3438C182.23 20.3438 183.792 20.9453 185.027 22.1484V18.1875C185.027 15.7344 184.964 14.2266 184.839 13.6641C184.73 13.1016 184.55 12.7188 184.3 12.5156C184.05 12.3125 183.738 12.2109 183.363 12.2109C182.956 12.2109 182.417 12.3359 181.745 12.5859L181.441 11.7656L187.839 9.14062H188.894V33.9609C188.894 36.4766 188.948 38.0156 189.058 38.5781C189.183 39.125 189.37 39.5078 189.62 39.7266C189.886 39.9453 190.191 40.0547 190.534 40.0547C190.956 40.0547 191.519 39.9219 192.222 39.6562L192.48 40.4766L186.105 43.125H185.027V40.0547ZM185.027 38.9766V27.9141C184.933 26.8516 184.652 25.8828 184.183 25.0078C183.714 24.1328 183.089 23.4766 182.308 23.0391C181.542 22.5859 180.792 22.3594 180.058 22.3594C178.683 22.3594 177.456 22.9766 176.378 24.2109C174.956 25.8359 174.245 28.2109 174.245 31.3359C174.245 34.4922 174.933 36.9141 176.308 38.6016C177.683 40.2734 179.214 41.1094 180.902 41.1094C182.323 41.1094 183.698 40.3984 185.027 38.9766ZM195.053 22.5234C195.037 25.7109 195.811 28.2109 197.373 30.0234C198.936 31.8359 200.772 32.7422 202.881 32.7422C204.287 32.7422 205.506 32.3594 206.537 31.5938C207.584 30.8125 208.459 29.4844 209.162 27.6094L209.889 28.0781C209.561 30.2188 208.608 32.1719 207.03 33.9375C205.452 35.6875 203.475 36.5625 201.1 36.5625C198.522 36.5625 196.311 35.5625 194.467 33.5625C192.639 31.5469 191.725 28.8438 191.725 25.4531C191.725 21.7812 192.662 18.9219 194.537 16.875C196.428 14.8125 198.795 13.7812 201.639 13.7812C204.045 13.7812 206.022 14.5781 207.569 16.1719C209.116 17.75 209.889 19.8672 209.889 22.5234H195.053ZM195.006 21.1875H208.131C207.631 20 207.1 18.8125 206.537 17.625C205.475 16.8125 204.553 16.2969 203.772 16.0781C203.006 15.8438 202.202 15.7266 201.358 15.7266C200.061 15.7266 198.897 16.2344 197.866 17.25C196.85 18.25 195.897 19.5625 195.006 21.1875ZM224.697 13.8047V21.1172H223.923C223.33 18.8203 222.564 17.2578 221.627 16.4297C220.705 15.6016 219.525 15.1875 218.087 15.1875C216.994 15.1875 216.111 15.4766 215.439 16.0547C214.767 16.6328 214.431 17.2734 214.431 17.9766C214.431 18.8516 214.681 19.6016 215.181 20.2266C215.666 20.8672 216.65 21.5469 218.134 22.2656L221.556 23.9297C224.728 25.4766 226.314 27.5156 226.314 30.0469C226.314 32 225.572 33.5781 224.087 34.7812C222.619 35.9688 220.97 36.5625 219.142 36.5625C217.83 36.5625 216.33 36.3281 214.642 35.8594C214.127 35.7031 213.705 35.625 213.377 35.625C213.017 35.625 212.736 35.8281 212.533 36.2344H211.759V28.5703H212.533C212.97 30.7578 213.806 32.4062 215.041 33.5156C216.275 34.625 217.658 35.1797 219.189 35.1797C220.267 35.1797 221.142 34.8672 221.814 34.2422C222.502 33.6016 222.845 32.8359 222.845 31.9453C222.845 30.8672 222.462 29.9609 221.697 29.2266C220.947 28.4922 219.439 27.5625 217.173 26.4375C214.908 25.3125 213.423 24.2969 212.72 23.3906C212.017 22.5 211.666 21.375 211.666 20.0156C211.666 18.25 212.275 16.7734 213.494 15.5859C214.697 14.3984 216.259 13.8047 218.181 13.8047C219.025 13.8047 220.048 13.9844 221.252 14.3438C222.048 14.5781 222.58 14.6953 222.845 14.6953C223.095 14.6953 223.291 14.6406 223.431 14.5312C223.572 14.4219 223.736 14.1797 223.923 13.8047H224.697ZM234.325 0.1875C235.247 3.65625 235.934 5.625 236.387 6.09375C236.856 6.54687 239.231 7.04688 243.512 7.59375C239.231 8.35938 236.856 8.97656 236.387 9.44531C235.934 9.91406 235.372 11.8281 234.7 15.1875C234.059 11.8281 233.505 9.91406 233.036 9.44531C232.567 8.97656 230.341 8.29688 226.356 7.40625C230.341 6.98438 232.559 6.54687 233.012 6.09375C233.481 5.625 233.919 3.65625 234.325 0.1875ZM236.2 18.8672V36.1172C236.2 37.4609 236.294 38.3594 236.481 38.8125C236.684 39.25 236.973 39.5781 237.348 39.7969C237.739 40.0156 238.442 40.125 239.458 40.125V40.9688H229.028V40.125C230.075 40.125 230.778 40.0234 231.137 39.8203C231.497 39.6172 231.778 39.2812 231.981 38.8125C232.2 38.3438 232.309 37.4453 232.309 36.1172V27.8438C232.309 25.5156 232.239 24.0078 232.098 23.3203C231.989 22.8203 231.817 22.4766 231.583 22.2891C231.348 22.0859 231.028 21.9844 230.622 21.9844C230.184 21.9844 229.653 22.1016 229.028 22.3359L228.7 21.4922L235.169 18.8672H236.2ZM245.477 31.0781C244.164 30.4375 243.156 29.5469 242.453 28.4062C241.75 27.25 241.398 25.9766 241.398 24.5859C241.398 22.4609 242.203 20.6328 243.812 19.1016C245.406 17.5703 247.453 16.8047 249.953 16.8047C252 16.8047 253.773 17.3047 255.273 18.3047H259.82C260.492 18.3047 260.883 18.3281 260.992 18.375C261.102 18.4062 261.18 18.4688 261.227 18.5625C261.32 18.7031 261.367 18.9531 261.367 19.3125C261.367 19.7188 261.328 20 261.25 20.1562C261.203 20.2344 261.117 20.2969 260.992 20.3438C260.883 20.3906 260.492 20.4141 259.82 20.4141H257.031C257.906 21.5391 258.344 22.9766 258.344 24.7266C258.344 26.7266 257.578 28.4375 256.047 29.8594C254.516 31.2812 252.461 31.9922 249.883 31.9922C248.82 31.9922 247.734 31.8359 246.625 31.5234C245.938 32.1172 245.469 32.6406 245.219 33.0938C244.984 33.5312 244.867 33.9062 244.867 34.2188C244.867 34.4844 244.992 34.7422 245.242 34.9922C245.508 35.2422 246.016 35.4219 246.766 35.5312C247.203 35.5938 248.297 35.6484 250.047 35.6953C253.266 35.7734 255.352 35.8828 256.305 36.0234C257.758 36.2266 258.914 36.7656 259.773 37.6406C260.648 38.5156 261.086 39.5938 261.086 40.875C261.086 42.6406 260.258 44.2969 258.602 45.8438C256.164 48.125 252.984 49.2656 249.062 49.2656C246.047 49.2656 243.5 48.5859 241.422 47.2266C240.25 46.4453 239.664 45.6328 239.664 44.7891C239.664 44.4141 239.75 44.0391 239.922 43.6641C240.188 43.0859 240.734 42.2812 241.562 41.25C241.672 41.1094 242.469 40.2656 243.953 38.7188C243.141 38.2344 242.57 37.8047 242.242 37.4297C241.898 37.0391 241.727 36.6016 241.727 36.1172C241.727 35.5703 241.953 34.9297 242.406 34.1953C242.844 33.4609 243.867 32.4219 245.477 31.0781ZM249.648 17.6484C248.492 17.6484 247.523 18.1094 246.742 19.0312C245.961 19.9531 245.57 21.3672 245.57 23.2734C245.57 25.7422 246.102 27.6562 247.164 29.0156C247.977 30.0469 249.008 30.5625 250.258 30.5625C251.445 30.5625 252.422 30.1172 253.188 29.2266C253.953 28.3359 254.336 26.9375 254.336 25.0312C254.336 22.5469 253.797 20.6016 252.719 19.1953C251.922 18.1641 250.898 17.6484 249.648 17.6484ZM245.148 38.5312C244.414 39.3281 243.859 40.0703 243.484 40.7578C243.109 41.4453 242.922 42.0781 242.922 42.6562C242.922 43.4062 243.375 44.0625 244.281 44.625C245.844 45.5938 248.102 46.0781 251.055 46.0781C253.867 46.0781 255.938 45.5781 257.266 44.5781C258.609 43.5938 259.281 42.5391 259.281 41.4141C259.281 40.6016 258.883 40.0234 258.086 39.6797C257.273 39.3359 255.664 39.1328 253.258 39.0703C249.742 38.9766 247.039 38.7969 245.148 38.5312ZM266.823 17.8828C269.339 14.8516 271.737 13.3359 274.019 13.3359C275.191 13.3359 276.198 13.6328 277.042 14.2266C277.886 14.8047 278.558 15.7656 279.058 17.1094C279.402 18.0469 279.573 19.4844 279.573 21.4219V30.5859C279.573 31.9453 279.683 32.8672 279.902 33.3516C280.073 33.7422 280.347 34.0469 280.722 34.2656C281.112 34.4844 281.823 34.5938 282.855 34.5938V35.4375H272.237V34.5938H272.683C273.683 34.5938 274.378 34.4453 274.769 34.1484C275.175 33.8359 275.456 33.3828 275.612 32.7891C275.675 32.5547 275.706 31.8203 275.706 30.5859V21.7969C275.706 19.8438 275.448 18.4297 274.933 17.5547C274.433 16.6641 273.581 16.2188 272.378 16.2188C270.519 16.2188 268.667 17.2344 266.823 19.2656V30.5859C266.823 32.0391 266.909 32.9375 267.081 33.2812C267.3 33.7344 267.597 34.0703 267.972 34.2891C268.362 34.4922 269.144 34.5938 270.316 34.5938V35.4375H259.698V34.5938H260.167C261.261 34.5938 262.003 34.3203 262.394 33.7734C262.769 33.2109 262.956 32.1484 262.956 30.5859V22.6172C262.956 20.0391 262.902 18.4688 262.792 17.9062C262.667 17.3438 262.487 16.9609 262.253 16.7578C262.003 16.5547 261.675 16.4531 261.269 16.4531C260.831 16.4531 260.308 16.5703 259.698 16.8047L259.347 15.9609L265.816 13.3359H266.823V17.8828Z" fill="white"/>
</svg>
