<svg width="165" height="198" viewBox="0 0 165 198" fill="none" xmlns="http://www.w3.org/2000/svg">
<path d="M156.322 185.761C156.322 188.395 156.74 190.404 157.597 191.807C158.453 193.209 159.423 194.29 160.565 195.048C161.687 195.995 163 196.64 164.522 197.019C160.374 197.019 156.531 196.28 152.954 194.764C149.377 193.266 146.276 191.162 143.65 188.433C141.006 185.723 138.894 182.577 137.296 179.013C135.697 175.45 134.898 171.697 134.898 167.774V146.698C134.898 140.14 134.004 133.999 132.216 128.294C130.427 122.59 127.839 117.567 124.453 113.265C121.066 108.962 116.842 105.532 111.762 103.011C106.682 100.49 100.86 99.2202 94.2772 99.2202H37.5791V179.317C37.5791 183.638 38.987 187.467 41.8029 190.84C44.6188 194.214 48.1957 196.28 52.5147 197.019H0.896484C5.21544 196.28 8.79238 194.214 11.6083 190.84C14.4241 187.467 15.8321 183.638 15.8321 179.317V18.2709C15.8321 13.779 14.4241 9.83673 11.6083 6.46306C8.79238 3.08938 5.21544 1.02348 0.896484 0.284299L24.6032 0V0.284299L97.6639 0C104.627 0 111.115 1.30777 117.128 3.94227C123.14 6.57677 128.41 10.14 132.919 14.6509C137.429 19.1617 141.006 24.4118 143.631 30.4389C146.257 36.4471 147.589 42.8343 147.589 49.6006C147.589 55.2297 146.276 60.5935 143.631 65.654C140.987 70.7335 137.619 75.377 133.471 79.6036C129.324 83.8302 124.681 87.4503 119.506 90.4449C114.331 93.4584 109.118 95.7139 103.847 97.2112H106.378C113.341 97.2112 119.829 98.5189 125.842 101.153C131.854 103.788 137.124 107.332 141.633 111.824C146.143 116.316 149.72 121.566 152.345 127.555C154.971 133.545 156.303 139.913 156.303 146.66V185.723L156.322 185.761ZM103.143 93.4395C108.128 90.9187 112.314 87.4882 115.701 83.1858C119.087 78.8834 121.675 73.8608 123.463 68.1559C125.252 62.4509 126.146 56.3101 126.146 49.7523C126.146 43.1944 125.252 37.0536 123.463 31.3487C121.675 25.6437 119.087 20.6211 115.701 16.3187C112.314 12.0164 108.128 8.58582 103.143 6.06504C98.1586 3.54426 92.3746 2.27439 85.7915 2.27439L80.7115 1.99009L92.8502 2.27439L47.4347 1.99009C44.4285 3.4874 42.0312 5.64807 40.2427 8.4721C38.4543 11.2961 37.56 14.4803 37.56 18.0624V97.268H85.7915C92.3746 97.268 98.1586 95.9982 103.143 93.4774V93.4395Z" fill="white"/>
</svg>
