<svg width="196" height="56" viewBox="0 0 196 56" fill="none" xmlns="http://www.w3.org/2000/svg">
<path d="M196 28C186.111 28.7256 185.526 29.3147 184.8 39.2C184.075 29.3111 183.485 28.7256 173.6 28C183.489 27.2744 184.075 26.6853 184.8 16.8C185.526 26.6889 186.115 27.2744 196 28Z" fill="black"/>
<path d="M-9.42694e-05 28C9.88881 28.7256 10.4743 29.3147 11.1999 39.2C11.9255 29.3111 12.5146 28.7256 22.3999 28C12.511 27.2744 11.9255 26.6853 11.1999 16.8C10.4743 26.6889 9.88522 27.2744 -9.42694e-05 28Z" fill="black"/>
<path d="M141.749 36.0508C135.228 45.2791 132.521 42.5724 141.749 36.0508Z" fill="black"/>
<path d="M157.851 19.9492C167.079 13.4276 164.372 10.7209 157.851 19.9492Z" fill="black"/>
<path d="M141.749 19.9492C135.228 10.7209 132.521 13.4276 141.749 19.9492Z" fill="black"/>
<path d="M156.533 28.0028C155.544 27.5699 154.602 27.1418 153.693 26.7185C155.182 23.9738 156.59 21.7381 157.851 19.9495C156.062 21.2148 153.827 22.6181 151.082 24.107C150.659 23.2032 150.23 22.2566 149.798 21.2671C149.365 22.2566 148.937 23.1984 148.513 24.107C145.769 22.6181 143.533 21.2101 141.744 19.9495C143.01 21.7381 144.413 23.9738 145.902 26.7185C144.993 27.1418 144.051 27.5699 143.062 28.0028C144.051 28.4357 144.993 28.8638 145.902 29.2872C144.413 32.0318 143.005 34.2676 141.744 36.0561C143.533 34.7908 145.769 33.3875 148.513 31.8986C148.937 32.8072 149.365 33.7491 149.798 34.7385C150.23 33.7491 150.659 32.8072 151.082 31.8986C153.827 33.3875 156.062 34.7956 157.851 36.0561C156.586 34.2676 155.182 32.0318 153.693 29.2872C154.602 28.8638 155.544 28.4357 156.533 28.0028Z" fill="black"/>
<path d="M157.851 36.0508C167.079 42.5724 164.372 45.2791 157.851 36.0508Z" fill="black"/>
<path d="M54.2508 36.0508C60.7724 45.2791 63.479 42.5724 54.2508 36.0508Z" fill="black"/>
<path d="M38.1492 19.9492C28.921 13.4276 31.6276 10.7209 38.1492 19.9492Z" fill="black"/>
<path d="M54.2508 19.9492C60.7724 10.7209 63.479 13.4276 54.2508 19.9492Z" fill="black"/>
<path d="M39.4668 28.0028C40.4562 27.5699 41.3981 27.1418 42.3066 26.7185C40.8177 23.9738 39.4097 21.7381 38.1492 19.9495C39.9377 21.2148 42.1734 22.6181 44.9181 24.107C45.3414 23.2032 45.7695 22.2566 46.2024 21.2671C46.6353 22.2566 47.0634 23.1984 47.4867 24.107C50.2314 22.6181 52.4671 21.2101 54.2556 19.9495C52.9903 21.7381 51.5871 23.9738 50.0982 26.7185C51.0067 27.1418 51.9486 27.5699 52.938 28.0028C51.9486 28.4357 51.0067 28.8638 50.0982 29.2872C51.5871 32.0318 52.9951 34.2676 54.2556 36.0561C52.4671 34.7908 50.2314 33.3875 47.4867 31.8986C47.0634 32.8072 46.6353 33.7491 46.2024 34.7385C45.7695 33.7491 45.3414 32.8072 44.9181 31.8986C42.1734 33.3875 39.9377 34.7956 38.1492 36.0561C39.4145 34.2676 40.8177 32.0318 42.3066 29.2872C41.3981 28.8638 40.4562 28.4357 39.4668 28.0028Z" fill="black"/>
<path d="M38.1492 36.0508C28.921 42.5724 31.6276 45.2791 38.1492 36.0508Z" fill="black"/>
<path d="M105.06 30.6835C109.773 30.3169 116.515 29.1912 126 28C116.515 26.8088 109.773 25.6896 105.06 25.3165C106.65 23.3137 111.985 19.9233 121.673 14.3272C101.852 25.7681 99.1095 26.0692 104.831 16.1598C103.05 19.2426 101.715 21.121 100.72 21.5596C100.406 16.8275 99.2339 9.9093 97.9967 0C96.753 9.91585 95.5813 16.8275 95.2736 21.5596C94.2787 21.121 92.9433 19.2426 91.1628 16.1598C96.8839 26.0692 94.1412 25.7746 74.3203 14.3272C84.0147 19.9233 89.3431 23.3071 90.9403 25.3165C86.2272 25.683 79.485 26.8088 70 28C79.485 29.1912 86.2272 30.3104 90.9403 30.6835C89.3496 32.6863 84.0147 36.0767 74.3268 41.6727C94.1477 30.2253 96.8905 29.9308 91.1694 39.8401C92.9499 36.7574 94.2852 34.8789 95.2802 34.4404C95.5944 39.1725 96.7661 46.0841 98.0033 56C99.247 46.0841 100.419 39.1725 100.726 34.4404C101.721 34.8789 103.057 36.7574 104.837 39.8401C99.1161 29.9308 101.859 30.2253 121.68 41.6727C111.985 36.0767 106.657 32.6928 105.066 30.6835H105.06Z" fill="black"/>
<g clip-path="url(#clip0_312_443)">
<path d="M196 28C186.111 27.2744 185.526 26.6853 184.8 16.8C184.075 26.6889 183.485 27.2744 173.6 28C183.489 28.7256 184.075 29.3147 184.8 39.2C185.526 29.3111 186.115 28.7256 196 28Z" fill="white"/>
<path d="M-9.61279e-05 28C9.88881 27.2744 10.4743 26.6853 11.1999 16.8C11.9255 26.6889 12.5146 27.2744 22.3999 28C12.511 28.7256 11.9255 29.3147 11.1999 39.2C10.4743 29.3111 9.88521 28.7256 -9.61279e-05 28Z" fill="white"/>
<path d="M157.851 36.0508C167.079 42.5724 164.373 45.2791 157.851 36.0508Z" fill="white"/>
<path d="M141.749 36.0508C135.228 45.2791 132.521 42.5724 141.749 36.0508Z" fill="white"/>
<path d="M156.533 27.9972C155.544 28.4301 154.602 28.8582 153.694 29.2815C155.183 32.0262 156.591 34.2619 157.851 36.0505C156.063 34.7852 153.827 33.3819 151.082 31.893C150.659 32.7968 150.231 33.7434 149.798 34.7329C149.365 33.7434 148.937 32.8016 148.514 31.893C145.769 33.3819 143.533 34.7899 141.745 36.0505C143.01 34.2619 144.413 32.0262 145.902 29.2815C144.994 28.8582 144.052 28.4301 143.062 27.9972C144.052 27.5643 144.994 27.1362 145.902 26.7128C144.413 23.9682 143.005 21.7324 141.745 19.9439C143.533 21.2092 145.769 22.6125 148.514 24.1013C148.937 23.1928 149.365 22.2509 149.798 21.2615C150.231 22.2509 150.659 23.1928 151.082 24.1013C153.827 22.6125 156.063 21.2044 157.851 19.9439C156.586 21.7324 155.183 23.9682 153.694 26.7128C154.602 27.1362 155.544 27.5643 156.533 27.9972Z" fill="white"/>
<path d="M38.1492 36.0508C28.921 42.5724 31.6276 45.2791 38.1492 36.0508Z" fill="white"/>
<path d="M54.2511 36.0508C60.7726 45.2791 63.4792 42.5724 54.2511 36.0508Z" fill="white"/>
<path d="M39.4668 27.9972C40.4562 28.4301 41.3981 28.8582 42.3066 29.2815C40.8177 32.0262 39.4097 34.2619 38.1492 36.0505C39.9377 34.7852 42.1734 33.3819 44.9181 31.893C45.3414 32.7968 45.7695 33.7434 46.2024 34.7329C46.6353 33.7434 47.0634 32.8016 47.4867 31.893C50.2314 33.3819 52.4671 34.7899 54.2556 36.0505C52.9903 34.2619 51.5871 32.0262 50.0982 29.2815C51.0067 28.8582 51.9486 28.4301 52.938 27.9972C51.9486 27.5643 51.0067 27.1362 50.0982 26.7128C51.5871 23.9682 52.9951 21.7324 54.2556 19.9439C52.4671 21.2092 50.2314 22.6125 47.4867 24.1013C47.0634 23.1928 46.6353 22.2509 46.2024 21.2615C45.7695 22.2509 45.3414 23.1928 44.9181 24.1013C42.1734 22.6125 39.9377 21.2044 38.1492 19.9439C39.4145 21.7324 40.8177 23.9682 42.3066 26.7128C41.3981 27.1362 40.4562 27.5643 39.4668 27.9972Z" fill="white"/>
<path d="M105.06 25.3165C109.773 25.6831 116.515 26.8088 126 28C116.515 29.1912 109.773 30.3104 105.06 30.6835C106.65 32.6863 111.985 36.0767 121.673 41.6728C101.852 30.2319 99.1095 29.9308 104.831 39.8402C103.05 36.7574 101.715 34.879 100.72 34.4404C100.406 39.1725 99.2339 46.0907 97.9967 56C96.753 46.0842 95.5813 39.1725 95.2736 34.4404C94.2787 34.879 92.9433 36.7574 91.1628 39.8402C96.8839 29.9308 94.1412 30.2254 74.3203 41.6728C84.0147 36.0767 89.3431 32.6929 90.9403 30.6835C86.2272 30.317 79.485 29.1912 70 28C79.485 26.8088 86.2272 25.6896 90.9403 25.3165C89.3496 23.3137 84.0147 19.9233 74.3268 14.3273C94.1477 25.7747 96.8905 26.0692 91.1694 16.1599C92.9499 19.2426 94.2852 21.1211 95.2802 21.5596C95.5944 16.8275 96.7661 9.91585 98.0033 1.78866e-06C99.247 9.91585 100.419 16.8275 100.726 21.5596C101.721 21.1211 103.057 19.2426 104.837 16.1599C99.1161 26.0692 101.859 25.7747 121.68 14.3273C111.985 19.9233 106.657 23.3072 105.066 25.3165H105.06Z" fill="white"/>
</g>
<defs>
<clipPath id="clip0_312_443">
<rect width="196" height="28" fill="white" transform="matrix(1 0 0 -1 0 56)"/>
</clipPath>
</defs>
</svg>
