<svg width="196" height="28" viewBox="0 0 196 28" fill="none" xmlns="http://www.w3.org/2000/svg">
<g clip-path="url(#clip0_312_410)">
<path d="M196 -1.05091e-05C186.111 -0.725604 185.526 -1.3147 184.8 -11.2C184.075 -1.3111 183.485 -0.725604 173.6 -1.05091e-05C183.489 0.725583 184.075 1.31469 184.8 11.2C185.526 1.31109 186.115 0.725583 196 -1.05091e-05Z" fill="white"/>
<path d="M-9.61279e-05 -1.05091e-05C9.88881 -0.725604 10.4743 -1.3147 11.1999 -11.2C11.9255 -1.3111 12.5146 -0.725604 22.3999 -1.05091e-05C12.511 0.725583 11.9255 1.31469 11.1999 11.2C10.4743 1.31109 9.88521 0.725583 -9.61279e-05 -1.05091e-05Z" fill="white"/>
<path d="M157.851 8.05082C167.079 14.5724 164.373 17.2791 157.851 8.05082Z" fill="white"/>
<path d="M141.749 8.05082C135.228 17.2791 132.521 14.5724 141.749 8.05082Z" fill="white"/>
<path d="M156.533 -0.00278943C155.544 0.430082 154.602 0.858174 153.694 1.28153C155.183 4.02622 156.591 6.26195 157.851 8.05052C156.063 6.7852 153.827 5.38194 151.082 3.89306C150.659 4.79685 150.231 5.74345 149.798 6.73287C149.365 5.74345 148.937 4.80161 148.514 3.89306C145.769 5.38194 143.533 6.78996 141.745 8.05052C143.01 6.26195 144.413 4.02622 145.902 1.28153C144.994 0.858174 144.052 0.430082 143.062 -0.00278943C144.052 -0.435661 144.994 -0.863782 145.902 -1.28714C144.413 -4.03183 143.005 -6.26756 141.745 -8.05613C143.533 -6.79081 145.769 -5.38752 148.514 -3.89864C148.937 -4.80719 149.365 -5.74906 149.798 -6.73848C150.231 -5.74906 150.659 -4.80719 151.082 -3.89864C153.827 -5.38752 156.063 -6.79557 157.851 -8.05613C156.586 -6.26756 155.183 -4.03183 153.694 -1.28714C154.602 -0.863782 155.544 -0.435661 156.533 -0.00278943Z" fill="white"/>
<path d="M38.1492 8.05082C28.921 14.5724 31.6276 17.2791 38.1492 8.05082Z" fill="white"/>
<path d="M54.2511 8.05082C60.7726 17.2791 63.4792 14.5724 54.2511 8.05082Z" fill="white"/>
<path d="M39.4668 -0.00278943C40.4562 0.430082 41.3981 0.858174 42.3066 1.28153C40.8177 4.02622 39.4097 6.26195 38.1492 8.05052C39.9377 6.7852 42.1734 5.38194 44.9181 3.89306C45.3414 4.79685 45.7695 5.74345 46.2024 6.73287C46.6353 5.74345 47.0634 4.80161 47.4867 3.89306C50.2314 5.38194 52.4671 6.78996 54.2556 8.05052C52.9903 6.26195 51.5871 4.02622 50.0982 1.28153C51.0067 0.858174 51.9486 0.430082 52.938 -0.00278943C51.9486 -0.435661 51.0067 -0.863782 50.0982 -1.28714C51.5871 -4.03183 52.9951 -6.26756 54.2556 -8.05613C52.4671 -6.79081 50.2314 -5.38752 47.4867 -3.89864C47.0634 -4.80719 46.6353 -5.74906 46.2024 -6.73848C45.7695 -5.74906 45.3414 -4.80719 44.9181 -3.89864C42.1734 -5.38752 39.9377 -6.79557 38.1492 -8.05613C39.4145 -6.26756 40.8177 -4.03183 42.3066 -1.28714C41.3981 -0.863782 40.4562 -0.435661 39.4668 -0.00278943Z" fill="white"/>
<path d="M105.06 -2.68346C109.773 -2.31693 116.515 -1.19119 126 2.08684e-05C116.515 1.19123 109.773 2.31043 105.06 2.6835C106.65 4.68631 111.985 8.0767 121.673 13.6728C101.852 2.23191 99.1095 1.93085 104.831 11.8402C103.05 8.7574 101.715 6.87895 100.72 6.44043C100.406 11.1725 99.2339 18.0907 97.9967 28C96.753 18.0842 95.5813 11.1725 95.2736 6.44043C94.2787 6.87895 92.9433 8.7574 91.1628 11.8402C96.8839 1.93085 94.1412 2.22537 74.3203 13.6728C84.0147 8.0767 89.3431 4.69285 90.9403 2.6835C86.2272 2.31698 79.485 1.19123 70 2.08684e-05C79.485 -1.19119 86.2272 -2.31039 90.9403 -2.68346C89.3496 -4.68627 84.0147 -8.07666 74.3268 -13.6727C94.1477 -2.22533 96.8905 -1.93081 91.1694 -11.8401C92.9499 -8.75736 94.2852 -6.87891 95.2802 -6.44039C95.5944 -11.1725 96.7661 -18.0841 98.0033 -28C99.247 -18.0841 100.419 -11.1725 100.726 -6.44039C101.721 -6.87891 103.057 -8.75736 104.837 -11.8401C99.1161 -1.93081 101.859 -2.22533 121.68 -13.6727C111.985 -8.07666 106.657 -4.69281 105.066 -2.68346H105.06Z" fill="white"/>
</g>
<defs>
<clipPath id="clip0_312_410">
<rect width="196" height="28" fill="white" transform="matrix(1 0 0 -1 0 28)"/>
</clipPath>
</defs>
</svg>
