<svg width="196" height="28" viewBox="0 0 196 28" fill="none" xmlns="http://www.w3.org/2000/svg">
<g clip-path="url(#clip0_312_446)">
<path d="M196 28C186.111 28.7256 185.526 29.3147 184.8 39.2C184.074 29.3111 183.485 28.7256 173.6 28C183.489 27.2744 184.074 26.6853 184.8 16.8C185.526 26.6889 186.115 27.2744 196 28Z" fill="white"/>
<path d="M2.59424e-05 28C9.88893 28.7256 10.4744 29.3147 11.2 39.2C11.9256 29.3111 12.5147 28.7256 22.4 28C12.5111 27.2744 11.9256 26.6853 11.2 16.8C10.4744 26.6889 9.88534 27.2744 2.59424e-05 28Z" fill="white"/>
<path d="M157.851 19.9492C167.079 13.4276 164.373 10.7209 157.851 19.9492Z" fill="white"/>
<path d="M141.749 19.9492C135.228 10.7209 132.521 13.4276 141.749 19.9492Z" fill="white"/>
<path d="M156.533 28.0028C155.544 27.5699 154.602 27.1418 153.694 26.7185C155.183 23.9738 156.591 21.738 157.851 19.9495C156.063 21.2148 153.827 22.6181 151.082 24.1069C150.659 23.2031 150.231 22.2566 149.798 21.2671C149.365 22.2566 148.937 23.1984 148.514 24.1069C145.769 22.6181 143.533 21.21 141.745 19.9495C143.01 21.738 144.413 23.9738 145.902 26.7185C144.994 27.1418 144.052 27.5699 143.062 28.0028C144.052 28.4357 144.994 28.8638 145.902 29.2871C144.413 32.0318 143.005 34.2676 141.745 36.0561C143.533 34.7908 145.769 33.3875 148.514 31.8986C148.937 32.8072 149.365 33.7491 149.798 34.7385C150.231 33.7491 150.659 32.8072 151.082 31.8986C153.827 33.3875 156.063 34.7956 157.851 36.0561C156.586 34.2676 155.183 32.0318 153.694 29.2871C154.602 28.8638 155.544 28.4357 156.533 28.0028Z" fill="white"/>
<path d="M38.149 19.9492C28.9209 13.4276 31.6275 10.7209 38.149 19.9492Z" fill="white"/>
<path d="M54.251 19.9492C60.7725 10.7209 63.4791 13.4276 54.251 19.9492Z" fill="white"/>
<path d="M39.4667 28.0028C40.4561 27.5699 41.3979 27.1418 42.3065 26.7185C40.8176 23.9738 39.4096 21.738 38.1491 19.9495C39.9376 21.2148 42.1733 22.6181 44.918 24.1069C45.3413 23.2031 45.7694 22.2566 46.2023 21.2671C46.6351 22.2566 47.0633 23.1984 47.4866 24.1069C50.2313 22.6181 52.4669 21.21 54.2555 19.9495C52.9902 21.738 51.5869 23.9738 50.0981 26.7185C51.0066 27.1418 51.9485 27.5699 52.9379 28.0028C51.9485 28.4357 51.0066 28.8638 50.0981 29.2871C51.5869 32.0318 52.9949 34.2676 54.2555 36.0561C52.4669 34.7908 50.2313 33.3875 47.4866 31.8986C47.0633 32.8072 46.6351 33.7491 46.2023 34.7385C45.7694 33.7491 45.3413 32.8072 44.918 31.8986C42.1733 33.3875 39.9376 34.7956 38.1491 36.0561C39.4144 34.2676 40.8176 32.0318 42.3065 29.2871C41.3979 28.8638 40.4561 28.4357 39.4667 28.0028Z" fill="white"/>
<path d="M105.06 30.6835C109.773 30.3169 116.515 29.1912 126 28C116.515 26.8088 109.773 25.6896 105.06 25.3165C106.651 23.3137 111.985 19.9233 121.673 14.3272C101.852 25.7681 99.1096 26.0692 104.831 16.1598C103.05 19.2426 101.715 21.121 100.72 21.5596C100.406 16.8275 99.234 9.9093 97.9968 0C96.7531 9.91585 95.5814 16.8275 95.2738 21.5596C94.2788 21.121 92.9434 19.2426 91.1629 16.1598C96.884 26.0692 94.1413 25.7746 74.3204 14.3272C84.0149 19.9233 89.3432 23.3071 90.9404 25.3165C86.2274 25.683 79.4851 26.8088 70.0001 28C79.4851 29.1912 86.2274 30.3104 90.9404 30.6835C89.3497 32.6863 84.0148 36.0767 74.3269 41.6727C94.1479 30.2253 96.8906 29.9308 91.1695 39.8401C92.95 36.7574 94.2853 34.8789 95.2803 34.4404C95.5945 39.1725 96.7662 46.0841 98.0034 56C99.2471 46.0841 100.419 39.1725 100.726 34.4404C101.721 34.8789 103.057 36.7574 104.837 39.8401C99.1162 29.9308 101.859 30.2253 121.68 41.6727C111.985 36.0767 106.657 32.6928 105.066 30.6835H105.06Z" fill="white"/>
</g>
<defs>
<clipPath id="clip0_312_446">
<rect width="196" height="28" fill="white"/>
</clipPath>
</defs>
</svg>
