<svg width="196" height="56" viewBox="0 0 196 56" fill="none" xmlns="http://www.w3.org/2000/svg">
<path d="M196 27.9999C186.111 27.2744 185.526 26.6853 184.8 16.7999C184.074 26.6888 183.485 27.2744 173.6 27.9999C183.489 28.7255 184.074 29.3146 184.8 39.2C185.526 29.311 186.115 28.7255 196 27.9999Z" fill="white"/>
<path d="M2.67029e-05 27.9999C9.88893 27.2744 10.4744 26.6853 11.2 16.7999C11.9256 26.6888 12.5147 27.2744 22.4 27.9999C12.5111 28.7255 11.9256 29.3146 11.2 39.2C10.4744 29.311 9.88534 28.7255 2.67029e-05 27.9999Z" fill="white"/>
<path d="M141.749 19.9492C132.521 13.4276 135.228 10.721 141.749 19.9492V19.9492Z" fill="white"/>
<path d="M157.851 36.0508C164.373 45.2791 167.079 42.5724 157.851 36.0508V36.0508Z" fill="white"/>
<path d="M141.749 36.0508C132.521 42.5724 135.228 45.2791 141.749 36.0508V36.0508Z" fill="white"/>
<path d="M156.533 27.9972C155.544 28.4301 154.602 28.8582 153.694 29.2815C155.183 32.0262 156.591 34.262 157.851 36.0505C156.063 34.7852 153.827 33.382 151.082 31.8931C150.659 32.7969 150.231 33.7435 149.798 34.7329C149.365 33.7435 148.937 32.8016 148.514 31.8931C145.769 33.382 143.533 34.79 141.745 36.0505C143.01 34.262 144.413 32.0262 145.902 29.2815C144.994 28.8582 144.052 28.4301 143.062 27.9972C144.052 27.5644 144.994 27.1362 145.902 26.7129C144.413 23.9682 143.005 21.7325 141.745 19.9439C143.533 21.2092 145.769 22.6125 148.514 24.1014C148.937 23.1928 149.365 22.251 149.798 21.2615C150.231 22.251 150.659 23.1928 151.082 24.1014C153.827 22.6125 156.063 21.2044 157.851 19.9439C156.586 21.7325 155.183 23.9682 153.694 26.7129C154.602 27.1362 155.544 27.5644 156.533 27.9972Z" fill="white"/>
<path d="M157.851 19.9491C164.372 10.7208 167.079 13.4275 157.851 19.9491V19.9491Z" fill="white"/>
<path d="M54.251 19.9492C63.4791 13.4276 60.7725 10.721 54.251 19.9492V19.9492Z" fill="white"/>
<path d="M38.149 36.0508C31.6275 45.2791 28.9209 42.5724 38.149 36.0508V36.0508Z" fill="white"/>
<path d="M54.251 36.0508C63.4791 42.5724 60.7725 45.2791 54.251 36.0508V36.0508Z" fill="white"/>
<path d="M39.4667 27.9972C40.4561 28.4301 41.3979 28.8582 42.3065 29.2815C40.8176 32.0262 39.4096 34.262 38.1491 36.0505C39.9376 34.7852 42.1733 33.382 44.918 31.8931C45.3413 32.7969 45.7694 33.7435 46.2023 34.7329C46.6351 33.7435 47.0633 32.8016 47.4866 31.8931C50.2313 33.382 52.4669 34.79 54.2555 36.0505C52.9902 34.262 51.5869 32.0262 50.0981 29.2815C51.0066 28.8582 51.9485 28.4301 52.9379 27.9972C51.9485 27.5644 51.0066 27.1362 50.0981 26.7129C51.5869 23.9682 52.9949 21.7325 54.2555 19.9439C52.4669 21.2092 50.2313 22.6125 47.4866 24.1014C47.0633 23.1928 46.6351 22.251 46.2023 21.2615C45.7694 22.251 45.3413 23.1928 44.918 24.1014C42.1733 22.6125 39.9376 21.2044 38.1491 19.9439C39.4144 21.7325 40.8176 23.9682 42.3065 26.7129C41.3979 27.1362 40.4561 27.5644 39.4667 27.9972Z" fill="white"/>
<path d="M38.1494 19.9491C31.6279 10.7208 28.9213 13.4275 38.1494 19.9491V19.9491Z" fill="white"/>
<path d="M105.06 25.3165C109.773 25.6831 116.515 26.8088 126 28C116.515 29.1912 109.773 30.3104 105.06 30.6835C106.651 32.6863 111.985 36.0767 121.673 41.6728C101.852 30.2319 99.1096 29.9308 104.831 39.8402C103.05 36.7574 101.715 34.879 100.72 34.4404C100.406 39.1725 99.234 46.0907 97.9968 56C96.7531 46.0842 95.5814 39.1725 95.2738 34.4404C94.2788 34.879 92.9434 36.7574 91.1629 39.8402C96.884 29.9308 94.1413 30.2254 74.3204 41.6728C84.0149 36.0767 89.3432 32.6929 90.9404 30.6835C86.2274 30.317 79.4851 29.1912 70.0001 28C79.4851 26.8088 86.2274 25.6896 90.9404 25.3165C89.3497 23.3137 84.0148 19.9233 74.3269 14.3273C94.1479 25.7747 96.8906 26.0692 91.1695 16.1599C92.95 19.2426 94.2853 21.1211 95.2803 21.5596C95.5945 16.8275 96.7662 9.91585 98.0034 0C99.2471 9.91585 100.419 16.8275 100.726 21.5596C101.721 21.1211 103.057 19.2426 104.837 16.1599C99.1162 26.0692 101.859 25.7747 121.68 14.3273C111.985 19.9233 106.657 23.3072 105.066 25.3165H105.06Z" fill="white"/>
</svg>
