<svg width="196" height="56" viewBox="0 0 196 56" fill="none" xmlns="http://www.w3.org/2000/svg">
<path d="M196 28.0001C186.111 28.7256 185.526 29.3147 184.8 39.2001C184.074 29.3111 183.485 28.7256 173.6 28.0001C183.489 27.2745 184.074 26.6854 184.8 16.8C185.526 26.689 186.115 27.2745 196 28.0001Z" fill="black"/>
<path d="M2.86102e-05 28.0001C9.88893 28.7256 10.4744 29.3147 11.2 39.2001C11.9256 29.3111 12.5147 28.7256 22.4 28.0001C12.5111 27.2745 11.9256 26.6854 11.2 16.8C10.4744 26.689 9.88534 27.2745 2.86102e-05 28.0001Z" fill="black"/>
<path d="M141.749 36.0508C132.521 42.5724 135.228 45.279 141.749 36.0508V36.0508Z" fill="black"/>
<path d="M157.851 19.9492C164.372 10.7209 167.079 13.4276 157.851 19.9492V19.9492Z" fill="black"/>
<path d="M141.749 19.9492C132.521 13.4276 135.228 10.7209 141.749 19.9492V19.9492Z" fill="black"/>
<path d="M156.533 28.0028C155.544 27.5699 154.602 27.1418 153.693 26.7185C155.182 23.9738 156.59 21.738 157.851 19.9495C156.062 21.2148 153.827 22.618 151.082 24.1069C150.659 23.2031 150.23 22.2565 149.798 21.2671C149.365 22.2565 148.937 23.1984 148.513 24.1069C145.769 22.618 143.533 21.21 141.744 19.9495C143.01 21.738 144.413 23.9738 145.902 26.7185C144.993 27.1418 144.051 27.5699 143.062 28.0028C144.051 28.4356 144.993 28.8638 145.902 29.2871C144.413 32.0318 143.005 34.2675 141.744 36.0561C143.533 34.7908 145.769 33.3875 148.513 31.8986C148.937 32.8072 149.365 33.749 149.798 34.7385C150.23 33.749 150.659 32.8072 151.082 31.8986C153.827 33.3875 156.062 34.7956 157.851 36.0561C156.586 34.2675 155.182 32.0318 153.693 29.2871C154.602 28.8638 155.544 28.4356 156.533 28.0028Z" fill="black"/>
<path d="M157.851 36.0508C164.372 45.279 167.079 42.5724 157.851 36.0508V36.0508Z" fill="black"/>
<path d="M54.2508 36.0508C63.479 42.5724 60.7724 45.279 54.2508 36.0508V36.0508Z" fill="black"/>
<path d="M38.149 19.9492C31.6275 10.7209 28.9209 13.4276 38.149 19.9492V19.9492Z" fill="black"/>
<path d="M54.2508 19.9492C63.479 13.4276 60.7724 10.7209 54.2508 19.9492V19.9492Z" fill="black"/>
<path d="M39.4668 28.0028C40.4562 27.5699 41.3981 27.1418 42.3066 26.7185C40.8177 23.9738 39.4097 21.738 38.1492 19.9495C39.9377 21.2148 42.1734 22.618 44.9181 24.1069C45.3414 23.2031 45.7695 22.2565 46.2024 21.2671C46.6353 22.2565 47.0634 23.1984 47.4867 24.1069C50.2314 22.618 52.4671 21.21 54.2556 19.9495C52.9903 21.738 51.5871 23.9738 50.0982 26.7185C51.0067 27.1418 51.9486 27.5699 52.938 28.0028C51.9486 28.4356 51.0067 28.8638 50.0982 29.2871C51.5871 32.0318 52.9951 34.2675 54.2556 36.0561C52.4671 34.7908 50.2314 33.3875 47.4867 31.8986C47.0634 32.8072 46.6353 33.749 46.2024 34.7385C45.7695 33.749 45.3414 32.8072 44.9181 31.8986C42.1734 33.3875 39.9377 34.7956 38.1492 36.0561C39.4145 34.2675 40.8177 32.0318 42.3066 29.2871C41.3981 28.8638 40.4562 28.4356 39.4668 28.0028Z" fill="black"/>
<path d="M38.1492 36.0508C31.6276 45.279 28.921 42.5724 38.1492 36.0508V36.0508Z" fill="black"/>
<path d="M105.06 30.6835C109.773 30.3169 116.515 29.1912 126 28C116.515 26.8088 109.773 25.6896 105.06 25.3165C106.65 23.3137 111.985 19.9233 121.673 14.3272C101.852 25.7681 99.1095 26.0692 104.831 16.1598C103.05 19.2426 101.715 21.121 100.72 21.5596C100.406 16.8275 99.2339 9.9093 97.9967 0C96.753 9.91585 95.5813 16.8275 95.2736 21.5596C94.2787 21.121 92.9433 19.2426 91.1628 16.1598C96.8839 26.0692 94.1412 25.7746 74.3203 14.3272C84.0147 19.9233 89.3431 23.3071 90.9403 25.3165C86.2272 25.683 79.485 26.8088 70 28C79.485 29.1912 86.2272 30.3104 90.9403 30.6835C89.3496 32.6863 84.0147 36.0767 74.3268 41.6727C94.1477 30.2253 96.8905 29.9308 91.1694 39.8401C92.9499 36.7574 94.2852 34.8789 95.2802 34.4404C95.5944 39.1725 96.7661 46.0841 98.0033 56C99.247 46.0841 100.419 39.1725 100.726 34.4404C101.721 34.8789 103.057 36.7574 104.837 39.8401C99.1161 29.9308 101.859 30.2253 121.68 41.6727C111.985 36.0767 106.657 32.6928 105.066 30.6835H105.06Z" fill="black"/>
</svg>
