<svg width="183" height="198" viewBox="0 0 183 198" fill="none" xmlns="http://www.w3.org/2000/svg">
<path d="M182.205 0.284299V28.392C180.893 21.2655 178.533 15.1436 175.147 9.98836C171.76 4.83308 166.87 2.25544 160.477 2.25544L111.961 1.97114C108.954 3.46844 106.557 5.62911 104.769 8.45315C102.98 11.2772 102.086 14.4613 102.086 18.0245V179.279C102.086 183.6 103.532 187.448 106.462 190.821C109.373 194.195 112.988 196.261 117.326 197.019H65.4224C69.7414 196.28 73.3563 194.214 76.2864 190.84C79.1974 187.467 80.6624 183.638 80.6624 179.317V18.2709C80.6624 14.7077 79.7111 11.5236 77.8465 8.71849C75.9629 5.91341 73.6227 3.75274 70.7878 2.25544L22.2709 1.97114C15.8781 1.97114 10.9884 4.54878 7.60174 9.70406C4.21507 14.8593 1.85578 21.0002 0.542969 28.1077V0L182.224 0.284299H182.205Z" fill="white"/>
</svg>
