<svg width="1440" height="196" viewBox="0 0 1440 196" fill="none" xmlns="http://www.w3.org/2000/svg">
<g clip-path="url(#clip0_212_2971)">
<path d="M0 197C4.31895 196.261 7.89588 194.195 10.7118 190.821C13.5276 187.448 14.9356 183.619 14.9356 179.298V18.2709C14.9356 13.779 13.5276 9.83673 10.7118 6.46306C7.89588 3.08938 4.31895 1.02348 0 0.284299L18.0559 0V0.284299L91.1166 0C98.0802 0 104.568 1.30777 110.58 3.94227C116.593 6.57677 121.863 10.14 126.372 14.6509C130.881 19.1617 134.458 24.4118 137.084 30.4389C139.71 36.4471 141.041 42.8343 141.041 49.6006C141.041 56.3669 139.824 62.5647 137.369 68.1938C134.725 74.2019 131.357 79.4709 127.209 83.9818C122.51 88.6822 117.43 92.2454 111.969 94.6904C109.325 95.8276 106.661 96.7563 103.921 97.5144C101.2 98.2726 98.3275 98.7464 95.3214 98.917C94.3701 99.1065 92.9621 99.2013 91.0976 99.2013H36.6445V179.298C36.6445 183.619 38.0525 187.448 40.8683 190.821C43.6842 194.195 47.2611 196.261 51.5801 197H0ZM74.2023 2.25544L86.0556 1.97114L46.5572 2.25544C43.551 3.75274 41.1537 5.91341 39.3653 8.71849C37.5768 11.5236 36.6826 14.7077 36.6826 18.2709V97.2301H79.2823C85.8654 97.2301 91.6493 95.9603 96.6342 93.4205C101.619 90.8808 105.805 87.4503 109.192 83.1289C112.578 78.8076 115.166 73.785 116.954 68.0421C118.743 62.3183 119.637 56.1585 119.637 49.5817C119.637 43.0049 118.743 36.8451 116.954 31.1212C115.166 25.3973 112.578 20.3558 109.192 16.0344C105.805 11.7131 101.619 8.28257 96.6342 5.74283C91.6493 3.2031 85.8654 1.93323 79.2823 1.93323L74.2023 2.21753V2.25544Z" fill="white"/>
<path d="M340.494 63.7966C344.451 75.0358 346.468 86.5215 346.563 98.2157C346.658 109.929 344.737 121.395 340.779 132.635C337.583 141.808 333.207 150.337 327.67 158.203C322.114 166.068 315.398 173.005 307.502 178.994C299.606 184.794 291.14 189.248 282.121 192.337C273.103 195.427 263.685 196.981 253.905 196.981H250.937C249.91 196.981 248.921 196.886 247.969 196.697C247.018 196.886 246.048 196.981 245.001 196.981H242.033C232.254 196.981 222.798 195.427 213.684 192.337C204.551 189.248 196.142 184.794 188.436 178.994C180.54 173.005 173.767 166.068 168.116 158.203C162.465 150.337 158.051 141.808 154.855 132.635C151.088 121.395 149.204 109.929 149.204 98.2157C149.204 86.5026 151.183 75.0358 155.121 63.7966C158.318 54.6232 162.732 46.0942 168.383 38.2287C174.033 30.3631 180.788 23.5209 188.703 17.7212C196.408 12.0921 204.818 7.75184 213.95 4.66246C223.064 1.57309 232.425 0.0189209 242.014 0.0189209C242.946 0.0189209 243.936 0.0757806 244.982 0.151594C246.01 0.24636 246.999 0.284266 247.95 0.284266C248.902 0.284266 249.872 0.24636 250.918 0.151594C251.946 0.0568274 252.935 0.0189209 253.886 0.0189209C263.476 0.0189209 272.779 1.57309 281.817 4.66246C290.835 7.75184 299.207 12.1111 306.932 17.7212C314.827 23.5209 321.639 30.3631 327.385 38.2287C333.112 46.0942 337.583 54.6232 340.779 63.7966H340.494ZM315.665 123.101C317.738 106.801 317.738 90.5017 315.665 74.2019C315.284 70.0891 314.637 66.0141 313.686 61.9771C312.735 57.959 311.517 54.0736 310.014 50.3208C306.817 42.2657 302.536 34.7223 297.171 27.6907C291.806 20.659 285.28 14.992 277.574 10.6896L277.003 10.4053C273.617 8.71846 270.23 7.31592 266.843 6.19768C263.647 5.26897 260.489 4.60561 257.387 4.22654C254.286 3.84748 251.128 3.58213 247.931 3.3926C241.158 3.77166 234.86 4.70037 229.038 6.19768C227.345 6.76627 225.613 7.37278 223.825 8.01719C222.037 8.68055 220.4 9.47659 218.897 10.4053L218.326 10.6896C210.621 15.0109 204.076 20.659 198.729 27.6907C193.364 34.7223 189.083 42.2657 185.887 50.3208C184.384 54.0736 183.166 57.959 182.215 61.9771C181.263 66.0141 180.521 70.0891 179.95 74.2019C178.257 90.5017 178.257 106.801 179.95 123.101C180.521 127.233 181.263 131.251 182.215 135.193C183.147 139.136 184.384 142.964 185.887 146.717C189.083 154.772 193.364 162.316 198.729 169.347C204.095 176.379 210.621 182.046 218.326 186.348L218.897 186.633C220.4 187.58 222.037 188.376 223.825 189.021C225.613 189.684 227.345 190.29 229.038 190.84C232.235 191.788 235.393 192.489 238.494 192.944C241.595 193.418 244.754 193.645 247.95 193.645C251.147 193.645 254.305 193.418 257.406 192.944C260.508 192.47 263.666 191.769 266.862 190.84C268.556 190.272 270.249 189.665 271.942 189.021C273.636 188.376 275.329 187.58 277.022 186.633L277.593 186.348C285.299 182.046 291.844 176.379 297.19 169.347C302.555 162.316 306.817 154.791 310.033 146.717C311.536 142.964 312.754 139.136 313.705 135.193C314.637 131.251 315.303 127.233 315.684 123.101H315.665ZM247.95 71.3968C248.331 77.386 248.844 82.0675 249.51 85.4412C250.157 88.8149 251.432 91.3925 253.316 93.1741C255.199 94.9557 257.825 96.1687 261.211 96.8321C264.598 97.4954 269.298 98.1019 275.31 98.6516C269.298 99.0306 264.598 99.5424 261.211 100.206C257.825 100.869 255.199 102.082 253.316 103.864C251.432 105.645 250.157 108.223 249.51 111.597C248.844 114.97 248.331 119.652 247.95 125.641C247.379 119.652 246.771 114.97 246.124 111.597C245.458 108.223 244.24 105.645 242.452 103.864C240.663 102.082 238.076 100.869 234.689 100.206C231.302 99.5424 226.603 99.0306 220.591 98.6516C226.603 98.083 231.302 97.4765 234.689 96.8321C238.076 96.1877 240.663 94.9557 242.452 93.1741C244.24 91.3925 245.458 88.8149 246.124 85.4412C246.79 82.0675 247.398 77.386 247.95 71.3968Z" fill="white"/>
<path d="M510.322 185.761C510.322 188.395 510.74 190.404 511.597 191.807C512.453 193.209 513.423 194.29 514.565 195.048C515.687 195.995 517 196.64 518.522 197.019C514.374 197.019 510.531 196.28 506.954 194.764C503.377 193.266 500.276 191.162 497.65 188.433C495.006 185.723 492.894 182.577 491.296 179.013C489.697 175.45 488.898 171.697 488.898 167.774V146.698C488.898 140.14 488.004 133.999 486.216 128.294C484.427 122.59 481.839 117.567 478.453 113.265C475.066 108.962 470.842 105.532 465.762 103.011C460.682 100.49 454.86 99.2202 448.277 99.2202H391.579V179.317C391.579 183.638 392.987 187.467 395.803 190.84C398.619 194.214 402.196 196.28 406.515 197.019H354.896C359.215 196.28 362.792 194.214 365.608 190.84C368.424 187.467 369.832 183.638 369.832 179.317V18.2709C369.832 13.779 368.424 9.83673 365.608 6.46306C362.792 3.08938 359.215 1.02348 354.896 0.284299L378.603 0V0.284299L451.664 0C458.627 0 465.115 1.30777 471.128 3.94227C477.14 6.57677 482.41 10.14 486.919 14.6509C491.429 19.1617 495.006 24.4118 497.631 30.4389C500.257 36.4471 501.589 42.8343 501.589 49.6006C501.589 55.2297 500.276 60.5935 497.631 65.654C494.987 70.7335 491.619 75.377 487.471 79.6036C483.324 83.8302 478.681 87.4503 473.506 90.4449C468.331 93.4584 463.118 95.7139 457.847 97.2112H460.378C467.341 97.2112 473.829 98.5189 479.842 101.153C485.854 103.788 491.124 107.332 495.633 111.824C500.143 116.316 503.72 121.566 506.345 127.555C508.971 133.545 510.303 139.913 510.303 146.66V185.723L510.322 185.761ZM457.143 93.4395C462.128 90.9187 466.314 87.4882 469.701 83.1858C473.087 78.8834 475.675 73.8608 477.463 68.1559C479.252 62.4509 480.146 56.3101 480.146 49.7523C480.146 43.1944 479.252 37.0536 477.463 31.3487C475.675 25.6437 473.087 20.6211 469.701 16.3187C466.314 12.0164 462.128 8.58582 457.143 6.06504C452.159 3.54426 446.375 2.27439 439.792 2.27439L434.712 1.99009L446.85 2.27439L401.435 1.99009C398.429 3.4874 396.031 5.64807 394.243 8.4721C392.454 11.2961 391.56 14.4803 391.56 18.0624V97.268H439.792C446.375 97.268 452.159 95.9982 457.143 93.4774V93.4395Z" fill="white"/>
<path d="M698.205 0.284299V28.392C696.893 21.2655 694.533 15.1436 691.147 9.98836C687.76 4.83308 682.87 2.25544 676.477 2.25544L627.961 1.97114C624.954 3.46844 622.557 5.62911 620.769 8.45315C618.98 11.2772 618.086 14.4613 618.086 18.0245V179.279C618.086 183.6 619.532 187.448 622.462 190.821C625.373 194.195 628.988 196.261 633.326 197.019H581.422C585.741 196.28 589.356 194.214 592.286 190.84C595.197 187.467 596.662 183.638 596.662 179.317V18.2709C596.662 14.7077 595.711 11.5236 593.847 8.71849C591.963 5.91341 589.623 3.75274 586.788 2.25544L538.271 1.97114C531.878 1.97114 526.988 4.54878 523.602 9.70406C520.215 14.8593 517.856 21.0002 516.543 28.1077V0L698.224 0.284299H698.205Z" fill="white"/>
<path d="M835.879 0.284302V28.392C834.566 21.2655 832.264 15.1436 828.973 9.98836C825.681 4.83308 820.734 2.25544 814.17 2.25544H774.957C768.374 2.25544 762.552 3.46845 757.472 5.91341C752.392 8.35838 748.168 11.7131 744.782 16.0344C741.395 20.3558 738.865 25.3973 737.171 31.216C735.478 37.0157 734.641 43.2134 734.641 49.7712C734.641 56.329 735.478 62.4699 737.171 68.1748C738.865 73.8987 741.357 78.9023 744.648 83.2047C747.94 87.5261 752.069 90.9377 757.054 93.4584C762.038 95.9792 767.822 97.2491 774.405 97.2491H786.259C791.719 97.2491 796.457 95.9792 800.509 93.4584C804.543 90.9377 807.036 87.7914 807.987 84.0387V112.146C807.036 108.394 804.695 105.361 800.928 103.011C797.161 100.68 792.652 99.4097 787.381 99.2202H758.614C752.411 99.2202 747.464 100.301 743.811 102.461C740.139 104.622 737.266 107.56 735.211 111.312C733.138 115.065 731.692 119.462 730.835 124.523C729.979 129.583 729.37 135.118 729.009 141.107V179.051C729.009 183.543 730.417 187.448 733.233 190.708C736.049 193.986 739.626 196.09 743.945 197.038H692.326C696.645 196.299 700.222 194.233 703.038 190.859C705.854 187.485 707.262 183.543 707.262 179.051V146.736C707.262 139.989 708.004 133.62 709.526 127.631C711.029 121.642 713.388 116.392 716.585 111.9C719.781 107.408 723.815 103.845 728.724 101.229C733.613 98.6137 739.53 97.287 746.494 97.287H749.024C743.754 95.7897 738.922 93.5342 734.488 90.5396C730.074 87.545 726.25 83.9439 723.073 79.7173C719.876 75.5097 717.384 70.8662 715.595 65.8057C713.807 60.7451 712.913 55.4003 712.913 49.7902C712.913 43.0428 714.226 36.6745 716.87 30.6853C719.496 24.6961 723.073 19.446 727.582 14.9541C732.091 10.4622 737.361 6.89898 743.374 4.28344C749.386 1.66789 755.874 0.341161 762.838 0.341161H835.898L835.879 0.284302Z" fill="white"/>
<path d="M1024.6 63.7966C1028.56 75.0358 1030.57 86.5215 1030.67 98.2157C1030.76 109.929 1028.84 121.395 1024.89 132.635C1021.69 141.808 1017.31 150.337 1011.78 158.203C1006.22 166.068 999.505 173.005 991.609 178.994C983.713 184.794 975.246 189.248 966.228 192.337C957.209 195.427 947.792 196.981 938.012 196.981H935.044C934.017 196.981 933.027 196.886 932.076 196.697C931.125 196.886 930.154 196.981 929.108 196.981H926.14C916.36 196.981 906.904 195.427 897.791 192.337C888.658 189.248 880.248 184.794 872.543 178.994C864.647 173.005 857.874 166.068 852.223 158.203C846.572 150.337 842.158 141.808 838.962 132.635C835.194 121.395 833.311 109.929 833.311 98.2157C833.311 86.5026 835.289 75.0358 839.228 63.7966C842.424 54.6232 846.838 46.0942 852.489 38.2287C858.14 30.3631 864.894 23.5209 872.809 17.7212C880.515 12.0921 888.924 7.75184 898.057 4.66246C907.171 1.57309 916.531 0.0189209 926.121 0.0189209C927.053 0.0189209 928.042 0.0757806 929.089 0.151594C930.116 0.24636 931.106 0.284266 932.057 0.284266C933.008 0.284266 933.978 0.24636 935.025 0.151594C936.052 0.0568274 937.042 0.0189209 937.993 0.0189209C947.582 0.0189209 956.886 1.57309 965.923 4.66246C974.942 7.75184 983.313 12.1111 991.038 17.7212C998.934 23.5209 1005.75 30.3631 1011.49 38.2287C1017.22 46.0942 1021.69 54.6232 1024.89 63.7966H1024.6ZM999.771 123.101C1001.84 106.801 1001.84 90.5017 999.771 74.2019C999.391 70.0891 998.744 66.0141 997.792 61.9771C996.841 57.959 995.623 54.0736 994.12 50.3208C990.924 42.2657 986.643 34.7223 981.278 27.6907C975.912 20.659 969.386 14.992 961.681 10.6896L961.11 10.4053C957.723 8.71846 954.337 7.31592 950.95 6.19768C947.753 5.26897 944.595 4.60561 941.494 4.22654C938.393 3.84748 935.234 3.58213 932.038 3.3926C925.264 3.77166 918.967 4.70037 913.145 6.19768C911.451 6.76627 909.72 7.37278 907.932 8.01719C906.143 8.68055 904.507 9.47659 903.004 10.4053L902.433 10.6896C894.727 15.0109 888.182 20.659 882.836 27.6907C877.471 34.7223 873.19 42.2657 869.993 50.3208C868.49 54.0736 867.272 57.959 866.321 61.9771C865.37 66.0141 864.628 70.0891 864.057 74.2019C862.364 90.5017 862.364 106.801 864.057 123.101C864.628 127.233 865.37 131.251 866.321 135.193C867.253 139.136 868.49 142.964 869.993 146.717C873.19 154.772 877.471 162.316 882.836 169.347C888.201 176.379 894.727 182.046 902.433 186.348L903.004 186.633C904.507 187.58 906.143 188.376 907.932 189.021C909.72 189.684 911.451 190.29 913.145 190.84C916.341 191.788 919.5 192.489 922.601 192.944C925.702 193.418 928.86 193.645 932.057 193.645C935.253 193.645 938.412 193.418 941.513 192.944C944.614 192.47 947.773 191.769 950.969 190.84C952.662 190.272 954.356 189.665 956.049 189.021C957.742 188.376 959.436 187.58 961.129 186.633L961.7 186.348C969.405 182.046 975.95 176.379 981.297 169.347C986.662 162.316 990.924 154.791 994.139 146.717C995.642 142.964 996.86 139.136 997.811 135.193C998.744 131.251 999.41 127.233 999.79 123.101H999.771ZM932.057 71.3968C932.437 77.386 932.951 82.0675 933.617 85.4412C934.264 88.8149 935.539 91.3925 937.422 93.1741C939.306 94.9557 941.931 96.1687 945.318 96.8321C948.705 97.4954 953.404 98.1019 959.417 98.6516C953.404 99.0306 948.705 99.5424 945.318 100.206C941.931 100.869 939.306 102.082 937.422 103.864C935.539 105.645 934.264 108.223 933.617 111.597C932.951 114.97 932.437 119.652 932.057 125.641C931.486 119.652 930.877 114.97 930.23 111.597C929.564 108.223 928.347 105.645 926.558 103.864C924.77 102.082 922.182 100.869 918.796 100.206C915.409 99.5424 910.709 99.0306 904.697 98.6516C910.709 98.083 915.409 97.4765 918.796 96.8321C922.182 96.1877 924.77 94.9557 926.558 93.1741C928.347 91.3925 929.564 88.8149 930.23 85.4412C930.896 82.0675 931.505 77.386 932.057 71.3968Z" fill="white"/>
<path d="M1154.93 195.313C1158.13 195.313 1160.94 193.494 1163.4 189.836C1165.83 186.178 1167.91 181.818 1169.6 176.777C1171.29 171.716 1172.7 166.466 1173.82 161.046C1174.95 155.606 1175.8 151.114 1176.35 147.551V197.019H1038.97C1043.28 196.28 1046.86 194.214 1049.68 190.84C1052.49 187.467 1053.9 183.638 1053.9 179.317V18.2709C1053.9 13.779 1052.49 9.89359 1049.68 6.61468C1046.86 3.33577 1043.28 1.23196 1038.97 0.284302H1090.58C1086.25 1.04243 1082.69 3.08938 1079.87 6.46306C1077.06 9.83673 1075.65 13.779 1075.65 18.2709V179.298C1075.65 182.671 1076.54 185.818 1078.33 188.717C1080.12 191.617 1082.52 193.816 1085.52 195.313H1154.93Z" fill="white"/>
<path d="M1219.26 179.298C1219.26 183.619 1220.67 187.448 1223.48 190.821C1226.3 194.195 1229.87 196.261 1234.19 197H1182.58C1186.89 196.261 1190.47 194.195 1193.29 190.821C1196.1 187.448 1197.51 183.619 1197.51 179.298V18.2709C1197.51 13.779 1196.1 9.8936 1193.29 6.61468C1190.47 3.33577 1186.89 1.23196 1182.58 0.284302H1234.19C1229.86 1.04243 1226.3 3.08938 1223.48 6.46306C1220.67 9.83674 1219.26 13.779 1219.26 18.2709V179.298Z" fill="white"/>
<path d="M1433.93 63.7966C1437.89 75.0358 1439.9 86.5215 1440 98.2157C1440.1 109.929 1438.17 121.395 1434.22 132.635C1431.02 141.808 1426.64 150.337 1421.11 158.203C1415.55 166.068 1408.84 173.005 1400.94 178.994C1393.04 184.794 1384.58 189.248 1375.56 192.337C1366.54 195.427 1357.12 196.981 1347.34 196.981H1344.37C1343.35 196.981 1342.36 196.886 1341.41 196.697C1340.45 196.886 1339.48 196.981 1338.44 196.981H1335.47C1325.69 196.981 1316.23 195.427 1307.12 192.337C1297.99 189.248 1289.58 184.794 1281.87 178.994C1273.98 173.005 1267.2 166.068 1261.55 158.203C1255.9 150.337 1251.49 141.808 1248.29 132.635C1244.52 121.395 1242.64 109.929 1242.64 98.2157C1242.64 86.5026 1244.62 75.0358 1248.56 63.7966C1251.75 54.6232 1256.17 46.0942 1261.82 38.2287C1267.47 30.3631 1274.22 23.5209 1282.14 17.7212C1289.85 12.0921 1298.25 7.75184 1307.39 4.66246C1316.5 1.57309 1325.86 0.0189209 1335.45 0.0189209C1336.38 0.0189209 1337.37 0.0757806 1338.42 0.151594C1339.45 0.24636 1340.44 0.284266 1341.39 0.284266C1342.34 0.284266 1343.31 0.24636 1344.36 0.151594C1345.38 0.0568274 1346.37 0.0189209 1347.32 0.0189209C1356.91 0.0189209 1366.22 1.57309 1375.25 4.66246C1384.27 7.75184 1392.64 12.1111 1400.37 17.7212C1408.26 23.5209 1415.08 30.3631 1420.82 38.2287C1426.55 46.0942 1431.02 54.6232 1434.22 63.7966H1433.93ZM1409.1 123.101C1411.18 106.801 1411.18 90.5017 1409.1 74.2019C1408.72 70.0891 1408.07 66.0141 1407.12 61.9771C1406.17 57.959 1404.95 54.0736 1403.45 50.3208C1400.25 42.2657 1395.97 34.7223 1390.61 27.6907C1385.24 20.659 1378.72 14.992 1371.01 10.6896L1370.44 10.4053C1367.05 8.71846 1363.67 7.31592 1360.28 6.19768C1357.08 5.26897 1353.93 4.60561 1350.82 4.22654C1347.72 3.84748 1344.56 3.58213 1341.37 3.3926C1334.59 3.77166 1328.3 4.70037 1322.48 6.19768C1320.78 6.76627 1319.05 7.37278 1317.26 8.01719C1315.47 8.68055 1313.84 9.47659 1312.33 10.4053L1311.76 10.6896C1304.06 15.0109 1297.51 20.659 1292.17 27.6907C1286.8 34.7223 1282.52 42.2657 1279.32 50.3208C1277.82 54.0736 1276.6 57.959 1275.65 61.9771C1274.7 66.0141 1273.96 70.0891 1273.39 74.2019C1271.69 90.5017 1271.69 106.801 1273.39 123.101C1273.96 127.233 1274.7 131.251 1275.65 135.193C1276.58 139.136 1277.82 142.964 1279.32 146.717C1282.52 154.772 1286.8 162.316 1292.17 169.347C1297.53 176.379 1304.06 182.046 1311.76 186.348L1312.33 186.633C1313.84 187.58 1315.47 188.376 1317.26 189.021C1319.05 189.684 1320.78 190.29 1322.48 190.84C1325.67 191.788 1328.83 192.489 1331.93 192.944C1335.03 193.418 1338.19 193.645 1341.39 193.645C1344.58 193.645 1347.74 193.418 1350.84 192.944C1353.94 192.47 1357.1 191.769 1360.3 190.84C1361.99 190.272 1363.69 189.665 1365.38 189.021C1367.07 188.376 1368.77 187.58 1370.46 186.633L1371.03 186.348C1378.74 182.046 1385.28 176.379 1390.63 169.347C1395.99 162.316 1400.25 154.791 1403.47 146.717C1404.97 142.964 1406.19 139.136 1407.14 135.193C1408.07 131.251 1408.74 127.233 1409.12 123.101H1409.1ZM1341.39 71.3968C1341.77 77.386 1342.28 82.0675 1342.95 85.4412C1343.59 88.8149 1344.87 91.3925 1346.75 93.1741C1348.64 94.9557 1351.26 96.1687 1354.65 96.8321C1358.04 97.4954 1362.73 98.1019 1368.75 98.6516C1362.73 99.0306 1358.04 99.5424 1354.65 100.206C1351.26 100.869 1348.64 102.082 1346.75 103.864C1344.87 105.645 1343.59 108.223 1342.95 111.597C1342.28 114.97 1341.77 119.652 1341.39 125.641C1340.82 119.652 1340.21 114.97 1339.56 111.597C1338.89 108.223 1337.68 105.645 1335.89 103.864C1334.1 102.082 1331.51 100.869 1328.13 100.206C1324.74 99.5424 1320.04 99.0306 1314.03 98.6516C1320.04 98.083 1324.74 97.4765 1328.13 96.8321C1331.51 96.1877 1334.1 94.9557 1335.89 93.1741C1337.68 91.3925 1338.89 88.8149 1339.56 85.4412C1340.23 82.0675 1340.84 77.386 1341.39 71.3968Z" fill="white"/>
</g>
<defs>
<clipPath id="clip0_212_2971">
<rect width="1440" height="196" fill="white"/>
</clipPath>
</defs>
</svg>
