<svg width="293" height="50" viewBox="0 0 293 50" fill="none" xmlns="http://www.w3.org/2000/svg">
<path d="M23.5656 9.21094V8.34375H34.8156V9.21094H33.6203C32.3703 9.21094 31.4094 9.73437 30.7375 10.7812C30.4094 11.2656 30.2453 12.3906 30.2453 14.1562V27.0469C30.2453 30.2344 29.925 32.7109 29.2844 34.4766C28.6594 36.2266 27.4172 37.7344 25.5578 39C23.7141 40.25 21.1984 40.875 18.0109 40.875C14.5422 40.875 11.9094 40.2734 10.1125 39.0703C8.31563 37.8672 7.04219 36.25 6.29219 34.2188C5.79219 32.8281 5.54219 30.2188 5.54219 26.3906V13.9688C5.54219 12.0156 5.26875 10.7344 4.72188 10.125C4.19063 9.51562 3.32344 9.21094 2.12032 9.21094H0.925003V8.34375H14.6594V9.21094H13.4406C12.1281 9.21094 11.1906 9.625 10.6281 10.4531C10.2375 11.0156 10.0422 12.1875 10.0422 13.9688V27.8203C10.0422 29.0547 10.1516 30.4688 10.3703 32.0625C10.6047 33.6562 11.0188 34.8984 11.6125 35.7891C12.2063 36.6797 13.0578 37.4141 14.1672 37.9922C15.2922 38.5703 16.6672 38.8594 18.2922 38.8594C20.3703 38.8594 22.2297 38.4062 23.8703 37.5C25.5109 36.5938 26.6281 35.4375 27.2219 34.0312C27.8313 32.6094 28.1359 30.2109 28.1359 26.8359V13.9688C28.1359 11.9844 27.9172 10.7422 27.4797 10.2422C26.8703 9.55469 25.9641 9.21094 24.7609 9.21094H23.5656ZM46.9047 39.3516V40.2188H33.2875V39.3516H34.4125C35.725 39.3516 36.6781 38.9688 37.2719 38.2031C37.6469 37.7031 37.8344 36.5 37.8344 34.5938V14.0625C37.8344 12.4531 37.7328 11.3906 37.5297 10.875C37.3734 10.4844 37.0531 10.1484 36.5688 9.86719C35.8813 9.49219 35.1625 9.30469 34.4125 9.30469H33.2875V8.4375H46.9047V9.30469H45.7563C44.4594 9.30469 43.5141 9.6875 42.9203 10.4531C42.5297 10.9531 42.3344 12.1562 42.3344 14.0625V34.5938C42.3344 36.2031 42.4359 37.2656 42.6391 37.7812C42.7953 38.1719 43.1234 38.5078 43.6234 38.7891C44.2953 39.1641 45.0063 39.3516 45.7563 39.3516H46.9047ZM80.9734 5.67188L69.4656 39.6562H67.5906L79.0984 5.67188H80.9734ZM121.816 9.21094V8.34375H133.066V9.21094H131.87C130.62 9.21094 129.659 9.73437 128.988 10.7812C128.659 11.2656 128.495 12.3906 128.495 14.1562V27.0469C128.495 30.2344 128.175 32.7109 127.534 34.4766C126.909 36.2266 125.667 37.7344 123.808 39C121.964 40.25 119.448 40.875 116.261 40.875C112.792 40.875 110.159 40.2734 108.363 39.0703C106.566 37.8672 105.292 36.25 104.542 34.2188C104.042 32.8281 103.792 30.2188 103.792 26.3906V13.9688C103.792 12.0156 103.519 10.7344 102.972 10.125C102.441 9.51562 101.573 9.21094 100.37 9.21094H99.175V8.34375H112.909V9.21094H111.691C110.378 9.21094 109.441 9.625 108.878 10.4531C108.488 11.0156 108.292 12.1875 108.292 13.9688V27.8203C108.292 29.0547 108.402 30.4688 108.62 32.0625C108.855 33.6562 109.269 34.8984 109.863 35.7891C110.456 36.6797 111.308 37.4141 112.417 37.9922C113.542 38.5703 114.917 38.8594 116.542 38.8594C118.62 38.8594 120.48 38.4062 122.12 37.5C123.761 36.5938 124.878 35.4375 125.472 34.0312C126.081 32.6094 126.386 30.2109 126.386 26.8359V13.9688C126.386 11.9844 126.167 10.7422 125.73 10.2422C125.12 9.55469 124.214 9.21094 123.011 9.21094H121.816ZM146.936 23.8359L153.756 34.0078C155.647 36.8203 157.045 38.5938 157.952 39.3281C158.873 40.0781 160.038 40.4922 161.444 40.5703V41.4375H147.803V40.5703C148.709 40.5547 149.381 40.4609 149.819 40.2891C150.147 40.1484 150.413 39.9297 150.616 39.6328C150.834 39.3516 150.944 39.0625 150.944 38.7656C150.944 38.4062 150.873 38.0469 150.733 37.6875C150.623 37.4219 150.194 36.7344 149.444 35.625L144.053 27.4688L137.397 36C136.694 36.9062 136.272 37.5156 136.131 37.8281C135.991 38.125 135.92 38.4375 135.92 38.7656C135.92 39.2656 136.131 39.6797 136.553 40.0078C136.975 40.3359 137.78 40.5234 138.967 40.5703V41.4375H127.694V40.5703C128.491 40.4922 129.178 40.3281 129.756 40.0781C130.725 39.6719 131.647 39.125 132.522 38.4375C133.397 37.75 134.397 36.6953 135.522 35.2734L143.022 25.8047L136.764 16.6406C135.061 14.1562 133.616 12.5312 132.428 11.7656C131.241 10.9844 129.873 10.5703 128.327 10.5234V9.65625H143.022V10.5234C141.772 10.5703 140.913 10.7734 140.444 11.1328C139.991 11.4922 139.764 11.8906 139.764 12.3281C139.764 12.9062 140.139 13.75 140.889 14.8594L145.764 22.1484L151.413 15C152.069 14.1562 152.467 13.5781 152.608 13.2656C152.764 12.9531 152.842 12.6328 152.842 12.3047C152.842 11.9766 152.748 11.6875 152.561 11.4375C152.327 11.1094 152.03 10.8828 151.67 10.7578C151.311 10.6172 150.569 10.5391 149.444 10.5234V9.65625H160.717V10.5234C159.827 10.5703 159.1 10.7109 158.538 10.9453C157.694 11.3047 156.92 11.7891 156.217 12.3984C155.514 13.0078 154.522 14.1328 153.241 15.7734L146.936 23.8359ZM195.137 40.0547C194.091 41.1484 193.067 41.9297 192.067 42.3984C191.067 42.8828 189.989 43.125 188.833 43.125C186.489 43.125 184.442 42.1406 182.692 40.1719C180.942 38.2188 180.067 35.7031 180.067 32.625C180.067 29.5469 181.036 26.7344 182.973 24.1875C184.911 21.625 187.403 20.3438 190.45 20.3438C192.341 20.3438 193.903 20.9453 195.137 22.1484V18.1875C195.137 15.7344 195.075 14.2266 194.95 13.6641C194.841 13.1016 194.661 12.7188 194.411 12.5156C194.161 12.3125 193.848 12.2109 193.473 12.2109C193.067 12.2109 192.528 12.3359 191.856 12.5859L191.552 11.7656L197.95 9.14062H199.005V33.9609C199.005 36.4766 199.059 38.0156 199.169 38.5781C199.294 39.125 199.481 39.5078 199.731 39.7266C199.997 39.9453 200.302 40.0547 200.645 40.0547C201.067 40.0547 201.63 39.9219 202.333 39.6562L202.591 40.4766L196.216 43.125H195.137V40.0547ZM195.137 38.9766V27.9141C195.044 26.8516 194.762 25.8828 194.294 25.0078C193.825 24.1328 193.2 23.4766 192.419 23.0391C191.653 22.5859 190.903 22.3594 190.169 22.3594C188.794 22.3594 187.567 22.9766 186.489 24.2109C185.067 25.8359 184.356 28.2109 184.356 31.3359C184.356 34.4922 185.044 36.9141 186.419 38.6016C187.794 40.2734 189.325 41.1094 191.012 41.1094C192.434 41.1094 193.809 40.3984 195.137 38.9766ZM205.164 22.5234C205.148 25.7109 205.922 28.2109 207.484 30.0234C209.047 31.8359 210.883 32.7422 212.992 32.7422C214.398 32.7422 215.617 32.3594 216.648 31.5938C217.695 30.8125 218.57 29.4844 219.273 27.6094L220 28.0781C219.672 30.2188 218.719 32.1719 217.141 33.9375C215.562 35.6875 213.586 36.5625 211.211 36.5625C208.633 36.5625 206.422 35.5625 204.578 33.5625C202.75 31.5469 201.836 28.8438 201.836 25.4531C201.836 21.7812 202.773 18.9219 204.648 16.875C206.539 14.8125 208.906 13.7812 211.75 13.7812C214.156 13.7812 216.133 14.5781 217.68 16.1719C219.227 17.75 220 19.8672 220 22.5234H205.164ZM205.117 21.1875H218.242C217.742 20 217.211 18.8125 216.648 17.625C215.586 16.8125 214.664 16.2969 213.883 16.0781C213.117 15.8438 212.312 15.7266 211.469 15.7266C210.172 15.7266 209.008 16.2344 207.977 17.25C206.961 18.25 206.008 19.5625 205.117 21.1875ZM234.808 13.8047V21.1172H234.034C233.441 18.8203 232.675 17.2578 231.738 16.4297C230.816 15.6016 229.636 15.1875 228.198 15.1875C227.105 15.1875 226.222 15.4766 225.55 16.0547C224.878 16.6328 224.542 17.2734 224.542 17.9766C224.542 18.8516 224.792 19.6016 225.292 20.2266C225.777 20.8672 226.761 21.5469 228.245 22.2656L231.667 23.9297C234.839 25.4766 236.425 27.5156 236.425 30.0469C236.425 32 235.683 33.5781 234.198 34.7812C232.73 35.9688 231.081 36.5625 229.253 36.5625C227.941 36.5625 226.441 36.3281 224.753 35.8594C224.238 35.7031 223.816 35.625 223.488 35.625C223.128 35.625 222.847 35.8281 222.644 36.2344H221.87V28.5703H222.644C223.081 30.7578 223.917 32.4062 225.152 33.5156C226.386 34.625 227.769 35.1797 229.3 35.1797C230.378 35.1797 231.253 34.8672 231.925 34.2422C232.613 33.6016 232.956 32.8359 232.956 31.9453C232.956 30.8672 232.573 29.9609 231.808 29.2266C231.058 28.4922 229.55 27.5625 227.284 26.4375C225.019 25.3125 223.534 24.2969 222.831 23.3906C222.128 22.5 221.777 21.375 221.777 20.0156C221.777 18.25 222.386 16.7734 223.605 15.5859C224.808 14.3984 226.37 13.8047 228.292 13.8047C229.136 13.8047 230.159 13.9844 231.363 14.3438C232.159 14.5781 232.691 14.6953 232.956 14.6953C233.206 14.6953 233.402 14.6406 233.542 14.5312C233.683 14.4219 233.847 14.1797 234.034 13.8047H234.808ZM244.436 0.1875C245.358 3.65625 246.045 5.625 246.498 6.09375C246.967 6.54687 249.342 7.04688 253.623 7.59375C249.342 8.35938 246.967 8.97656 246.498 9.44531C246.045 9.91406 245.483 11.8281 244.811 15.1875C244.17 11.8281 243.616 9.91406 243.147 9.44531C242.678 8.97656 240.452 8.29688 236.467 7.40625C240.452 6.98438 242.67 6.54687 243.123 6.09375C243.592 5.625 244.03 3.65625 244.436 0.1875ZM246.311 18.8672V36.1172C246.311 37.4609 246.405 38.3594 246.592 38.8125C246.795 39.25 247.084 39.5781 247.459 39.7969C247.85 40.0156 248.553 40.125 249.569 40.125V40.9688H239.139V40.125C240.186 40.125 240.889 40.0234 241.248 39.8203C241.608 39.6172 241.889 39.2812 242.092 38.8125C242.311 38.3438 242.42 37.4453 242.42 36.1172V27.8438C242.42 25.5156 242.35 24.0078 242.209 23.3203C242.1 22.8203 241.928 22.4766 241.694 22.2891C241.459 22.0859 241.139 21.9844 240.733 21.9844C240.295 21.9844 239.764 22.1016 239.139 22.3359L238.811 21.4922L245.28 18.8672H246.311ZM255.588 31.0781C254.275 30.4375 253.267 29.5469 252.564 28.4062C251.861 27.25 251.509 25.9766 251.509 24.5859C251.509 22.4609 252.314 20.6328 253.923 19.1016C255.517 17.5703 257.564 16.8047 260.064 16.8047C262.111 16.8047 263.884 17.3047 265.384 18.3047H269.931C270.603 18.3047 270.994 18.3281 271.103 18.375C271.213 18.4062 271.291 18.4688 271.338 18.5625C271.431 18.7031 271.478 18.9531 271.478 19.3125C271.478 19.7188 271.439 20 271.361 20.1562C271.314 20.2344 271.228 20.2969 271.103 20.3438C270.994 20.3906 270.603 20.4141 269.931 20.4141H267.142C268.017 21.5391 268.455 22.9766 268.455 24.7266C268.455 26.7266 267.689 28.4375 266.158 29.8594C264.627 31.2812 262.572 31.9922 259.994 31.9922C258.931 31.9922 257.845 31.8359 256.736 31.5234C256.048 32.1172 255.58 32.6406 255.33 33.0938C255.095 33.5312 254.978 33.9062 254.978 34.2188C254.978 34.4844 255.103 34.7422 255.353 34.9922C255.619 35.2422 256.127 35.4219 256.877 35.5312C257.314 35.5938 258.408 35.6484 260.158 35.6953C263.377 35.7734 265.463 35.8828 266.416 36.0234C267.869 36.2266 269.025 36.7656 269.884 37.6406C270.759 38.5156 271.197 39.5938 271.197 40.875C271.197 42.6406 270.369 44.2969 268.713 45.8438C266.275 48.125 263.095 49.2656 259.173 49.2656C256.158 49.2656 253.611 48.5859 251.533 47.2266C250.361 46.4453 249.775 45.6328 249.775 44.7891C249.775 44.4141 249.861 44.0391 250.033 43.6641C250.298 43.0859 250.845 42.2812 251.673 41.25C251.783 41.1094 252.58 40.2656 254.064 38.7188C253.252 38.2344 252.681 37.8047 252.353 37.4297C252.009 37.0391 251.838 36.6016 251.838 36.1172C251.838 35.5703 252.064 34.9297 252.517 34.1953C252.955 33.4609 253.978 32.4219 255.588 31.0781ZM259.759 17.6484C258.603 17.6484 257.634 18.1094 256.853 19.0312C256.072 19.9531 255.681 21.3672 255.681 23.2734C255.681 25.7422 256.213 27.6562 257.275 29.0156C258.088 30.0469 259.119 30.5625 260.369 30.5625C261.556 30.5625 262.533 30.1172 263.298 29.2266C264.064 28.3359 264.447 26.9375 264.447 25.0312C264.447 22.5469 263.908 20.6016 262.83 19.1953C262.033 18.1641 261.009 17.6484 259.759 17.6484ZM255.259 38.5312C254.525 39.3281 253.97 40.0703 253.595 40.7578C253.22 41.4453 253.033 42.0781 253.033 42.6562C253.033 43.4062 253.486 44.0625 254.392 44.625C255.955 45.5938 258.213 46.0781 261.166 46.0781C263.978 46.0781 266.048 45.5781 267.377 44.5781C268.72 43.5938 269.392 42.5391 269.392 41.4141C269.392 40.6016 268.994 40.0234 268.197 39.6797C267.384 39.3359 265.775 39.1328 263.369 39.0703C259.853 38.9766 257.15 38.7969 255.259 38.5312ZM276.934 17.8828C279.45 14.8516 281.848 13.3359 284.13 13.3359C285.302 13.3359 286.309 13.6328 287.153 14.2266C287.997 14.8047 288.669 15.7656 289.169 17.1094C289.513 18.0469 289.684 19.4844 289.684 21.4219V30.5859C289.684 31.9453 289.794 32.8672 290.013 33.3516C290.184 33.7422 290.458 34.0469 290.833 34.2656C291.223 34.4844 291.934 34.5938 292.966 34.5938V35.4375H282.348V34.5938H282.794C283.794 34.5938 284.489 34.4453 284.88 34.1484C285.286 33.8359 285.567 33.3828 285.723 32.7891C285.786 32.5547 285.817 31.8203 285.817 30.5859V21.7969C285.817 19.8438 285.559 18.4297 285.044 17.5547C284.544 16.6641 283.692 16.2188 282.489 16.2188C280.63 16.2188 278.778 17.2344 276.934 19.2656V30.5859C276.934 32.0391 277.02 32.9375 277.192 33.2812C277.411 33.7344 277.708 34.0703 278.083 34.2891C278.473 34.4922 279.255 34.5938 280.427 34.5938V35.4375H269.809V34.5938H270.278C271.372 34.5938 272.114 34.3203 272.505 33.7734C272.88 33.2109 273.067 32.1484 273.067 30.5859V22.6172C273.067 20.0391 273.013 18.4688 272.903 17.9062C272.778 17.3438 272.598 16.9609 272.364 16.7578C272.114 16.5547 271.786 16.4531 271.38 16.4531C270.942 16.4531 270.419 16.5703 269.809 16.8047L269.458 15.9609L275.927 13.3359H276.934V17.8828Z" fill="black"/>
</svg>
